<?xml version="1.0" encoding="utf-8"?>
<!-- Generator: Adobe Illustrator 25.3.1, SVG Export Plug-In . SVG Version: 6.00 Build 0)  -->
<svg version="1.1" id="Layer_1" xmlns="http://www.w3.org/2000/svg" xmlns:xlink="http://www.w3.org/1999/xlink" x="0px" y="0px"
	 viewBox="0 0 1042.6 521.5" style="enable-background:new 0 0 1042.6 521.5;" xml:space="preserve">
<style type="text/css">
	.st0{fill:none;stroke:#000000;stroke-opacity:0;}
	.st1{clip-path:url(#SVGID_2_);fill:none;stroke:#545454;stroke-width:5.2;stroke-dasharray:2,1;}
	.st2{clip-path:url(#SVGID_4_);fill:#FFFFFF;}
	.st3{clip-path:url(#SVGID_6_);fill:#8DD3C7;}
	.st4{clip-path:url(#SVGID_8_);fill:#8DD3C7;}
	.st5{clip-path:url(#SVGID_10_);fill:#8DD3C7;}
	.st6{clip-path:url(#SVGID_12_);fill:#BEBADA;}
	.st7{clip-path:url(#SVGID_14_);fill:#FB8072;}
	.st8{clip-path:url(#SVGID_16_);fill:#8DD3C7;}
	.st9{clip-path:url(#SVGID_18_);fill:#80B1D3;}
	.st10{clip-path:url(#SVGID_20_);fill:#8DD3C7;}
	.st11{clip-path:url(#SVGID_22_);fill:#8DD3C7;}
	.st12{clip-path:url(#SVGID_24_);fill:#BEBADA;}
	.st13{clip-path:url(#SVGID_26_);fill:#E8E89E;}
	.st14{clip-path:url(#SVGID_28_);fill:#8DD3C7;}
	.st15{clip-path:url(#SVGID_30_);fill:#A6D854;}
	.st16{clip-path:url(#SVGID_32_);fill:#BEBADA;}
	.st17{clip-path:url(#SVGID_34_);fill:#8DD3C7;}
	.st18{clip-path:url(#SVGID_36_);fill:#BEBADA;}
	.st19{clip-path:url(#SVGID_38_);fill:#BEBADA;}
	.st20{clip-path:url(#SVGID_40_);fill:#8DD3C7;}
	.st21{clip-path:url(#SVGID_42_);fill:none;stroke:#000000;stroke-dasharray:3,2;}
	.st22{clip-path:url(#SVGID_44_);fill:none;stroke:#000000;stroke-dasharray:3,2;}
	.st23{fill:none;stroke:#000000;}
	.st24{font-family:'ArialMT';}
	.st25{font-size:15px;}
	.st26{fill:none;stroke:#545454;stroke-width:5.2;stroke-dasharray:2,1;}
	.st27{clip-path:url(#SVGID_46_);fill:#8DD3C7;}
	.st28{clip-path:url(#SVGID_48_);fill:none;stroke:#000000;stroke-dasharray:3,2;}
	.st29{clip-path:url(#SVGID_50_);fill:none;stroke:#000000;stroke-dasharray:3,2;}
	.st30{clip-path:url(#SVGID_52_);fill:none;stroke:#000000;stroke-dasharray:3,2;}
	.st31{clip-path:url(#SVGID_54_);fill:none;stroke:#000000;stroke-dasharray:3,2;}
	.st32{clip-path:url(#SVGID_56_);fill:none;stroke:#000000;stroke-dasharray:3,2;}
	.st33{clip-path:url(#SVGID_58_);fill:none;stroke:#000000;stroke-dasharray:3,2;}
	.st34{clip-path:url(#SVGID_60_);fill:none;stroke:#000000;stroke-dasharray:3,2;}
	.st35{clip-path:url(#SVGID_62_);fill:none;stroke:#000000;}
	.st36{enable-background:new    ;}
	.st37{fill:#858585;}
	.st38{font-size:13px;}
	.st39{fill:#FF0000;}
	.st40{clip-path:url(#SVGID_65_);}
	.st41{fill:none;stroke:#000000;stroke-dasharray:3,2;}
	.st42{display:none;enable-background:new    ;}
	.st43{font-size:12px;}
	.st44{font-family:'Arial-BoldMT';}
	.st45{fill:#E8E89E;stroke:#AAAAAA;}
	.st46{fill:#BEBADA;stroke:#AAAAAA;}
	.st47{fill:#A6D854;stroke:#AAAAAA;}
	.st48{fill:#FB8072;stroke:#AAAAAA;}
	.st49{fill:#8DD3C7;stroke:#AAAAAA;}
	.st50{fill:#80B1D3;stroke:#AAAAAA;}
</style>
<g transform="translate(40,70)">
	<g transform="translate(193.19648177215328,0)">
		<line shape-rendering="crispEdges" class="st0" x1="140.4" y1="-2.8" x2="140.4" y2="0.2"/>
		<g>
			<defs>
				<rect id="SVGID_1_" x="60.1" y="0.2" width="198.8" height="26"/>
			</defs>
			<clipPath id="SVGID_2_">
				<use xlink:href="#SVGID_1_"  style="overflow:visible;"/>
			</clipPath>
			<line class="st1" x1="65" y1="13.2" x2="220.6" y2="13.2"/>
		</g>
		<g>
			<defs>
				<rect id="SVGID_3_" x="60.1" y="0.2" width="198.8" height="26"/>
			</defs>
			<clipPath id="SVGID_4_">
				<use xlink:href="#SVGID_3_"  style="overflow:visible;"/>
			</clipPath>
			<rect x="60.1" y="0.2" class="st2" width="4.8" height="26"/>
		</g>
		<g>
			<defs>
				<rect id="SVGID_5_" x="60.1" y="0.2" width="198.8" height="26"/>
			</defs>
			<clipPath id="SVGID_6_">
				<use xlink:href="#SVGID_5_"  style="overflow:visible;"/>
			</clipPath>
			<rect x="64.5" y="0.2" class="st3" width="0" height="26"/>
		</g>
		<g>
			<defs>
				<rect id="SVGID_7_" x="60.1" y="0.2" width="198.8" height="26"/>
			</defs>
			<clipPath id="SVGID_8_">
				<use xlink:href="#SVGID_7_"  style="overflow:visible;"/>
			</clipPath>
			<rect x="64.3" y="0.2" class="st4" width="0" height="26"/>
		</g>
		<g>
			<defs>
				<rect id="SVGID_9_" x="60.1" y="0.2" width="198.8" height="26"/>
			</defs>
			<clipPath id="SVGID_10_">
				<use xlink:href="#SVGID_9_"  style="overflow:visible;"/>
			</clipPath>
			<rect x="64.6" y="0.2" class="st5" width="0" height="26"/>
		</g>
		<g>
			<defs>
				<rect id="SVGID_11_" x="60.1" y="0.2" width="198.8" height="26"/>
			</defs>
			<clipPath id="SVGID_12_">
				<use xlink:href="#SVGID_11_"  style="overflow:visible;"/>
			</clipPath>
			<rect x="64.4" y="0.2" class="st6" width="0" height="26"/>
		</g>
		<g>
			<defs>
				<rect id="SVGID_13_" x="60.1" y="0.2" width="198.8" height="26"/>
			</defs>
			<clipPath id="SVGID_14_">
				<use xlink:href="#SVGID_13_"  style="overflow:visible;"/>
			</clipPath>
			<rect x="64.2" y="0.2" class="st7" width="0" height="26"/>
		</g>
		<g>
			<defs>
				<rect id="SVGID_15_" x="60.1" y="0.2" width="198.8" height="26"/>
			</defs>
			<clipPath id="SVGID_16_">
				<use xlink:href="#SVGID_15_"  style="overflow:visible;"/>
			</clipPath>
			<rect x="64.6" y="0.2" class="st8" width="0" height="26"/>
		</g>
		<g>
			<defs>
				<rect id="SVGID_17_" x="60.1" y="0.2" width="198.8" height="26"/>
			</defs>
			<clipPath id="SVGID_18_">
				<use xlink:href="#SVGID_17_"  style="overflow:visible;"/>
			</clipPath>
			<rect x="64.6" y="0.2" class="st9" width="0.3" height="26"/>
		</g>
		<g>
			<defs>
				<rect id="SVGID_19_" x="60.1" y="0.2" width="198.8" height="26"/>
			</defs>
			<clipPath id="SVGID_20_">
				<use xlink:href="#SVGID_19_"  style="overflow:visible;"/>
			</clipPath>
			<rect x="64.5" y="0.2" class="st10" width="0" height="26"/>
		</g>
		<g>
			<defs>
				<rect id="SVGID_21_" x="60.1" y="0.2" width="198.8" height="26"/>
			</defs>
			<clipPath id="SVGID_22_">
				<use xlink:href="#SVGID_21_"  style="overflow:visible;"/>
			</clipPath>
			<rect x="64.5" y="0.2" class="st11" width="0" height="26"/>
		</g>
		<g>
			<defs>
				<rect id="SVGID_23_" x="60.1" y="0.2" width="198.8" height="26"/>
			</defs>
			<clipPath id="SVGID_24_">
				<use xlink:href="#SVGID_23_"  style="overflow:visible;"/>
			</clipPath>
			<rect x="64.2" y="0.2" class="st12" width="0" height="26"/>
		</g>
		<g>
			<defs>
				<rect id="SVGID_25_" x="60.1" y="0.2" width="198.8" height="26"/>
			</defs>
			<clipPath id="SVGID_26_">
				<use xlink:href="#SVGID_25_"  style="overflow:visible;"/>
			</clipPath>
			<rect x="59.7" y="0.2" class="st13" width="5" height="26"/>
		</g>
		<g>
			<defs>
				<rect id="SVGID_27_" x="60.1" y="0.2" width="198.8" height="26"/>
			</defs>
			<clipPath id="SVGID_28_">
				<use xlink:href="#SVGID_27_"  style="overflow:visible;"/>
			</clipPath>
			<rect x="64.2" y="0.2" class="st14" width="0" height="26"/>
		</g>
		<g>
			<defs>
				<rect id="SVGID_29_" x="60.1" y="0.2" width="198.8" height="26"/>
			</defs>
			<clipPath id="SVGID_30_">
				<use xlink:href="#SVGID_29_"  style="overflow:visible;"/>
			</clipPath>
			<rect x="64.1" y="0.2" class="st15" width="0.6" height="26"/>
		</g>
		<g>
			<defs>
				<rect id="SVGID_31_" x="60.1" y="0.2" width="198.8" height="26"/>
			</defs>
			<clipPath id="SVGID_32_">
				<use xlink:href="#SVGID_31_"  style="overflow:visible;"/>
			</clipPath>
			<rect x="64.1" y="0.2" class="st16" width="0" height="26"/>
		</g>
		<g>
			<defs>
				<rect id="SVGID_33_" x="60.1" y="0.2" width="198.8" height="26"/>
			</defs>
			<clipPath id="SVGID_34_">
				<use xlink:href="#SVGID_33_"  style="overflow:visible;"/>
			</clipPath>
			<rect x="64.6" y="0.2" class="st17" width="0" height="26"/>
		</g>
		<g>
			<defs>
				<rect id="SVGID_35_" x="60.1" y="0.2" width="198.8" height="26"/>
			</defs>
			<clipPath id="SVGID_36_">
				<use xlink:href="#SVGID_35_"  style="overflow:visible;"/>
			</clipPath>
			<rect x="64.5" y="0.2" class="st18" width="0" height="26"/>
		</g>
		<g>
			<defs>
				<rect id="SVGID_37_" x="60.1" y="0.2" width="198.8" height="26"/>
			</defs>
			<clipPath id="SVGID_38_">
				<use xlink:href="#SVGID_37_"  style="overflow:visible;"/>
			</clipPath>
			<rect x="64.1" y="0.2" class="st19" width="0" height="26"/>
		</g>
		<g>
			<defs>
				<rect id="SVGID_39_" x="60.1" y="0.2" width="198.8" height="26"/>
			</defs>
			<clipPath id="SVGID_40_">
				<use xlink:href="#SVGID_39_"  style="overflow:visible;"/>
			</clipPath>
			<rect x="64.3" y="0.2" class="st20" width="0" height="26"/>
		</g>
		<g>
			<defs>
				<rect id="SVGID_41_" x="60.1" y="0.2" width="198.8" height="26"/>
			</defs>
			<clipPath id="SVGID_42_">
				<use xlink:href="#SVGID_41_"  style="overflow:visible;"/>
			</clipPath>
			<path shape-rendering="crispEdges" class="st21" d="M60.2,26.2"/>
			<path shape-rendering="crispEdges" class="st21" d="M60.2,0.2"/>
		</g>
		<g>
			<defs>
				<polyline id="SVGID_43_" points="60.1,0.2 259,0.2 259,26.2 60.1,26.2 				"/>
			</defs>
			<clipPath id="SVGID_44_">
				<use xlink:href="#SVGID_43_"  style="overflow:visible;"/>
			</clipPath>
			<path shape-rendering="crispEdges" class="st22" d="M63,26.2"/>
			<path shape-rendering="crispEdges" class="st22" d="M63,0.2"/>
		</g>
		<g>
			<rect x="57.6" y="0.2" class="st23" width="8" height="26"/>
		</g>
		<text transform="matrix(1 0 0 1 39.5889 -24.6896)" class="st24 st25">MYC</text>
	</g>
	<g transform="translate(0,106)">
		<line shape-rendering="crispEdges" class="st0" x1="260.1" y1="26.2" x2="260.1" y2="29.2"/>
		<g>
			<line class="st26" x1="65.9" y1="13.2" x2="460.1" y2="13.2"/>
		</g>
		<g>
			<defs>
				<polyline id="SVGID_45_" points="60.1,0.2 526,0.2 526,26.2 60.1,26.2 				"/>
			</defs>
			<clipPath id="SVGID_46_">
				<use xlink:href="#SVGID_45_"  style="overflow:visible;"/>
			</clipPath>
			<rect x="60.9" y="0.2" class="st27" width="5" height="26"/>
		</g>
		<g>
			<defs>
				<polyline id="SVGID_47_" points="60.1,0.2 526,0.2 526,26.2 60.1,26.2 				"/>
			</defs>
			<clipPath id="SVGID_48_">
				<use xlink:href="#SVGID_47_"  style="overflow:visible;"/>
			</clipPath>
			<path shape-rendering="crispEdges" class="st28" d="M62.3,26.2"/>
			<path shape-rendering="crispEdges" class="st28" d="M62.3,0.2"/>
		</g>
		<g>
			<defs>
				<polyline id="SVGID_49_" points="60.1,0.2 526,0.2 526,26.2 60.1,26.2 				"/>
			</defs>
			<clipPath id="SVGID_50_">
				<use xlink:href="#SVGID_49_"  style="overflow:visible;"/>
			</clipPath>
			<path shape-rendering="crispEdges" class="st29" d="M62.5,26.2"/>
			<path shape-rendering="crispEdges" class="st29" d="M62.5,0.2"/>
		</g>
		<g>
			<defs>
				<polyline id="SVGID_51_" points="60.1,0.2 526,0.2 526,26.2 60.1,26.2 				"/>
			</defs>
			<clipPath id="SVGID_52_">
				<use xlink:href="#SVGID_51_"  style="overflow:visible;"/>
			</clipPath>
			<path shape-rendering="crispEdges" class="st30" d="M62.9,26.2"/>
			<path shape-rendering="crispEdges" class="st30" d="M62.9,0.2"/>
		</g>
		<g>
			<defs>
				<polyline id="SVGID_53_" points="60.1,0.2 526,0.2 526,26.2 60.1,26.2 				"/>
			</defs>
			<clipPath id="SVGID_54_">
				<use xlink:href="#SVGID_53_"  style="overflow:visible;"/>
			</clipPath>
			<path shape-rendering="crispEdges" class="st31" d="M63.5,26.2"/>
			<path shape-rendering="crispEdges" class="st31" d="M63.5,0.2"/>
		</g>
		<g>
			<defs>
				<polyline id="SVGID_55_" points="60.1,0.2 526,0.2 526,26.2 60.1,26.2 				"/>
			</defs>
			<clipPath id="SVGID_56_">
				<use xlink:href="#SVGID_55_"  style="overflow:visible;"/>
			</clipPath>
			<path shape-rendering="crispEdges" class="st32" d="M63.6,26.2"/>
			<path shape-rendering="crispEdges" class="st32" d="M63.6,0.2"/>
		</g>
		<g>
			<defs>
				<polyline id="SVGID_57_" points="60.1,0.2 526,0.2 526,26.2 60.1,26.2 				"/>
			</defs>
			<clipPath id="SVGID_58_">
				<use xlink:href="#SVGID_57_"  style="overflow:visible;"/>
			</clipPath>
			<path shape-rendering="crispEdges" class="st33" d="M64,26.2"/>
			<path shape-rendering="crispEdges" class="st33" d="M64,0.2"/>
		</g>
		<g>
			<defs>
				<polyline id="SVGID_59_" points="60.1,0.2 526,0.2 526,26.2 60.1,26.2 				"/>
			</defs>
			<clipPath id="SVGID_60_">
				<use xlink:href="#SVGID_59_"  style="overflow:visible;"/>
			</clipPath>
			<path shape-rendering="crispEdges" class="st34" d="M64.4,26.2"/>
			<path shape-rendering="crispEdges" class="st34" d="M64.4,0.2"/>
		</g>
		<g>
			<defs>
				<polyline id="SVGID_61_" points="15.1,-2.4 512.9,-2.4 461.9,43 -3.9,43 				"/>
			</defs>
			<clipPath id="SVGID_62_">
				<use xlink:href="#SVGID_61_"  style="overflow:visible;"/>
			</clipPath>
			<rect x="58" y="0.2" class="st35" width="8" height="26"/>
		</g>
		<text transform="matrix(1 0 0 1 30.1426 63.9228)" class="st24 st25">ZCCHC7</text>
		<g class="st36">
			<text transform="matrix(1 0 0 1 168.2476 61.3359)" class="st37 st24 st38">starts at 111397 bp downstream</text>
		</g>
		<g class="st36">
			<text transform="matrix(1 0 0 1 232.3176 77.3359)" class="st39 st24 st38">antisense</text>
		</g>
		<g>
			<defs>
				<path id="SVGID_63_" d="M64.9,21.9"/>
			</defs>
			<defs>
				<line id="SVGID_64_" x1="506.7" y1="0.2" x2="526" y2="26.2"/>
			</defs>
			<clipPath id="SVGID_65_">
				<use xlink:href="#SVGID_63_"  style="overflow:visible;"/>
			</clipPath>
			<clipPath id="SVGID_66_" class="st40">
				<use xlink:href="#SVGID_64_"  style="overflow:visible;"/>
			</clipPath>
		</g>
	</g>
	<line class="st41" x1="413.8" y1="34.2" x2="460.1" y2="98.2"/>
	<g transform="translate(353.6721119201684,0)">
		<text transform="matrix(1 0 0 1 9.185 -24.5101)" class="st24 st38">43981 bp downstream</text>
		<rect x="-100.3" y="31.2" width="160.5" height="3"/>
	</g>
	<g transform="translate(400,106)">
		<text transform="matrix(1 0 0 1 -8.5455 63.9227)" class="st24 st38">111397 bp downstream</text>
		<text transform="matrix(1 0 0 1 60.1426 -28.3201)" class="st39 st24 st38">antisense</text>
		<rect x="-339.9" y="-7.8" class="st39" width="400" height="3"/>
	</g>
</g>
<g transform="translate(40,238)">
</g>
<text transform="matrix(1 0 0 1 481.2422 291)" class="st42 st24 st43">drag to resize</text>
<g transform="translate(0,259.525390625)">
	<g>
		<text transform="matrix(1 0 0 1 10 30)" class="st44 st43">MYC NM_002467</text>
		<g transform="translate(10,50)">
			<text transform="matrix(1 0 0 1 12.5 5)" class="st44 st43">Myc_N</text>
			<text transform="matrix(1 0 0 1 61.1875 5)" class="st24 st43">Myc amino-terminal region</text>
			<rect y="0.2" shape-rendering="crispEdges" class="st45" width="10" height="10"/>
		</g>
		<g transform="translate(10,75)">
			<text transform="matrix(1 0 0 1 12.5 5)" class="st44 st43">DNA binding</text>
			<text transform="matrix(1 0 0 1 94.7109 5)" class="st24 st43">DNA binding region [nucleotide binding]</text>
			<rect y="0.2" shape-rendering="crispEdges" class="st46" width="10" height="10"/>
		</g>
		<g transform="translate(10,100)">
			<text transform="matrix(1 0 0 1 12.5 5)" class="st44 st43">HLH</text>
			<text transform="matrix(1 0 0 1 47.1641 5)" class="st24 st43">Helix-loop-helix domain, found in specific DNA- binding proteins that act as ...</text>
			<rect y="0.2" shape-rendering="crispEdges" class="st47" width="10" height="10"/>
		</g>
		<g transform="translate(10,125)">
			<text transform="matrix(1 0 0 1 12.5 5)" class="st44 st43">other</text>
			<text transform="matrix(1 0 0 1 52.5 5)" class="st24 st43">E-box/N-box specificity site</text>
			<rect y="0.2" shape-rendering="crispEdges" class="st48" width="10" height="10"/>
		</g>
		<g transform="translate(10,150)">
			<text transform="matrix(1 0 0 1 12.5 5)" class="st44 st43">other</text>
			<text transform="matrix(1 0 0 1 52.5 5)" class="st24 st43">dimerization interface [polypeptide binding]</text>
			<rect y="0.2" shape-rendering="crispEdges" class="st49" width="10" height="10"/>
		</g>
		<g transform="translate(10,175)">
			<text transform="matrix(1 0 0 1 12.5 5)" class="st44 st43">Myc-LZ</text>
			<text transform="matrix(1 0 0 1 64.5 5)" class="st24 st43">Myc leucine zipper domain</text>
			<rect y="0.2" shape-rendering="crispEdges" class="st50" width="10" height="10"/>
		</g>
	</g>
	<g>
		<text transform="matrix(1 0 0 1 10 205)" class="st44 st43">ZCCHC7 NM_032226</text>
		<g transform="translate(10,225)">
			<text transform="matrix(1 0 0 1 12.5 5)" class="st44 st43">AIR1</text>
			<text transform="matrix(1 0 0 1 49.8438 5)" class="st24 st43">Arginine methyltransferase-interacting protein, contains RING Zn-finger [Post...</text>
			<rect y="0.2" shape-rendering="crispEdges" class="st49" width="10" height="10"/>
		</g>
	</g>
</g>
</svg>
