<?xml version="1.0" encoding="utf-8"?>
<!-- Generator: Adobe Illustrator 25.3.1, SVG Export Plug-In . SVG Version: 6.00 Build 0)  -->
<svg version="1.1" id="Layer_1" xmlns="http://www.w3.org/2000/svg" xmlns:xlink="http://www.w3.org/1999/xlink" x="0px" y="0px"
	 viewBox="0 0 803.7 578.5" style="enable-background:new 0 0 803.7 578.5;" xml:space="preserve">
<style type="text/css">
	.st0{fill:none;stroke:#000000;}
	.st1{clip-path:url(#SVGID_2_);fill:none;stroke:#858585;stroke-width:13.5;}
	.st2{clip-path:url(#SVGID_4_);fill:#FFFFFF;}
	.st3{clip-path:url(#SVGID_6_);fill:#8DD3C7;}
	.st4{clip-path:url(#SVGID_8_);fill:#8DD3C7;}
	.st5{clip-path:url(#SVGID_10_);fill:#8DD3C7;}
	.st6{clip-path:url(#SVGID_12_);fill:#BEBADA;}
	.st7{clip-path:url(#SVGID_14_);fill:#8DD3C7;}
	.st8{clip-path:url(#SVGID_16_);fill:#8DD3C7;}
	.st9{clip-path:url(#SVGID_18_);fill:#FB8072;}
	.st10{clip-path:url(#SVGID_20_);fill:#80B1D3;}
	.st11{clip-path:url(#SVGID_22_);fill:#8DD3C7;}
	.st12{clip-path:url(#SVGID_24_);fill:#8DD3C7;}
	.st13{clip-path:url(#SVGID_26_);fill:#E8E89E;}
	.st14{clip-path:url(#SVGID_28_);fill:#E8E89E;}
	.st15{clip-path:url(#SVGID_30_);fill:#8DD3C7;}
	.st16{clip-path:url(#SVGID_32_);fill:#8DD3C7;}
	.st17{clip-path:url(#SVGID_34_);fill:#8DD3C7;}
	.st18{clip-path:url(#SVGID_36_);fill:#8DD3C7;}
	.st19{clip-path:url(#SVGID_38_);fill:#8DD3C7;}
	.st20{clip-path:url(#SVGID_40_);fill:#8DD3C7;}
	.st21{clip-path:url(#SVGID_42_);fill:none;stroke:#000000;stroke-dasharray:3,2;}
	.st22{clip-path:url(#SVGID_44_);fill:none;stroke:#000000;}
	.st23{clip-path:url(#SVGID_48_);}
	.st24{clip-path:url(#SVGID_50_);fill:#FFFFFF;fill-opacity:0;}
	.st25{clip-path:url(#SVGID_54_);fill:none;stroke:#000000;}
	.st26{clip-path:url(#SVGID_56_);fill:none;stroke:#000000;}
	.st27{fill:none;stroke:#000000;stroke-dasharray:3,2;}
	.st28{fill-opacity:0;}
	.st29{display:none;enable-background:new    ;}
	.st30{font-family:'ArialMT';}
	.st31{font-size:12px;}
	.st32{font-family:'Arial-BoldMT';}
	.st33{fill:#FB8072;stroke:#AAAAAA;}
	.st34{fill:#80B1D3;stroke:#AAAAAA;}
	.st35{fill:#8DD3C7;stroke:#AAAAAA;}
	.st36{fill:#E8E89E;stroke:#AAAAAA;}
	.st37{fill:#BEBADA;stroke:#AAAAAA;}
</style>
<g transform="translate(40,70)">
	<g transform="translate(10, 132)">
		<path shape-rendering="crispEdges" class="st0" d="M152.9,0"/>
		<g>
			<defs>
				<rect id="SVGID_1_" x="52" width="201.8" height="26"/>
			</defs>
			<clipPath id="SVGID_2_">
				<use xlink:href="#SVGID_1_"  style="overflow:visible;"/>
			</clipPath>
			<line class="st1" x1="100" y1="13" x2="452" y2="13"/>
		</g>
		<g>
			<defs>
				<rect id="SVGID_3_" x="52" width="201.8" height="26"/>
			</defs>
			<clipPath id="SVGID_4_">
				<use xlink:href="#SVGID_3_"  style="overflow:visible;"/>
			</clipPath>
			<rect x="52" class="st2" width="48" height="26"/>
		</g>
		<g>
			<defs>
				<rect id="SVGID_5_" x="52" width="201.8" height="26"/>
			</defs>
			<clipPath id="SVGID_6_">
				<use xlink:href="#SVGID_5_"  style="overflow:visible;"/>
			</clipPath>
			<rect x="72" class="st3" width="0.2" height="26"/>
		</g>
		<g>
			<defs>
				<rect id="SVGID_7_" x="52" width="201.8" height="26"/>
			</defs>
			<clipPath id="SVGID_8_">
				<use xlink:href="#SVGID_7_"  style="overflow:visible;"/>
			</clipPath>
			<rect x="78.4" class="st4" width="0.2" height="26"/>
		</g>
		<g>
			<defs>
				<rect id="SVGID_9_" x="52" width="201.8" height="26"/>
			</defs>
			<clipPath id="SVGID_10_">
				<use xlink:href="#SVGID_9_"  style="overflow:visible;"/>
			</clipPath>
			<rect x="83.4" class="st5" width="0" height="26"/>
		</g>
		<g>
			<defs>
				<rect id="SVGID_11_" x="52" width="201.8" height="26"/>
			</defs>
			<clipPath id="SVGID_12_">
				<use xlink:href="#SVGID_11_"  style="overflow:visible;"/>
			</clipPath>
			<rect x="89.4" class="st6" width="2.8" height="26"/>
		</g>
		<g>
			<defs>
				<rect id="SVGID_13_" x="52" width="201.8" height="26"/>
			</defs>
			<clipPath id="SVGID_14_">
				<use xlink:href="#SVGID_13_"  style="overflow:visible;"/>
			</clipPath>
			<rect x="81" class="st7" width="0.2" height="26"/>
		</g>
		<g>
			<defs>
				<rect id="SVGID_15_" x="52" width="201.8" height="26"/>
			</defs>
			<clipPath id="SVGID_16_">
				<use xlink:href="#SVGID_15_"  style="overflow:visible;"/>
			</clipPath>
			<rect x="77.6" class="st8" width="0.2" height="26"/>
		</g>
		<g>
			<defs>
				<rect id="SVGID_17_" x="52" width="201.8" height="26"/>
			</defs>
			<clipPath id="SVGID_18_">
				<use xlink:href="#SVGID_17_"  style="overflow:visible;"/>
			</clipPath>
			<rect x="52.2" class="st9" width="47.6" height="26"/>
		</g>
		<g>
			<defs>
				<rect id="SVGID_19_" x="52" width="201.8" height="26"/>
			</defs>
			<clipPath id="SVGID_20_">
				<use xlink:href="#SVGID_19_"  style="overflow:visible;"/>
			</clipPath>
			<rect x="71.4" class="st10" width="1.6" height="26"/>
		</g>
		<g>
			<defs>
				<rect id="SVGID_21_" x="52" width="201.8" height="26"/>
			</defs>
			<clipPath id="SVGID_22_">
				<use xlink:href="#SVGID_21_"  style="overflow:visible;"/>
			</clipPath>
			<rect x="92.2" class="st11" width="0" height="26"/>
		</g>
		<g>
			<defs>
				<rect id="SVGID_23_" x="52" width="201.8" height="26"/>
			</defs>
			<clipPath id="SVGID_24_">
				<use xlink:href="#SVGID_23_"  style="overflow:visible;"/>
			</clipPath>
			<rect x="72.6" class="st12" width="0.2" height="26"/>
		</g>
		<g>
			<defs>
				<rect id="SVGID_25_" x="52" width="201.8" height="26"/>
			</defs>
			<clipPath id="SVGID_26_">
				<use xlink:href="#SVGID_25_"  style="overflow:visible;"/>
			</clipPath>
			<rect x="79.2" class="st13" width="0.4" height="26"/>
		</g>
		<g>
			<defs>
				<rect id="SVGID_27_" x="52" width="201.8" height="26"/>
			</defs>
			<clipPath id="SVGID_28_">
				<use xlink:href="#SVGID_27_"  style="overflow:visible;"/>
			</clipPath>
			<rect x="80.4" class="st14" width="2.4" height="26"/>
		</g>
		<g>
			<defs>
				<rect id="SVGID_29_" x="52" width="201.8" height="26"/>
			</defs>
			<clipPath id="SVGID_30_">
				<use xlink:href="#SVGID_29_"  style="overflow:visible;"/>
			</clipPath>
			<rect x="81.6" class="st15" width="0.2" height="26"/>
		</g>
		<g>
			<defs>
				<rect id="SVGID_31_" x="52" width="201.8" height="26"/>
			</defs>
			<clipPath id="SVGID_32_">
				<use xlink:href="#SVGID_31_"  style="overflow:visible;"/>
			</clipPath>
			<rect x="80.6" class="st16" width="0" height="26"/>
		</g>
		<g>
			<defs>
				<rect id="SVGID_33_" x="52" width="201.8" height="26"/>
			</defs>
			<clipPath id="SVGID_34_">
				<use xlink:href="#SVGID_33_"  style="overflow:visible;"/>
			</clipPath>
			<rect x="79.2" class="st17" width="0.2" height="26"/>
		</g>
		<g>
			<defs>
				<rect id="SVGID_35_" x="52" width="201.8" height="26"/>
			</defs>
			<clipPath id="SVGID_36_">
				<use xlink:href="#SVGID_35_"  style="overflow:visible;"/>
			</clipPath>
			<rect x="73.6" class="st18" width="0" height="26"/>
		</g>
		<g>
			<defs>
				<rect id="SVGID_37_" x="52" width="201.8" height="26"/>
			</defs>
			<clipPath id="SVGID_38_">
				<use xlink:href="#SVGID_37_"  style="overflow:visible;"/>
			</clipPath>
			<rect x="74.2" class="st19" width="0.2" height="26"/>
		</g>
		<g>
			<defs>
				<rect id="SVGID_39_" x="52" width="201.8" height="26"/>
			</defs>
			<clipPath id="SVGID_40_">
				<use xlink:href="#SVGID_39_"  style="overflow:visible;"/>
			</clipPath>
			<rect x="82.6" class="st20" width="0" height="26"/>
		</g>
		<g>
			<defs>
				<rect id="SVGID_41_" x="52" width="201.8" height="26"/>
			</defs>
			<clipPath id="SVGID_42_">
				<use xlink:href="#SVGID_41_"  style="overflow:visible;"/>
			</clipPath>
			<path shape-rendering="crispEdges" class="st21" d="M91,26"/>
			<path shape-rendering="crispEdges" class="st21" d="M91,0"/>
		</g>
		<g>
			<defs>
				<rect id="SVGID_43_" x="52" width="201.8" height="26"/>
			</defs>
			<clipPath id="SVGID_44_">
				<use xlink:href="#SVGID_43_"  style="overflow:visible;"/>
			</clipPath>
			<rect x="52" class="st22" width="48" height="26"/>
		</g>
		<g>
			<defs>
				<rect id="SVGID_45_" x="52" width="201.8" height="26"/>
			</defs>
			<clipPath id="SVGID_46_">
				<use xlink:href="#SVGID_45_"  style="overflow:visible;"/>
			</clipPath>
		</g>
	</g>
	<g transform="translate(221.83363342285156, 132)">
		<path shape-rendering="crispEdges" class="st0" d="M55.3,26"/>
		<g>
			<defs>
				<rect id="SVGID_47_" x="52" width="6.6" height="26"/>
			</defs>
			<clipPath id="SVGID_48_">
				<use xlink:href="#SVGID_47_"  style="overflow:visible;"/>
			</clipPath>
			<rect x="52" class="st23" width="6.6" height="26"/>
		</g>
		<g>
			<defs>
				<rect id="SVGID_49_" x="52" width="6.6" height="26"/>
			</defs>
			<clipPath id="SVGID_50_">
				<use xlink:href="#SVGID_49_"  style="overflow:visible;"/>
			</clipPath>
			<rect x="52" class="st24" width="6.6" height="26"/>
		</g>
	</g>
	<g transform="translate(238.4347381591797, 132)">
		<path shape-rendering="crispEdges" class="st0" d="M122,0"/>
		<g>
			<defs>
				<rect id="SVGID_51_" x="52" width="244.1" height="26"/>
			</defs>
			<clipPath id="SVGID_52_">
				<use xlink:href="#SVGID_51_"  style="overflow:visible;"/>
			</clipPath>
		</g>
		<g>
			<defs>
				<rect id="SVGID_53_" x="52" width="244.1" height="26"/>
			</defs>
			<clipPath id="SVGID_54_">
				<use xlink:href="#SVGID_53_"  style="overflow:visible;"/>
			</clipPath>
			<line class="st25" x1="52" y1="0" x2="280" y2="0"/>
		</g>
		<g>
			<defs>
				<rect id="SVGID_55_" x="52" width="244.1" height="26"/>
			</defs>
			<clipPath id="SVGID_56_">
				<use xlink:href="#SVGID_55_"  style="overflow:visible;"/>
			</clipPath>
			<line class="st26" x1="52" y1="26" x2="280" y2="26"/>
		</g>
		<g>
			<defs>
				<line id="SVGID_57_" x1="52" y1="26" x2="52" y2="0"/>
			</defs>
			<clipPath id="SVGID_58_">
				<use xlink:href="#SVGID_57_"  style="overflow:visible;"/>
			</clipPath>
		</g>
	</g>
	<line class="st27" x1="268.8" y1="132" x2="268.8" y2="158"/>
	<line class="st27" x1="285.4" y1="132" x2="285.4" y2="158"/>
	<g transform="translate(211.83363342285156, 132)">
		<rect x="-149.8" y="31" class="st28" width="201.8" height="3"/>
	</g>
	<g transform="translate(221.83363342285156, 132)">
		<rect x="52" y="-8" class="st28" width="6.6" height="3"/>
	</g>
	<g transform="translate(228.4347381591797, 132)">
		<rect x="45.4" y="31" class="st28" width="6.6" height="3"/>
	</g>
</g>
<g transform="translate(40,370)">
</g>
<text transform="matrix(1 0 0 1 478.3489 423)" class="st29 st30 st31">drag to resize</text>
<g transform="translate(0,259.525390625)">
	<g>
		<text transform="matrix(1 0 0 1 10 30)" class="st32 st31">BCL2 NM_000633</text>
		<g transform="translate(10,50)">
			<text transform="matrix(1 0 0 1 12.5 5)" class="st32 st31">bcl-2</text>
			<text transform="matrix(1 0 0 1 50.5078 5)" class="st30 st31">apoptosis regulator</text>
			<rect x="0" y="0.2" shape-rendering="crispEdges" class="st33" width="10" height="10"/>
		</g>
		<g transform="translate(10,75)">
			<text transform="matrix(1 0 0 1 12.5 5)" class="st32 st31">other</text>
			<text transform="matrix(1 0 0 1 52.5 5)" class="st30 st31">BH3</text>
			<rect x="0" y="0.2" shape-rendering="crispEdges" class="st34" width="10" height="10"/>
		</g>
		<g transform="translate(10,100)">
			<text transform="matrix(1 0 0 1 12.5 5)" class="st32 st31">other</text>
			<text transform="matrix(1 0 0 1 52.5 5)" class="st30 st31">BH3-homology region binding site</text>
			<rect x="0" y="0.2" shape-rendering="crispEdges" class="st35" width="10" height="10"/>
		</g>
		<g transform="translate(10,125)">
			<text transform="matrix(1 0 0 1 12.5 5)" class="st32 st31">other</text>
			<text transform="matrix(1 0 0 1 52.5 5)" class="st30 st31">BH1</text>
			<rect x="0" y="0.2" shape-rendering="crispEdges" class="st36" width="10" height="10"/>
		</g>
		<g transform="translate(10,150)">
			<text transform="matrix(1 0 0 1 12.5 5)" class="st32 st31">other</text>
			<text transform="matrix(1 0 0 1 52.5 5)" class="st30 st31">BH2</text>
			<rect x="0" y="0.2" shape-rendering="crispEdges" class="st37" width="10" height="10"/>
		</g>
	</g>
</g>
</svg>
