<?xml version="1.0" encoding="utf-8"?>
<!-- Generator: Adobe Illustrator 25.3.1, SVG Export Plug-In . SVG Version: 6.00 Build 0)  -->
<svg version="1.1" id="Layer_1" xmlns="http://www.w3.org/2000/svg" xmlns:xlink="http://www.w3.org/1999/xlink" x="0px" y="0px"
	 viewBox="0 0 1122.4 471.5" style="enable-background:new 0 0 1122.4 471.5;" xml:space="preserve">
<style type="text/css">
	.st0{fill:none;stroke:#000000;}
	.st1{clip-path:url(#SVGID_2_);fill:#FFFFFF;}
	.st2{clip-path:url(#SVGID_4_);fill:none;stroke:#000000;}
	.st3{clip-path:url(#SVGID_6_);fill:none;stroke:#000000;}
	.st4{clip-path:url(#SVGID_8_);fill:#FFFFFF;fill-opacity:0;}
	.st5{clip-path:url(#SVGID_10_);fill:#FFFFFF;}
	.st6{clip-path:url(#SVGID_12_);fill:#8DD3C7;}
	.st7{clip-path:url(#SVGID_14_);fill:#8DD3C7;}
	.st8{clip-path:url(#SVGID_16_);fill:#8DD3C7;}
	.st9{clip-path:url(#SVGID_18_);fill:#BEBADA;}
	.st10{clip-path:url(#SVGID_20_);fill:#FB8072;}
	.st11{clip-path:url(#SVGID_22_);fill:#8DD3C7;}
	.st12{clip-path:url(#SVGID_24_);fill:#80B1D3;}
	.st13{clip-path:url(#SVGID_26_);fill:#8DD3C7;}
	.st14{clip-path:url(#SVGID_28_);fill:#8DD3C7;}
	.st15{clip-path:url(#SVGID_30_);fill:#BEBADA;}
	.st16{clip-path:url(#SVGID_32_);fill:#E8E89E;}
	.st17{clip-path:url(#SVGID_34_);fill:#8DD3C7;}
	.st18{clip-path:url(#SVGID_36_);fill:#A6D854;}
	.st19{clip-path:url(#SVGID_38_);fill:#BEBADA;}
	.st20{clip-path:url(#SVGID_40_);fill:#8DD3C7;}
	.st21{clip-path:url(#SVGID_42_);fill:#BEBADA;}
	.st22{clip-path:url(#SVGID_44_);fill:#BEBADA;}
	.st23{clip-path:url(#SVGID_46_);fill:#8DD3C7;}
	.st24{clip-path:url(#SVGID_48_);fill:none;stroke:#000000;stroke-dasharray:3,2;}
	.st25{clip-path:url(#SVGID_50_);fill:none;stroke:#000000;stroke-dasharray:3,2;}
	.st26{clip-path:url(#SVGID_52_);fill:none;stroke:#000000;}
	.st27{fill:none;stroke:#000000;stroke-dasharray:3,2;}
	.st28{fill-opacity:0;}
	.st29{display:none;enable-background:new    ;}
	.st30{font-family:'ArialMT';}
	.st31{font-size:12px;}
	.st32{font-family:'Arial-BoldMT';}
	.st33{fill:#E8E89E;stroke:#AAAAAA;}
	.st34{fill:#BEBADA;stroke:#AAAAAA;}
	.st35{fill:#A6D854;stroke:#AAAAAA;}
	.st36{fill:#FB8072;stroke:#AAAAAA;}
	.st37{fill:#8DD3C7;stroke:#AAAAAA;}
	.st38{fill:#80B1D3;stroke:#AAAAAA;}
</style>
<g transform="translate(74.66463126717034,70)">
	<g transform="translate(10, 66)">
		<path shape-rendering="crispEdges" class="st0" d="M331,0"/>
		<g>
			<defs>
				<rect id="SVGID_1_" x="-24.4" width="425.4" height="26"/>
			</defs>
			<clipPath id="SVGID_2_">
				<use xlink:href="#SVGID_1_"  style="overflow:visible;"/>
			</clipPath>
			<rect x="-24.4" class="st1" width="565.4" height="26"/>
		</g>
		<g>
			<defs>
				<rect id="SVGID_3_" x="-24.4" width="425.4" height="26"/>
			</defs>
			<clipPath id="SVGID_4_">
				<use xlink:href="#SVGID_3_"  style="overflow:visible;"/>
			</clipPath>
			<line class="st2" x1="-24.4" y1="0" x2="541" y2="0"/>
		</g>
		<g>
			<defs>
				<rect id="SVGID_5_" x="-24.4" width="425.4" height="26"/>
			</defs>
			<clipPath id="SVGID_6_">
				<use xlink:href="#SVGID_5_"  style="overflow:visible;"/>
			</clipPath>
			<line class="st3" x1="-24.4" y1="26" x2="541" y2="26"/>
		</g>
		<g>
			<defs>
				<rect id="SVGID_7_" x="-24.4" width="425.4" height="26"/>
			</defs>
			<clipPath id="SVGID_8_">
				<use xlink:href="#SVGID_7_"  style="overflow:visible;"/>
			</clipPath>
			<rect x="-24.4" class="st4" width="565.4" height="26"/>
		</g>
	</g>
	<g transform="translate(150.3296661376953, 66)">
		<path shape-rendering="crispEdges" class="st0" d="M465.8,26"/>
		<g>
			<defs>
				<rect id="SVGID_9_" x="270.7" width="390.3" height="26"/>
			</defs>
			<clipPath id="SVGID_10_">
				<use xlink:href="#SVGID_9_"  style="overflow:visible;"/>
			</clipPath>
			<rect x="261" class="st5" width="400" height="26"/>
		</g>
		<g>
			<defs>
				<rect id="SVGID_11_" x="270.7" width="390.3" height="26"/>
			</defs>
			<clipPath id="SVGID_12_">
				<use xlink:href="#SVGID_11_"  style="overflow:visible;"/>
			</clipPath>
			<rect x="625.8" class="st6" width="0" height="26"/>
		</g>
		<g>
			<defs>
				<rect id="SVGID_13_" x="270.7" width="390.3" height="26"/>
			</defs>
			<clipPath id="SVGID_14_">
				<use xlink:href="#SVGID_13_"  style="overflow:visible;"/>
			</clipPath>
			<rect x="602.1" class="st7" width="0.9" height="26"/>
		</g>
		<g>
			<defs>
				<rect id="SVGID_15_" x="270.7" width="390.3" height="26"/>
			</defs>
			<clipPath id="SVGID_16_">
				<use xlink:href="#SVGID_15_"  style="overflow:visible;"/>
			</clipPath>
			<rect x="633.7" class="st8" width="0.9" height="26"/>
		</g>
		<g>
			<defs>
				<rect id="SVGID_17_" x="270.7" width="390.3" height="26"/>
			</defs>
			<clipPath id="SVGID_18_">
				<use xlink:href="#SVGID_17_"  style="overflow:visible;"/>
			</clipPath>
			<rect x="616.2" class="st9" width="0" height="26"/>
		</g>
		<g>
			<defs>
				<rect id="SVGID_19_" x="270.7" width="390.3" height="26"/>
			</defs>
			<clipPath id="SVGID_20_">
				<use xlink:href="#SVGID_19_"  style="overflow:visible;"/>
			</clipPath>
			<rect x="593.3" class="st10" width="0" height="26"/>
		</g>
		<g>
			<defs>
				<rect id="SVGID_21_" x="270.7" width="390.3" height="26"/>
			</defs>
			<clipPath id="SVGID_22_">
				<use xlink:href="#SVGID_21_"  style="overflow:visible;"/>
			</clipPath>
			<rect x="632" class="st11" width="0" height="26"/>
		</g>
		<g>
			<defs>
				<rect id="SVGID_23_" x="270.7" width="390.3" height="26"/>
			</defs>
			<clipPath id="SVGID_24_">
				<use xlink:href="#SVGID_23_"  style="overflow:visible;"/>
			</clipPath>
			<rect x="632.9" class="st12" width="26.4" height="26"/>
		</g>
		<g>
			<defs>
				<rect id="SVGID_25_" x="270.7" width="390.3" height="26"/>
			</defs>
			<clipPath id="SVGID_26_">
				<use xlink:href="#SVGID_25_"  style="overflow:visible;"/>
			</clipPath>
			<rect x="619.7" class="st13" width="0" height="26"/>
		</g>
		<g>
			<defs>
				<rect id="SVGID_27_" x="270.7" width="390.3" height="26"/>
			</defs>
			<clipPath id="SVGID_28_">
				<use xlink:href="#SVGID_27_"  style="overflow:visible;"/>
			</clipPath>
			<rect x="622.3" class="st14" width="0" height="26"/>
		</g>
		<g>
			<defs>
				<rect id="SVGID_29_" x="270.7" width="390.3" height="26"/>
			</defs>
			<clipPath id="SVGID_30_">
				<use xlink:href="#SVGID_29_"  style="overflow:visible;"/>
			</clipPath>
			<rect x="595.9" class="st15" width="0" height="26"/>
		</g>
		<g>
			<defs>
				<rect id="SVGID_31_" x="270.7" width="390.3" height="26"/>
			</defs>
			<clipPath id="SVGID_32_">
				<use xlink:href="#SVGID_31_"  style="overflow:visible;"/>
			</clipPath>
			<rect x="279.5" class="st16" width="298" height="26"/>
		</g>
		<g>
			<defs>
				<rect id="SVGID_33_" x="270.7" width="390.3" height="26"/>
			</defs>
			<clipPath id="SVGID_34_">
				<use xlink:href="#SVGID_33_"  style="overflow:visible;"/>
			</clipPath>
			<rect x="598.6" class="st17" width="0.9" height="26"/>
		</g>
		<g>
			<defs>
				<rect id="SVGID_35_" x="270.7" width="390.3" height="26"/>
			</defs>
			<clipPath id="SVGID_36_">
				<use xlink:href="#SVGID_35_"  style="overflow:visible;"/>
			</clipPath>
			<rect x="586.3" class="st18" width="49.2" height="26"/>
		</g>
		<g>
			<defs>
				<rect id="SVGID_37_" x="270.7" width="390.3" height="26"/>
			</defs>
			<clipPath id="SVGID_38_">
				<use xlink:href="#SVGID_37_"  style="overflow:visible;"/>
			</clipPath>
			<rect x="586.3" class="st19" width="0.9" height="26"/>
		</g>
		<g>
			<defs>
				<rect id="SVGID_39_" x="270.7" width="390.3" height="26"/>
			</defs>
			<clipPath id="SVGID_40_">
				<use xlink:href="#SVGID_39_"  style="overflow:visible;"/>
			</clipPath>
			<rect x="627.6" class="st20" width="0.9" height="26"/>
		</g>
		<g>
			<defs>
				<rect id="SVGID_41_" x="270.7" width="390.3" height="26"/>
			</defs>
			<clipPath id="SVGID_42_">
				<use xlink:href="#SVGID_41_"  style="overflow:visible;"/>
			</clipPath>
			<rect x="618.8" class="st21" width="0" height="26"/>
		</g>
		<g>
			<defs>
				<rect id="SVGID_43_" x="270.7" width="390.3" height="26"/>
			</defs>
			<clipPath id="SVGID_44_">
				<use xlink:href="#SVGID_43_"  style="overflow:visible;"/>
			</clipPath>
			<rect x="592.4" class="st22" width="1.8" height="26"/>
		</g>
		<g>
			<defs>
				<rect id="SVGID_45_" x="270.7" width="390.3" height="26"/>
			</defs>
			<clipPath id="SVGID_46_">
				<use xlink:href="#SVGID_45_"  style="overflow:visible;"/>
			</clipPath>
			<rect x="604.7" class="st23" width="0.9" height="26"/>
		</g>
		<g>
			<defs>
				<rect id="SVGID_47_" x="270.7" width="390.3" height="26"/>
			</defs>
			<clipPath id="SVGID_48_">
				<use xlink:href="#SVGID_47_"  style="overflow:visible;"/>
			</clipPath>
			<line shape-rendering="crispEdges" class="st24" x1="269.8" y1="0" x2="269.8" y2="26"/>
		</g>
		<g>
			<defs>
				<rect id="SVGID_49_" x="270.7" width="390.3" height="26"/>
			</defs>
			<clipPath id="SVGID_50_">
				<use xlink:href="#SVGID_49_"  style="overflow:visible;"/>
			</clipPath>
			<path shape-rendering="crispEdges" class="st25" d="M496,26"/>
			<path shape-rendering="crispEdges" class="st25" d="M496,0"/>
		</g>
		<g>
			<defs>
				<rect id="SVGID_51_" x="270.7" width="390.3" height="26"/>
			</defs>
			<clipPath id="SVGID_52_">
				<use xlink:href="#SVGID_51_"  style="overflow:visible;"/>
			</clipPath>
			<rect x="261" class="st26" width="400" height="26"/>
		</g>
		<g>
			<defs>
				<rect id="SVGID_53_" x="270.7" width="390.3" height="26"/>
			</defs>
			<clipPath id="SVGID_54_">
				<use xlink:href="#SVGID_53_"  style="overflow:visible;"/>
			</clipPath>
		</g>
	</g>
	<line class="st27" x1="416" y1="66" x2="416" y2="92"/>
	<g transform="translate(150, 66)">
		<rect x="-164.4" y="31" class="st28" width="425.4" height="3"/>
	</g>
	<g transform="translate(160, 66)">
		<rect x="261" y="-8" class="st28" width="390.3" height="3"/>
	</g>
</g>
<g transform="translate(74.66463126717034,238)">
</g>
<text transform="matrix(1 0 0 1 572.2912 291)" class="st29 st30 st31">drag to resize</text>
<g transform="translate(0,193.525390625)">
	<g>
		<text transform="matrix(1 0 0 1 10 30)" class="st32 st31">MYC NM_002467</text>
		<g transform="translate(10,50)">
			<text transform="matrix(1 0 0 1 12.5 5)" class="st32 st31">Myc_N</text>
			<text transform="matrix(1 0 0 1 61.1875 5)" class="st30 st31">Myc amino-terminal region</text>
			<rect y="0.2" shape-rendering="crispEdges" class="st33" width="10" height="10"/>
		</g>
		<g transform="translate(10,75)">
			<text transform="matrix(1 0 0 1 12.5 5)" class="st32 st31">DNA binding</text>
			<text transform="matrix(1 0 0 1 94.7109 5)" class="st30 st31">DNA binding region [nucleotide binding]</text>
			<rect y="0.2" shape-rendering="crispEdges" class="st34" width="10" height="10"/>
		</g>
		<g transform="translate(10,100)">
			<text transform="matrix(1 0 0 1 12.5 5)" class="st32 st31">HLH</text>
			<text transform="matrix(1 0 0 1 47.1641 5)" class="st30 st31">Helix-loop-helix domain, found in specific DNA- binding proteins that act as ...</text>
			<rect y="0.2" shape-rendering="crispEdges" class="st35" width="10" height="10"/>
		</g>
		<g transform="translate(10,125)">
			<text transform="matrix(1 0 0 1 12.5 5)" class="st32 st31">other</text>
			<text transform="matrix(1 0 0 1 52.5 5)" class="st30 st31">E-box/N-box specificity site</text>
			<rect y="0.2" shape-rendering="crispEdges" class="st36" width="10" height="10"/>
		</g>
		<g transform="translate(10,150)">
			<text transform="matrix(1 0 0 1 12.5 5)" class="st32 st31">other</text>
			<text transform="matrix(1 0 0 1 52.5 5)" class="st30 st31">dimerization interface [polypeptide binding]</text>
			<rect y="0.2" shape-rendering="crispEdges" class="st37" width="10" height="10"/>
		</g>
		<g transform="translate(10,175)">
			<text transform="matrix(1 0 0 1 12.5 5)" class="st32 st31">Myc-LZ</text>
			<text transform="matrix(1 0 0 1 64.5 5)" class="st30 st31">Myc leucine zipper domain</text>
			<rect y="0.2" shape-rendering="crispEdges" class="st38" width="10" height="10"/>
		</g>
	</g>
</g>
</svg>
