<svg xmlns="http://www.w3.org/2000/svg" width="1031.6264467592591" height="471.525390625"><g transform="translate(40,70)"><g transform="translate(10, 66)"><line y1="-3" stroke="black" stroke-opacity="1" shape-rendering="crispEdges" y2="0" x1="70" x2="70"/><rect fill="white" clip-path="url(#75869)" width="280" height="26"/><line clip-path="url(#75869)" stroke="black" x2="280"/><line clip-path="url(#75869)" stroke="black" x2="280" y1="26" y2="26"/><text font-family="Arial" fill="black" font-size="15" dominant-baseline="auto" x="70" y="-6" text-anchor="middle">IGH</text><text fill="#858585" fill-opacity="1" font-size="13" font-family="Arial" text-anchor="middle" dominant-baseline="auto" y="-24" x="70">ends at 105591340 bp</text><defs><clipPath id="75869"><rect x="0" y="0" height="26" width="140"/></clipPath></defs><rect clip-path="url(#75869)" fill="white" fill-opacity="0" width="280" height="26"/></g><g transform="translate(94.25926208496094, 66)"><line y1="26" stroke="black" stroke-opacity="1" shape-rendering="crispEdges" y2="29" x1="232.87037037037038" x2="232.87037037037038"/><line clip-path="url(#21717)" stroke="#858585" x1="0" x2="84.02777777777779" y1="13" y2="13" stroke-width="13.5"/><rect clip-path="url(#21717)" fill="white" x="84.02777777777779" width="315.97222222222223" height="26"/><rect clip-path="url(#21717)" fill="#8dd3c7" x="372.22222222222223" width="0" height="26"/><rect clip-path="url(#21717)" fill="#8dd3c7" x="353.47222222222223" width="0.6944444444444002" height="26"/><rect clip-path="url(#21717)" fill="#8dd3c7" x="378.47222222222223" width="0.6944444444444002" height="26"/><rect clip-path="url(#21717)" fill="#bebada" x="364.58333333333337" width="0" height="26"/><rect clip-path="url(#21717)" fill="#fb8072" x="346.52777777777777" width="0" height="26"/><rect clip-path="url(#21717)" fill="#8dd3c7" x="377.08333333333337" width="0" height="26"/><rect clip-path="url(#21717)" fill="#80b1d3" x="377.77777777777777" width="20.83333333333337" height="26"/><rect clip-path="url(#21717)" fill="#8dd3c7" x="367.36111111111114" width="0" height="26"/><rect clip-path="url(#21717)" fill="#8dd3c7" x="369.44444444444446" width="0" height="26"/><rect clip-path="url(#21717)" fill="#bebada" x="348.61111111111114" width="0" height="26"/><rect clip-path="url(#21717)" fill="#E8E89E" x="98.61111111111111" width="235.41666666666666" height="26"/><rect clip-path="url(#21717)" fill="#8dd3c7" x="350.69444444444446" width="0.6944444444445139" height="26"/><rect clip-path="url(#21717)" fill="#a6d854" x="340.97222222222223" width="38.888888888888914" height="26"/><rect clip-path="url(#21717)" fill="#bebada" x="340.97222222222223" width="0.6944444444444002" height="26"/><rect clip-path="url(#21717)" fill="#8dd3c7" x="373.61111111111114" width="0.6944444444444002" height="26"/><rect clip-path="url(#21717)" fill="#bebada" x="366.66666666666663" width="0" height="26"/><rect clip-path="url(#21717)" fill="#bebada" x="345.83333333333337" width="1.3888888888889142" height="26"/><rect clip-path="url(#21717)" fill="#8dd3c7" x="355.55555555555554" width="0.6944444444444571" height="26"/><line clip-path="url(#21717)" stroke="black" stroke-dasharray="3,2" shape-rendering="crispEdges" y1="0" y2="26" x1="90.97222222222221" x2="90.97222222222221"/><line clip-path="url(#21717)" stroke="black" stroke-dasharray="3,2" shape-rendering="crispEdges" y1="0" y2="26" x1="269.6759259259259" x2="269.6759259259259"/><rect clip-path="url(#21717)" stroke-dasharray="none" fill="none" stroke="black" x="84.02777777777779" width="315.97222222222223" height="26"/><text font-family="Arial" fill="black" font-size="15" dominant-baseline="hanging" x="232.87037037037038" y="32" text-anchor="middle">MYC</text><text fill="#858585" fill-opacity="1" font-size="13" font-family="Arial" text-anchor="middle" dominant-baseline="hanging" y="50" x="232.87037037037038">starts at 284 bp in 5' UTR</text><defs><clipPath id="21717"><rect x="65.74074074074075" y="0" height="26" width="334.25925925925924"/></clipPath></defs><rect clip-path="url(#21717)" fill="white" fill-opacity="0" width="400" height="26"/></g><line stroke="black" stroke-dasharray="3,2" x1="155" y1="66" x2="155" y2="92"/><g transform="translate(150, 66)"><text font-family="Arial" font-size="13" fill="black" text-anchor="start" y="39" dominant-baseline="hanging" fill-opacity="0">chr14:105591340</text><rect height="3" fill="black" x="-140" width="140" y="31" fill-opacity="0"/></g><g transform="translate(160, 66)"><text font-family="Arial" font-size="13" fill="black" text-anchor="end" y="-13" dominant-baseline="auto" fill-opacity="0">5' UTR, exon 1</text><rect height="3" fill="black" x="0" width="334.25925925925924" y="-8" fill-opacity="0"/></g></g><g transform="translate(40,238)"/><text class="sja_svgtext" fill="black" font-size="12" text-anchor="end" x="554.2592592592592" y="291" style="display: none;">drag to resize</text><g transform="translate(0,193.525390625)" style="font-family: Arial;"><g><text transform="translate(10,30)" text-anchor="start" font-weight="700" font-size="12" dominant-baseline="central">MYC NM_002467</text><g transform="translate(10,50)"><text transform="translate(12.5,5)" font-size="12" dominant-baseline="central"><tspan dominant-baseline="central" font-weight="700" x="0">Myc_N</tspan><tspan dominant-baseline="central" x="48.6875">Myc amino-terminal region</tspan></text><rect height="10" width="10" y="0.2373046875" fill="#E8E89E" stroke="#aaa" shape-rendering="crispEdges"/></g><g transform="translate(10,75)"><text transform="translate(12.5,5)" font-size="12" dominant-baseline="central"><tspan dominant-baseline="central" font-weight="700" x="0">DNA binding</tspan><tspan dominant-baseline="central" x="82.2109375">DNA binding region [nucleotide binding]</tspan></text><rect height="10" width="10" y="0.2373046875" fill="#bebada" stroke="#aaa" shape-rendering="crispEdges"/></g><g transform="translate(10,100)"><text transform="translate(12.5,5)" font-size="12" dominant-baseline="central"><tspan dominant-baseline="central" font-weight="700" x="0">HLH</tspan><tspan dominant-baseline="central" x="34.6640625">Helix-loop-helix domain, found in specific DNA- binding proteins that act as ...</tspan></text><rect height="10" width="10" y="0.2373046875" fill="#a6d854" stroke="#aaa" shape-rendering="crispEdges"/></g><g transform="translate(10,125)"><text transform="translate(12.5,5)" font-size="12" dominant-baseline="central"><tspan dominant-baseline="central" font-weight="700" x="0">other</tspan><tspan dominant-baseline="central" x="40">E-box/N-box specificity site</tspan></text><rect height="10" width="10" y="0.2373046875" fill="#fb8072" stroke="#aaa" shape-rendering="crispEdges"/></g><g transform="translate(10,150)"><text transform="translate(12.5,5)" font-size="12" dominant-baseline="central"><tspan dominant-baseline="central" font-weight="700" x="0">other</tspan><tspan dominant-baseline="central" x="40">dimerization interface [polypeptide binding]</tspan></text><rect height="10" width="10" y="0.2373046875" fill="#8dd3c7" stroke="#aaa" shape-rendering="crispEdges"/></g><g transform="translate(10,175)"><text transform="translate(12.5,5)" font-size="12" dominant-baseline="central"><tspan dominant-baseline="central" font-weight="700" x="0">Myc-LZ</tspan><tspan dominant-baseline="central" x="52">Myc leucine zipper domain</tspan></text><rect height="10" width="10" y="0.2373046875" fill="#80b1d3" stroke="#aaa" shape-rendering="crispEdges"/></g></g></g></svg>