<?xml version="1.0" encoding="utf-8"?>
<!-- Generator: Adobe Illustrator 25.3.1, SVG Export Plug-In . SVG Version: 6.00 Build 0)  -->
<svg version="1.1" id="Layer_1" xmlns="http://www.w3.org/2000/svg" xmlns:xlink="http://www.w3.org/1999/xlink" x="0px" y="0px"
	 viewBox="0 0 972 471.5" style="enable-background:new 0 0 972 471.5;" xml:space="preserve">
<style type="text/css">
	.st0{fill:none;stroke:#000000;stroke-opacity:0;}
	.st1{clip-path:url(#SVGID_2_);fill:#FFFFFF;}
	.st2{clip-path:url(#SVGID_4_);fill:none;stroke:#000000;}
	.st3{clip-path:url(#SVGID_6_);fill:none;stroke:#000000;}
	.st4{font-family:'ArialMT';}
	.st5{font-size:15px;}
	.st6{enable-background:new    ;}
	.st7{fill:#858585;}
	.st8{font-size:13px;}
	.st9{font-family:'KozGoPr6N-Regular-83pv-RKSJ-H';}
	.st10{clip-path:url(#SVGID_8_);fill:#FFFFFF;fill-opacity:0;}
	.st11{clip-path:url(#SVGID_10_);fill:#FFFFFF;}
	.st12{clip-path:url(#SVGID_12_);fill:#8DD3C7;}
	.st13{clip-path:url(#SVGID_14_);fill:#8DD3C7;}
	.st14{clip-path:url(#SVGID_16_);fill:#8DD3C7;}
	.st15{clip-path:url(#SVGID_18_);fill:#BEBADA;}
	.st16{clip-path:url(#SVGID_20_);fill:#FB8072;}
	.st17{clip-path:url(#SVGID_22_);fill:#8DD3C7;}
	.st18{clip-path:url(#SVGID_24_);fill:#80B1D3;}
	.st19{clip-path:url(#SVGID_26_);fill:#8DD3C7;}
	.st20{clip-path:url(#SVGID_28_);fill:#8DD3C7;}
	.st21{clip-path:url(#SVGID_30_);fill:#BEBADA;}
	.st22{clip-path:url(#SVGID_32_);fill:#E8E89E;}
	.st23{clip-path:url(#SVGID_34_);fill:#8DD3C7;}
	.st24{clip-path:url(#SVGID_36_);fill:#A6D854;}
	.st25{clip-path:url(#SVGID_38_);fill:#BEBADA;}
	.st26{clip-path:url(#SVGID_40_);fill:#8DD3C7;}
	.st27{clip-path:url(#SVGID_42_);fill:#BEBADA;}
	.st28{clip-path:url(#SVGID_44_);fill:#BEBADA;}
	.st29{clip-path:url(#SVGID_46_);fill:#8DD3C7;}
	.st30{clip-path:url(#SVGID_48_);fill:none;stroke:#000000;stroke-dasharray:3,2;}
	.st31{clip-path:url(#SVGID_50_);fill:none;stroke:#000000;stroke-dasharray:3,2;}
	.st32{clip-path:url(#SVGID_52_);fill:none;stroke:#000000;}
	.st33{clip-path:url(#SVGID_54_);fill:#FFFFFF;fill-opacity:0;}
	.st34{fill:none;stroke:#000000;stroke-dasharray:3,2;}
	.st35{display:none;enable-background:new    ;}
	.st36{font-size:12px;}
	.st37{font-family:'Arial-BoldMT';}
	.st38{fill:#E8E89E;stroke:#AAAAAA;}
	.st39{fill:#BEBADA;stroke:#AAAAAA;}
	.st40{fill:#A6D854;stroke:#AAAAAA;}
	.st41{fill:#FB8072;stroke:#AAAAAA;}
	.st42{fill:#8DD3C7;stroke:#AAAAAA;}
	.st43{fill:#80B1D3;stroke:#AAAAAA;}
</style>
<g transform="translate(74.66463126717034,70)">
	<g transform="translate(0,0)">
		<line shape-rendering="crispEdges" class="st0" x1="70" y1="-3" x2="70" y2="0"/>
		<g>
			<defs>
				<rect id="SVGID_1_" x="0" width="311.7" height="26"/>
			</defs>
			<clipPath id="SVGID_2_">
				<use xlink:href="#SVGID_1_"  style="overflow:visible;"/>
			</clipPath>
			<rect x="0" class="st1" width="280" height="26"/>
		</g>
		<g>
			<defs>
				<rect id="SVGID_3_" x="0" width="311.7" height="26"/>
			</defs>
			<clipPath id="SVGID_4_">
				<use xlink:href="#SVGID_3_"  style="overflow:visible;"/>
			</clipPath>
			<line class="st2" x1="0" y1="0" x2="280" y2="0"/>
		</g>
		<g>
			<defs>
				<rect id="SVGID_5_" x="0" width="311.7" height="26"/>
			</defs>
			<clipPath id="SVGID_6_">
				<use xlink:href="#SVGID_5_"  style="overflow:visible;"/>
			</clipPath>
			<line class="st3" x1="0" y1="26" x2="280" y2="26"/>
		</g>
		<text transform="matrix(1 0 0 1 -33.7705 18.4785)" class="st4 st5">IGH</text>
		<g class="st6">
			<text transform="matrix(1 0 0 1 -2.062891e-04 -5.2041)"><tspan x="0" y="0" class="st7 st4 st8">ends at chr14</tspan><tspan x="78.8" y="0" class="st7 st9 st8">：</tspan><tspan x="91.8" y="0" class="st7 st4 st8">05603386</tspan></text>
		</g>
		<g>
			<defs>
				<rect id="SVGID_7_" x="0" width="311.7" height="26"/>
			</defs>
			<clipPath id="SVGID_8_">
				<use xlink:href="#SVGID_7_"  style="overflow:visible;"/>
			</clipPath>
			<rect x="0" class="st10" width="280" height="26"/>
		</g>
	</g>
	<g transform="translate(0,106)">
		<line shape-rendering="crispEdges" class="st0" x1="204.8" y1="26" x2="204.8" y2="29"/>
		<g>
			<defs>
				<rect id="SVGID_9_" x="0" width="438.3" height="26"/>
			</defs>
			<clipPath id="SVGID_10_">
				<use xlink:href="#SVGID_9_"  style="overflow:visible;"/>
			</clipPath>
			<rect x="0" class="st11" width="400" height="26"/>
		</g>
		<g>
			<defs>
				<rect id="SVGID_11_" x="0" width="438.3" height="26"/>
			</defs>
			<clipPath id="SVGID_12_">
				<use xlink:href="#SVGID_11_"  style="overflow:visible;"/>
			</clipPath>
			<rect x="364.8" class="st12" width="0" height="26"/>
		</g>
		<g>
			<defs>
				<rect id="SVGID_13_" x="0" width="438.3" height="26"/>
			</defs>
			<clipPath id="SVGID_14_">
				<use xlink:href="#SVGID_13_"  style="overflow:visible;"/>
			</clipPath>
			<rect x="341.1" class="st13" width="0.9" height="26"/>
		</g>
		<g>
			<defs>
				<rect id="SVGID_15_" x="0" width="438.3" height="26"/>
			</defs>
			<clipPath id="SVGID_16_">
				<use xlink:href="#SVGID_15_"  style="overflow:visible;"/>
			</clipPath>
			<rect x="372.7" class="st14" width="0.9" height="26"/>
		</g>
		<g>
			<defs>
				<rect id="SVGID_17_" x="0" width="438.3" height="26"/>
			</defs>
			<clipPath id="SVGID_18_">
				<use xlink:href="#SVGID_17_"  style="overflow:visible;"/>
			</clipPath>
			<rect x="355.2" class="st15" width="0" height="26"/>
		</g>
		<g>
			<defs>
				<rect id="SVGID_19_" x="0" width="438.3" height="26"/>
			</defs>
			<clipPath id="SVGID_20_">
				<use xlink:href="#SVGID_19_"  style="overflow:visible;"/>
			</clipPath>
			<rect x="332.3" class="st16" width="0" height="26"/>
		</g>
		<g>
			<defs>
				<rect id="SVGID_21_" x="0" width="438.3" height="26"/>
			</defs>
			<clipPath id="SVGID_22_">
				<use xlink:href="#SVGID_21_"  style="overflow:visible;"/>
			</clipPath>
			<rect x="371" class="st17" width="0" height="26"/>
		</g>
		<g>
			<defs>
				<rect id="SVGID_23_" x="0" width="438.3" height="26"/>
			</defs>
			<clipPath id="SVGID_24_">
				<use xlink:href="#SVGID_23_"  style="overflow:visible;"/>
			</clipPath>
			<rect x="371.9" class="st18" width="26.4" height="26"/>
		</g>
		<g>
			<defs>
				<rect id="SVGID_25_" x="0" width="438.3" height="26"/>
			</defs>
			<clipPath id="SVGID_26_">
				<use xlink:href="#SVGID_25_"  style="overflow:visible;"/>
			</clipPath>
			<rect x="358.7" class="st19" width="0" height="26"/>
		</g>
		<g>
			<defs>
				<rect id="SVGID_27_" x="0" width="438.3" height="26"/>
			</defs>
			<clipPath id="SVGID_28_">
				<use xlink:href="#SVGID_27_"  style="overflow:visible;"/>
			</clipPath>
			<rect x="361.3" class="st20" width="0" height="26"/>
		</g>
		<g>
			<defs>
				<rect id="SVGID_29_" x="0" width="438.3" height="26"/>
			</defs>
			<clipPath id="SVGID_30_">
				<use xlink:href="#SVGID_29_"  style="overflow:visible;"/>
			</clipPath>
			<rect x="334.9" class="st21" width="0" height="26"/>
		</g>
		<g>
			<defs>
				<rect id="SVGID_31_" x="0" width="438.3" height="26"/>
			</defs>
			<clipPath id="SVGID_32_">
				<use xlink:href="#SVGID_31_"  style="overflow:visible;"/>
			</clipPath>
			<rect x="18.5" class="st22" width="298" height="26"/>
		</g>
		<g>
			<defs>
				<rect id="SVGID_33_" x="0" width="438.3" height="26"/>
			</defs>
			<clipPath id="SVGID_34_">
				<use xlink:href="#SVGID_33_"  style="overflow:visible;"/>
			</clipPath>
			<rect x="337.6" class="st23" width="0.9" height="26"/>
		</g>
		<g>
			<defs>
				<rect id="SVGID_35_" x="0" width="438.3" height="26"/>
			</defs>
			<clipPath id="SVGID_36_">
				<use xlink:href="#SVGID_35_"  style="overflow:visible;"/>
			</clipPath>
			<rect x="325.3" class="st24" width="49.2" height="26"/>
		</g>
		<g>
			<defs>
				<rect id="SVGID_37_" x="0" width="438.3" height="26"/>
			</defs>
			<clipPath id="SVGID_38_">
				<use xlink:href="#SVGID_37_"  style="overflow:visible;"/>
			</clipPath>
			<rect x="325.3" class="st25" width="0.9" height="26"/>
		</g>
		<g>
			<defs>
				<rect id="SVGID_39_" x="0" width="438.3" height="26"/>
			</defs>
			<clipPath id="SVGID_40_">
				<use xlink:href="#SVGID_39_"  style="overflow:visible;"/>
			</clipPath>
			<rect x="366.6" class="st26" width="0.9" height="26"/>
		</g>
		<g>
			<defs>
				<rect id="SVGID_41_" x="0" width="438.3" height="26"/>
			</defs>
			<clipPath id="SVGID_42_">
				<use xlink:href="#SVGID_41_"  style="overflow:visible;"/>
			</clipPath>
			<rect x="357.8" class="st27" width="0" height="26"/>
		</g>
		<g>
			<defs>
				<rect id="SVGID_43_" x="0" width="438.3" height="26"/>
			</defs>
			<clipPath id="SVGID_44_">
				<use xlink:href="#SVGID_43_"  style="overflow:visible;"/>
			</clipPath>
			<rect x="331.4" class="st28" width="1.8" height="26"/>
		</g>
		<g>
			<defs>
				<rect id="SVGID_45_" x="0" width="438.3" height="26"/>
			</defs>
			<clipPath id="SVGID_46_">
				<use xlink:href="#SVGID_45_"  style="overflow:visible;"/>
			</clipPath>
			<rect x="343.7" class="st29" width="0.9" height="26"/>
		</g>
		<g>
			<defs>
				<rect id="SVGID_47_" x="0" width="438.3" height="26"/>
			</defs>
			<clipPath id="SVGID_48_">
				<use xlink:href="#SVGID_47_"  style="overflow:visible;"/>
			</clipPath>
			<line shape-rendering="crispEdges" class="st30" x1="8.8" y1="0" x2="8.8" y2="26"/>
		</g>
		<g>
			<defs>
				<rect id="SVGID_49_" x="0" width="438.3" height="26"/>
			</defs>
			<clipPath id="SVGID_50_">
				<use xlink:href="#SVGID_49_"  style="overflow:visible;"/>
			</clipPath>
			<line shape-rendering="crispEdges" class="st31" x1="235" y1="0" x2="235" y2="26"/>
		</g>
		<g>
			<defs>
				<rect id="SVGID_51_" x="0" width="438.3" height="26"/>
			</defs>
			<clipPath id="SVGID_52_">
				<use xlink:href="#SVGID_51_"  style="overflow:visible;"/>
			</clipPath>
			<rect x="0" class="st32" width="400" height="26"/>
		</g>
		<text transform="matrix(1 0 0 1 407.1704 17.5488)" class="st4 st5">MYC</text>
		<g class="st6">
			<text transform="matrix(1 0 0 1 9.6703 41.9998)" class="st7 st4 st8">starts at 11 AA</text>
		</g>
		<g>
			<defs>
				<rect id="SVGID_53_" x="0" width="438.3" height="26"/>
			</defs>
			<clipPath id="SVGID_54_">
				<use xlink:href="#SVGID_53_"  style="overflow:visible;"/>
			</clipPath>
			<rect x="0" class="st33" width="400" height="26"/>
		</g>
	</g>
	<line class="st34" x1="140" y1="34" x2="9.7" y2="98"/>
	<g transform="translate(140,0)">
		<rect x="-140" y="31" width="140" height="3"/>
	</g>
	<g transform="translate(9.670329670329672,106)">
		<rect x="0" y="-8" width="390.3" height="3"/>
	</g>
</g>
<g transform="translate(74.66463126717034,238)">
</g>
<text transform="matrix(1 0 0 1 421.9615 291)" class="st35 st4 st36">drag to resize</text>
<g transform="translate(0,259.525390625)">
	<g>
		<text transform="matrix(1 0 0 1 10 30)" class="st37 st36">MYC NM_002467</text>
		<g transform="translate(10,50)">
			<text transform="matrix(1 0 0 1 14.5 10)" class="st37 st36">Myc_N</text>
			<text transform="matrix(1 0 0 1 63.1875 10)" class="st4 st36">Myc amino-terminal region</text>
			<rect y="0.2" shape-rendering="crispEdges" class="st38" width="10" height="10"/>
		</g>
		<g transform="translate(10,75)">
			<text transform="matrix(1 0 0 1 14.5 10)" class="st37 st36">DNA binding</text>
			<text transform="matrix(1 0 0 1 96.7109 10)" class="st4 st36">DNA binding region [nucleotide binding]</text>
			<rect y="0.2" shape-rendering="crispEdges" class="st39" width="10" height="10"/>
		</g>
		<g transform="translate(10,100)">
			<text transform="matrix(1 0 0 1 14.5 10)" class="st37 st36">HLH</text>
			<text transform="matrix(1 0 0 1 49.1641 10)" class="st4 st36">Helix-loop-helix domain, found in specific DNA- binding proteins that act as ...</text>
			<rect y="0.2" shape-rendering="crispEdges" class="st40" width="10" height="10"/>
		</g>
		<g transform="translate(10,125)">
			<text transform="matrix(1 0 0 1 14.5 10)" class="st37 st36">other</text>
			<text transform="matrix(1 0 0 1 54.5 10)" class="st4 st36">E-box/N-box specificity site</text>
			<rect y="0.2" shape-rendering="crispEdges" class="st41" width="10" height="10"/>
		</g>
		<g transform="translate(10,150)">
			<text transform="matrix(1 0 0 1 14.5 10)" class="st37 st36">other</text>
			<text transform="matrix(1 0 0 1 54.5 10)" class="st4 st36">dimerization interface [polypeptide binding]</text>
			<rect y="0.2" shape-rendering="crispEdges" class="st42" width="10" height="10"/>
		</g>
		<g transform="translate(10,175)">
			<text transform="matrix(1 0 0 1 14.5 10)" class="st37 st36">Myc-LZ</text>
			<text transform="matrix(1 0 0 1 66.5 10)" class="st4 st36">Myc leucine zipper domain</text>
			<rect y="0.2" shape-rendering="crispEdges" class="st43" width="10" height="10"/>
		</g>
	</g>
</g>
</svg>
