<?xml version="1.0" encoding="utf-8"?>
<!-- Generator: Adobe Illustrator 25.3.1, SVG Export Plug-In . SVG Version: 6.00 Build 0)  -->
<svg version="1.1" id="Layer_1" xmlns="http://www.w3.org/2000/svg" xmlns:xlink="http://www.w3.org/1999/xlink" x="0px" y="0px"
	 viewBox="0 0 1122.4 471.5" style="enable-background:new 0 0 1122.4 471.5;" xml:space="preserve">
<style type="text/css">
	.st0{fill:none;stroke:#000000;}
	.st1{clip-path:url(#SVGID_2_);fill:#FFFFFF;}
	.st2{clip-path:url(#SVGID_4_);fill:none;stroke:#000000;}
	.st3{clip-path:url(#SVGID_6_);fill:none;stroke:#000000;}
	.st4{fill:#858585;}
	.st5{font-family:'ArialMT';}
	.st6{font-size:13px;}
	.st7{clip-path:url(#SVGID_8_);fill:#FFFFFF;fill-opacity:0;}
	.st8{clip-path:url(#SVGID_10_);fill:#FFFFFF;}
	.st9{clip-path:url(#SVGID_12_);fill:#8DD3C7;}
	.st10{clip-path:url(#SVGID_14_);fill:#8DD3C7;}
	.st11{clip-path:url(#SVGID_16_);fill:#8DD3C7;}
	.st12{clip-path:url(#SVGID_18_);fill:#BEBADA;}
	.st13{clip-path:url(#SVGID_20_);fill:#FB8072;}
	.st14{clip-path:url(#SVGID_22_);fill:#8DD3C7;}
	.st15{clip-path:url(#SVGID_24_);fill:#80B1D3;}
	.st16{clip-path:url(#SVGID_26_);fill:#8DD3C7;}
	.st17{clip-path:url(#SVGID_28_);fill:#8DD3C7;}
	.st18{clip-path:url(#SVGID_30_);fill:#BEBADA;}
	.st19{clip-path:url(#SVGID_32_);fill:#E8E89E;}
	.st20{clip-path:url(#SVGID_34_);fill:#8DD3C7;}
	.st21{clip-path:url(#SVGID_36_);fill:#A6D854;}
	.st22{clip-path:url(#SVGID_38_);fill:#BEBADA;}
	.st23{clip-path:url(#SVGID_40_);fill:#8DD3C7;}
	.st24{clip-path:url(#SVGID_42_);fill:#BEBADA;}
	.st25{clip-path:url(#SVGID_44_);fill:#BEBADA;}
	.st26{clip-path:url(#SVGID_46_);fill:#8DD3C7;}
	.st27{clip-path:url(#SVGID_48_);fill:none;stroke:#000000;stroke-dasharray:3,2;}
	.st28{clip-path:url(#SVGID_50_);fill:none;stroke:#000000;stroke-dasharray:3,2;}
	.st29{clip-path:url(#SVGID_52_);fill:none;stroke:#000000;}
	.st30{font-size:15px;}
	.st31{clip-path:url(#SVGID_54_);fill:#FFFFFF;fill-opacity:0;}
	.st32{fill:none;stroke:#000000;stroke-dasharray:3,2;}
	.st33{fill:none;}
	.st34{fill-opacity:0;}
	.st35{display:none;enable-background:new    ;}
	.st36{font-size:12px;}
	.st37{font-family:'Arial-BoldMT';}
	.st38{fill:#E8E89E;stroke:#AAAAAA;}
	.st39{fill:#BEBADA;stroke:#AAAAAA;}
	.st40{fill:#A6D854;stroke:#AAAAAA;}
	.st41{fill:#FB8072;stroke:#AAAAAA;}
	.st42{fill:#8DD3C7;stroke:#AAAAAA;}
	.st43{fill:#80B1D3;stroke:#AAAAAA;}
</style>
<g transform="translate(74.66463126717034,70)">
	<g transform="translate(10, 66)">
		<path shape-rendering="crispEdges" class="st0" d="M70,0"/>
		<g>
			<defs>
				<rect id="SVGID_1_" x="0" width="140" height="26"/>
			</defs>
			<clipPath id="SVGID_2_">
				<use xlink:href="#SVGID_1_"  style="overflow:visible;"/>
			</clipPath>
			<rect x="0" class="st1" width="280" height="26"/>
		</g>
		<g>
			<defs>
				<rect id="SVGID_3_" x="0" width="140" height="26"/>
			</defs>
			<clipPath id="SVGID_4_">
				<use xlink:href="#SVGID_3_"  style="overflow:visible;"/>
			</clipPath>
			<line class="st2" x1="0" y1="0" x2="280" y2="0"/>
		</g>
		<g>
			<defs>
				<rect id="SVGID_5_" x="0" width="140" height="26"/>
			</defs>
			<clipPath id="SVGID_6_">
				<use xlink:href="#SVGID_5_"  style="overflow:visible;"/>
			</clipPath>
			<line class="st3" x1="0" y1="26" x2="280" y2="26"/>
		</g>
		<text transform="matrix(1 0 0 1 9.2744 41.0945)" class="st4 st5 st6">ends at 105603386 bp</text>
		<g>
			<defs>
				<rect id="SVGID_7_" x="0" width="140" height="26"/>
			</defs>
			<clipPath id="SVGID_8_">
				<use xlink:href="#SVGID_7_"  style="overflow:visible;"/>
			</clipPath>
			<rect x="0" class="st7" width="280" height="26"/>
		</g>
	</g>
	<g transform="translate(150.3296661376953, 66)">
		<path shape-rendering="crispEdges" class="st0" d="M204.8,26"/>
		<g>
			<defs>
				<rect id="SVGID_9_" x="9.7" width="390.3" height="26"/>
			</defs>
			<clipPath id="SVGID_10_">
				<use xlink:href="#SVGID_9_"  style="overflow:visible;"/>
			</clipPath>
			<rect x="0" class="st8" width="400" height="26"/>
		</g>
		<g>
			<defs>
				<rect id="SVGID_11_" x="9.7" width="390.3" height="26"/>
			</defs>
			<clipPath id="SVGID_12_">
				<use xlink:href="#SVGID_11_"  style="overflow:visible;"/>
			</clipPath>
			<rect x="364.8" class="st9" width="0" height="26"/>
		</g>
		<g>
			<defs>
				<rect id="SVGID_13_" x="9.7" width="390.3" height="26"/>
			</defs>
			<clipPath id="SVGID_14_">
				<use xlink:href="#SVGID_13_"  style="overflow:visible;"/>
			</clipPath>
			<rect x="341.1" class="st10" width="0.9" height="26"/>
		</g>
		<g>
			<defs>
				<rect id="SVGID_15_" x="9.7" width="390.3" height="26"/>
			</defs>
			<clipPath id="SVGID_16_">
				<use xlink:href="#SVGID_15_"  style="overflow:visible;"/>
			</clipPath>
			<rect x="372.7" class="st11" width="0.9" height="26"/>
		</g>
		<g>
			<defs>
				<rect id="SVGID_17_" x="9.7" width="390.3" height="26"/>
			</defs>
			<clipPath id="SVGID_18_">
				<use xlink:href="#SVGID_17_"  style="overflow:visible;"/>
			</clipPath>
			<rect x="355.2" class="st12" width="0" height="26"/>
		</g>
		<g>
			<defs>
				<rect id="SVGID_19_" x="9.7" width="390.3" height="26"/>
			</defs>
			<clipPath id="SVGID_20_">
				<use xlink:href="#SVGID_19_"  style="overflow:visible;"/>
			</clipPath>
			<rect x="332.3" class="st13" width="0" height="26"/>
		</g>
		<g>
			<defs>
				<rect id="SVGID_21_" x="9.7" width="390.3" height="26"/>
			</defs>
			<clipPath id="SVGID_22_">
				<use xlink:href="#SVGID_21_"  style="overflow:visible;"/>
			</clipPath>
			<rect x="371" class="st14" width="0" height="26"/>
		</g>
		<g>
			<defs>
				<rect id="SVGID_23_" x="9.7" width="390.3" height="26"/>
			</defs>
			<clipPath id="SVGID_24_">
				<use xlink:href="#SVGID_23_"  style="overflow:visible;"/>
			</clipPath>
			<rect x="371.9" class="st15" width="26.4" height="26"/>
		</g>
		<g>
			<defs>
				<rect id="SVGID_25_" x="9.7" width="390.3" height="26"/>
			</defs>
			<clipPath id="SVGID_26_">
				<use xlink:href="#SVGID_25_"  style="overflow:visible;"/>
			</clipPath>
			<rect x="358.7" class="st16" width="0" height="26"/>
		</g>
		<g>
			<defs>
				<rect id="SVGID_27_" x="9.7" width="390.3" height="26"/>
			</defs>
			<clipPath id="SVGID_28_">
				<use xlink:href="#SVGID_27_"  style="overflow:visible;"/>
			</clipPath>
			<rect x="361.3" class="st17" width="0" height="26"/>
		</g>
		<g>
			<defs>
				<rect id="SVGID_29_" x="9.7" width="390.3" height="26"/>
			</defs>
			<clipPath id="SVGID_30_">
				<use xlink:href="#SVGID_29_"  style="overflow:visible;"/>
			</clipPath>
			<rect x="334.9" class="st18" width="0" height="26"/>
		</g>
		<g>
			<defs>
				<rect id="SVGID_31_" x="9.7" width="390.3" height="26"/>
			</defs>
			<clipPath id="SVGID_32_">
				<use xlink:href="#SVGID_31_"  style="overflow:visible;"/>
			</clipPath>
			<rect x="18.5" class="st19" width="298" height="26"/>
		</g>
		<g>
			<defs>
				<rect id="SVGID_33_" x="9.7" width="390.3" height="26"/>
			</defs>
			<clipPath id="SVGID_34_">
				<use xlink:href="#SVGID_33_"  style="overflow:visible;"/>
			</clipPath>
			<rect x="337.6" class="st20" width="0.9" height="26"/>
		</g>
		<g>
			<defs>
				<rect id="SVGID_35_" x="9.7" width="390.3" height="26"/>
			</defs>
			<clipPath id="SVGID_36_">
				<use xlink:href="#SVGID_35_"  style="overflow:visible;"/>
			</clipPath>
			<rect x="325.3" class="st21" width="49.2" height="26"/>
		</g>
		<g>
			<defs>
				<rect id="SVGID_37_" x="9.7" width="390.3" height="26"/>
			</defs>
			<clipPath id="SVGID_38_">
				<use xlink:href="#SVGID_37_"  style="overflow:visible;"/>
			</clipPath>
			<rect x="325.3" class="st22" width="0.9" height="26"/>
		</g>
		<g>
			<defs>
				<rect id="SVGID_39_" x="9.7" width="390.3" height="26"/>
			</defs>
			<clipPath id="SVGID_40_">
				<use xlink:href="#SVGID_39_"  style="overflow:visible;"/>
			</clipPath>
			<rect x="366.6" class="st23" width="0.9" height="26"/>
		</g>
		<g>
			<defs>
				<rect id="SVGID_41_" x="9.7" width="390.3" height="26"/>
			</defs>
			<clipPath id="SVGID_42_">
				<use xlink:href="#SVGID_41_"  style="overflow:visible;"/>
			</clipPath>
			<rect x="357.8" class="st24" width="0" height="26"/>
		</g>
		<g>
			<defs>
				<rect id="SVGID_43_" x="9.7" width="390.3" height="26"/>
			</defs>
			<clipPath id="SVGID_44_">
				<use xlink:href="#SVGID_43_"  style="overflow:visible;"/>
			</clipPath>
			<rect x="331.4" class="st25" width="1.8" height="26"/>
		</g>
		<g>
			<defs>
				<rect id="SVGID_45_" x="9.7" width="390.3" height="26"/>
			</defs>
			<clipPath id="SVGID_46_">
				<use xlink:href="#SVGID_45_"  style="overflow:visible;"/>
			</clipPath>
			<rect x="343.7" class="st26" width="0.9" height="26"/>
		</g>
		<g>
			<defs>
				<rect id="SVGID_47_" x="9.7" width="390.3" height="26"/>
			</defs>
			<clipPath id="SVGID_48_">
				<use xlink:href="#SVGID_47_"  style="overflow:visible;"/>
			</clipPath>
			<line shape-rendering="crispEdges" class="st27" x1="8.8" y1="0" x2="8.8" y2="26"/>
		</g>
		<g>
			<defs>
				<rect id="SVGID_49_" x="9.7" width="390.3" height="26"/>
			</defs>
			<clipPath id="SVGID_50_">
				<use xlink:href="#SVGID_49_"  style="overflow:visible;"/>
			</clipPath>
			<line shape-rendering="crispEdges" class="st28" x1="235" y1="0" x2="235" y2="26"/>
		</g>
		<g>
			<defs>
				<rect id="SVGID_51_" x="9.7" width="390.3" height="26"/>
			</defs>
			<clipPath id="SVGID_52_">
				<use xlink:href="#SVGID_51_"  style="overflow:visible;"/>
			</clipPath>
			<rect x="0" class="st29" width="400" height="26"/>
		</g>
		<text transform="matrix(1 0 0 1 188.1689 44.8723)" class="st5 st30">MYC</text>
		<text transform="matrix(1 0 0 1 10.8742 41.0947)" class="st4 st5 st6">starts at 11 AA</text>
		<g>
			<defs>
				<rect id="SVGID_53_" x="9.7" width="390.3" height="26"/>
			</defs>
			<clipPath id="SVGID_54_">
				<use xlink:href="#SVGID_53_"  style="overflow:visible;"/>
			</clipPath>
			<rect x="0" class="st31" width="400" height="26"/>
		</g>
	</g>
	<line class="st32" x1="155" y1="66" x2="155" y2="92"/>
	<g transform="translate(150, 66)">
		<rect x="-140" y="31" class="st33" width="140" height="3"/>
	</g>
	<g transform="translate(160, 66)">
		<rect x="0" y="-8" class="st34" width="390.3" height="3"/>
	</g>
</g>
<g transform="translate(74.66463126717034,238)">
</g>
<text transform="matrix(1 0 0 1 572.2912 291)" class="st35 st5 st36">drag to resize</text>
<g transform="translate(0,193.525390625)">
	<g>
		<text transform="matrix(1 0 0 1 10 30)" class="st37 st36">MYC NM_002467</text>
		<g transform="translate(10,50)">
			<text transform="matrix(1 0 0 1 12.5 5)" class="st37 st36">Myc_N</text>
			<text transform="matrix(1 0 0 1 61.1875 5)" class="st5 st36">Myc amino-terminal region</text>
			<rect y="0.2" shape-rendering="crispEdges" class="st38" width="10" height="10"/>
		</g>
		<g transform="translate(10,75)">
			<text transform="matrix(1 0 0 1 12.5 5)" class="st37 st36">DNA binding</text>
			<text transform="matrix(1 0 0 1 94.7109 5)" class="st5 st36">DNA binding region [nucleotide binding]</text>
			<rect y="0.2" shape-rendering="crispEdges" class="st39" width="10" height="10"/>
		</g>
		<g transform="translate(10,100)">
			<text transform="matrix(1 0 0 1 12.5 5)" class="st37 st36">HLH</text>
			<text transform="matrix(1 0 0 1 47.1641 5)" class="st5 st36">Helix-loop-helix domain, found in specific DNA- binding proteins that act as ...</text>
			<rect y="0.2" shape-rendering="crispEdges" class="st40" width="10" height="10"/>
		</g>
		<g transform="translate(10,125)">
			<text transform="matrix(1 0 0 1 12.5 5)" class="st37 st36">other</text>
			<text transform="matrix(1 0 0 1 52.5 5)" class="st5 st36">E-box/N-box specificity site</text>
			<rect y="0.2" shape-rendering="crispEdges" class="st41" width="10" height="10"/>
		</g>
		<g transform="translate(10,150)">
			<text transform="matrix(1 0 0 1 12.5 5)" class="st37 st36">other</text>
			<text transform="matrix(1 0 0 1 52.5 5)" class="st5 st36">dimerization interface [polypeptide binding]</text>
			<rect y="0.2" shape-rendering="crispEdges" class="st42" width="10" height="10"/>
		</g>
		<g transform="translate(10,175)">
			<text transform="matrix(1 0 0 1 12.5 5)" class="st37 st36">Myc-LZ</text>
			<text transform="matrix(1 0 0 1 64.5 5)" class="st5 st36">Myc leucine zipper domain</text>
			<rect y="0.2" shape-rendering="crispEdges" class="st43" width="10" height="10"/>
		</g>
	</g>
</g>
</svg>
