<svg xmlns="http://www.w3.org/2000/svg" width="1052" height="689.846875"><g transform="translate(0,0)"><g transform="translate(142, 0)"/><rect fill="#FFFF99" x="818" width="0" height="212.846875"/><g transform="translate(142, 23)"><g transform="translate(0,0)"><text text-anchor="end" x="-13" y="-10" dominant-baseline="central" font-size="13" font-family="Arial">Protein length</text><g><g transform="translate(0,0)" fill="none" font-size="10" font-family="sans-serif" text-anchor="middle"><path class="domain" stroke="black" d="M0.5,-6V0.5H800.5V-6" fill="none" stroke-width="1" shape-rendering="crispEdges"/><g class="tick" opacity="1" transform="translate(65.6657797789603,0)"><line stroke="black" y2="-6" shape-rendering="crispEdges"/><text fill="black" y="-9" dy="0em" font-family="Arial" font-size="12px" style="cursor: default;">200</text></g><g class="tick" opacity="1" transform="translate(131.15902578796562,0)"><line stroke="black" y2="-6" shape-rendering="crispEdges"/><text fill="black" y="-9" dy="0em" font-family="Arial" font-size="12px" style="cursor: default;">400</text></g><g class="tick" opacity="1" transform="translate(196.65227179697095,0)"><line stroke="black" y2="-6" shape-rendering="crispEdges"/><text fill="black" y="-9" dy="0em" font-family="Arial" font-size="12px" style="cursor: default;">600</text></g><g class="tick" opacity="1" transform="translate(262.1455178059763,0)"><line stroke="black" y2="-6" shape-rendering="crispEdges"/><text fill="black" y="-9" dy="0em" font-family="Arial" font-size="12px" style="cursor: default;">800</text></g><g class="tick" opacity="1" transform="translate(327.6387638149816,0)"><line stroke="black" y2="-6" shape-rendering="crispEdges"/><text fill="black" y="-9" dy="0em" font-family="Arial" font-size="12px" style="cursor: default;">1000</text></g><g class="tick" opacity="1" transform="translate(393.1320098239869,0)"><line stroke="black" y2="-6" shape-rendering="crispEdges"/><text fill="black" y="-9" dy="0em" font-family="Arial" font-size="12px" style="cursor: default;">1200</text></g><g class="tick" opacity="1" transform="translate(458.6252558329922,0)"><line stroke="black" y2="-6" shape-rendering="crispEdges"/><text fill="black" y="-9" dy="0em" font-family="Arial" font-size="12px" style="cursor: default;">1400</text></g><g class="tick" opacity="1" transform="translate(524.1185018419976,0)"><line stroke="black" y2="-6" shape-rendering="crispEdges"/><text fill="black" y="-9" dy="0em" font-family="Arial" font-size="12px" style="cursor: default;">1600</text></g><g class="tick" opacity="1" transform="translate(589.6117478510029,0)"><line stroke="black" y2="-6" shape-rendering="crispEdges"/><text fill="black" y="-9" dy="0em" font-family="Arial" font-size="12px" style="cursor: default;">1800</text></g><g class="tick" opacity="1" transform="translate(655.1049938600082,0)"><line stroke="black" y2="-6" shape-rendering="crispEdges"/><text fill="black" y="-9" dy="0em" font-family="Arial" font-size="12px" style="cursor: default;">2000</text></g><g class="tick" opacity="1" transform="translate(720.5982398690135,0)"><line stroke="black" y2="-6" shape-rendering="crispEdges"/><text fill="black" y="-9" dy="0em" font-family="Arial" font-size="12px" style="cursor: default;">2200</text></g><g class="tick" opacity="1" transform="translate(786.0914858780188,0)"><line stroke="black" y2="-6" shape-rendering="crispEdges"/><text fill="black" y="-9" dy="0em" font-family="Arial" font-size="12px" style="cursor: default;">2400</text></g></g></g><rect fill="white" fill-opacity="0" x="0" y="-23" width="800" height="26"/></g><g transform="translate(800, 0)"/></g><g transform="translate(0, 170.8468780517578)"><g transform="translate(942, 0)"/><g transform="translate(142, 0)"><rect fill="white" fill-opacity="0" width="800" height="47"/><g transform="translate(0,0)" style="cursor: default;"><g><line x1="0" y1="18.5" x2="799.9999999999999" y2="18.5" stroke="black" shape-rendering="crispEdges"/><rect x="0" width="9.278209851275754" height="37" fill="white"/><rect x="9.278209851275754" width="77.82780734070133" height="37" fill="white"/><rect x="87.10601719197709" width="19.32050757265657" height="37" fill="white"/><rect x="106.42652476463365" width="26.306453813617136" height="37" fill="white"/><rect x="118.54277527629964" width="14.190203301951152" height="37" fill="#E8E89E"/><rect x="132.7329785782508" width="12.443716741711011" height="37" fill="white"/><rect x="132.7329785782508" width="8.077500341110657" height="37" fill="#E8E89E"/><rect x="145.1766953199618" width="26.524764633647155" height="37" fill="white"/><rect x="171.70145995360895" width="11.243007231545914" height="37" fill="white"/><rect x="182.94446718515485" width="16.045845272206304" height="37" fill="white"/><rect x="191.89521080638556" width="7.095101650975576" height="37" fill="#fb8072"/><rect x="198.99031245736114" width="12.880338381771045" height="37" fill="white"/><rect x="198.99031245736114" width="12.880338381771045" height="37" fill="#fb8072"/><rect x="211.8706508391322" width="18.774730522581525" height="37" fill="white"/><rect x="211.8706508391322" width="6.5493246009005315" height="37" fill="#fb8072"/><rect x="230.64538136171373" width="4.911993450675399" height="37" fill="white"/><rect x="235.55737481238913" width="13.644426251876109" height="37" fill="white"/><rect x="249.20180106426523" width="19.647973802701596" height="37" fill="white"/><rect x="268.8497748669668" width="45.51780597625869" height="37" fill="white"/><rect x="314.3675808432255" width="19.647973802701596" height="37" fill="white"/><rect x="334.01555464592707" width="20.739527902851684" height="37" fill="white"/><rect x="354.7550825487788" width="12.989493791786055" height="37" fill="white"/><rect x="355.6283258288988" width="12.116250511665983" height="37" fill="#fdb462"/><rect x="364.7973802701596" width="1" height="37" fill="#b3b3b3"/><rect x="367.0896438804748" width="1" height="37" fill="#b3b3b3"/><rect x="367.74457634056483" width="26.197298403602126" height="37" fill="white"/><rect x="367.74457634056483" width="23.25010233319689" height="37" fill="#fdb462"/><rect x="380.8432255423659" width="1" height="37" fill="#b3b3b3"/><rect x="382.153090462546" width="1" height="37" fill="#b3b3b3"/><rect x="384.1178878428162" width="1" height="37" fill="#b3b3b3"/><rect x="368.0720425706099" width="1" height="37" fill="#b3b3b3"/><rect x="393.94187474416697" width="9.714831491335788" height="37" fill="white"/><rect x="394.596807204257" width="9.059899031245736" height="37" fill="#ffd92f"/><rect x="395.5792058943921" width="1" height="37" fill="#e5c494"/><rect x="394.596807204257" width="1" height="37" fill="#e5c494"/><rect x="398.8538681948424" width="1" height="37" fill="#fb8072"/><rect x="396.8890708145722" width="1" height="37" fill="#fb8072"/><rect x="403.6567062355028" width="8.841588211215718" height="37" fill="white"/><rect x="403.6567062355028" width="8.841588211215718" height="37" fill="#ffd92f"/><rect x="405.73065902578793" width="1" height="37" fill="#fb8072"/><rect x="404.74826033565284" width="1" height="37" fill="#fb8072"/><rect x="412.4982944467185" width="6.2218583708555055" height="37" fill="white"/><rect x="412.4982944467185" width="6.003547550825488" height="37" fill="#ffd92f"/><rect x="417.5194433074089" width="1" height="37" fill="#e5c494"/><rect x="418.17437576749893" width="1" height="37" fill="#e5c494"/><rect x="418.720152817574" width="8.51412198117069" height="37" fill="white"/><rect x="418.829308227589" width="8.404966571155683" height="37" fill="#80b1d3"/><rect x="418.829308227589" width="1.3098649201801065" height="37" fill="#bebada"/><rect x="421.1215718379042" width="1" height="37" fill="#bebada"/><rect x="427.2342747987447" width="7.422567881020603" height="37" fill="white"/><rect x="427.2342747987447" width="2.073952790285168" height="37" fill="#80b1d3"/><rect x="427.34343020875974" width="1" height="37" fill="#bebada"/><rect x="434.6568426797653" width="16.48246691226634" height="37" fill="white"/><rect x="439.13221449038065" width="12.007095101650975" height="37" fill="#ffd92f"/><rect x="451.1393095920316" width="16.045845272206304" height="37" fill="white"/><rect x="451.1393095920316" width="16.045845272206304" height="37" fill="#ffd92f"/><rect x="467.1851548642379" width="12.443716741711011" height="37" fill="white"/><rect x="467.1851548642379" width="12.443716741711011" height="37" fill="#ffd92f"/><rect x="479.6288716059489" width="18.119798062491473" height="37" fill="white"/><rect x="479.6288716059489" width="18.119798062491473" height="37" fill="#ffd92f"/><rect x="497.7486696684404" width="18.33810888252149" height="37" fill="white"/><rect x="497.7486696684404" width="18.33810888252149" height="37" fill="#ffd92f"/><rect x="516.0867785509619" width="17.683176422431437" height="37" fill="white"/><rect x="516.0867785509619" width="17.683176422431437" height="37" fill="#ffd92f"/><rect x="533.7699549733933" width="30.7818256242325" height="37" fill="white"/><rect x="533.7699549733933" width="6.2218583708555055" height="37" fill="#ffd92f"/><rect x="558.0024559967253" width="6.5493246009005315" height="37" fill="#8dd3c7"/><rect x="561.9320507572655" width="1" height="37" fill="#bebada"/><rect x="559.6397871469504" width="1" height="37" fill="#E8E89E"/><rect x="563.8968481375357" width="1" height="37" fill="#fdb462"/><rect x="558.6573884568153" width="1" height="37" fill="#80b1d3"/><rect x="562.2595169873106" width="1" height="37" fill="#8dd3c7"/><rect x="563.8968481375357" width="1" height="37" fill="#80b1d3"/><rect x="558.6573884568153" width="1" height="37" fill="#E8E89E"/><rect x="559.6397871469504" width="1" height="37" fill="#80b1d3"/><rect x="562.9144494474007" width="1" height="37" fill="#fdb462"/><rect x="562.5869832173556" width="1" height="37" fill="#bebada"/><rect x="558.9848546868603" width="1" height="37" fill="#bebada"/><rect x="562.9144494474007" width="1" height="37" fill="#80b1d3"/><rect x="564.5517805976258" width="235.44821940237412" height="37" fill="white"/><rect x="650.0204666393777" width="140.1555464592714" height="37" fill="#a6d854"/><rect x="577.9778960294719" width="25.8698321735571" height="37" fill="#e5c494"/><rect x="665.738845681539" width="25.542365943512074" height="37" fill="#a6d854"/><rect x="564.5517805976258" width="6.876790830945558" height="37" fill="#8dd3c7"/><rect x="569.4637740483012" width="1" height="37" fill="#80b1d3"/><rect x="571.1011051985263" width="1" height="37" fill="#8dd3c7"/><rect x="569.4637740483012" width="1" height="37" fill="#fdb462"/><rect x="566.844044207941" width="1" height="37" fill="#80b1d3"/><rect x="565.8616455178059" width="1" height="37" fill="#80b1d3"/><rect x="568.8088415882112" width="1" height="37" fill="#fdb462"/><rect x="565.2067130577159" width="1" height="37" fill="#bebada"/><rect x="566.844044207941" width="1" height="37" fill="#E8E89E"/><rect x="565.8616455178059" width="1" height="37" fill="#E8E89E"/><rect x="568.8088415882112" width="1" height="37" fill="#80b1d3"/><rect x="570.1187065083913" width="1" height="37" fill="#8dd3c7"/><rect x="567.1715104379861" width="1" height="37" fill="#8dd3c7"/><rect x="564.5517805976258" width="1" height="37" fill="#bebada"/><line x1="0" x2="799.9999999999999" stroke="black"/><line x1="0" x2="799.9999999999999" y1="37" y2="37" stroke="black"/><line x1="799.9999999999999" x2="799.9999999999999" y2="37" stroke="black"/><line x1="0" x2="0" y2="37" stroke="black"/><line class="exonboundaryclass" x1="9.278209851275754" x2="9.278209851275754" y1="0" y2="37" stroke="black" stroke-dasharray="4,2" shape-rendering="crispEdges" stroke-opacity="1"/><line class="exonboundaryclass" x1="87.10601719197709" x2="87.10601719197709" y1="0" y2="37" stroke="black" stroke-dasharray="4,2" shape-rendering="crispEdges" stroke-opacity="1"/><line class="exonboundaryclass" x1="106.42652476463365" x2="106.42652476463365" y1="0" y2="37" stroke="black" stroke-dasharray="4,2" shape-rendering="crispEdges" stroke-opacity="1"/><line class="exonboundaryclass" x1="132.7329785782508" x2="132.7329785782508" y1="0" y2="37" stroke="black" stroke-dasharray="4,2" shape-rendering="crispEdges" stroke-opacity="1"/><line class="exonboundaryclass" x1="145.1766953199618" x2="145.1766953199618" y1="0" y2="37" stroke="black" stroke-dasharray="4,2" shape-rendering="crispEdges" stroke-opacity="1"/><line class="exonboundaryclass" x1="171.70145995360895" x2="171.70145995360895" y1="0" y2="37" stroke="black" stroke-dasharray="4,2" shape-rendering="crispEdges" stroke-opacity="1"/><line class="exonboundaryclass" x1="182.94446718515485" x2="182.94446718515485" y1="0" y2="37" stroke="black" stroke-dasharray="4,2" shape-rendering="crispEdges" stroke-opacity="1"/><line class="exonboundaryclass" x1="198.99031245736114" x2="198.99031245736114" y1="0" y2="37" stroke="black" stroke-dasharray="4,2" shape-rendering="crispEdges" stroke-opacity="1"/><line class="exonboundaryclass" x1="211.8706508391322" x2="211.8706508391322" y1="0" y2="37" stroke="black" stroke-dasharray="4,2" shape-rendering="crispEdges" stroke-opacity="1"/><line class="exonboundaryclass" x1="230.64538136171373" x2="230.64538136171373" y1="0" y2="37" stroke="black" stroke-dasharray="4,2" shape-rendering="crispEdges" stroke-opacity="1"/><line class="exonboundaryclass" x1="235.55737481238913" x2="235.55737481238913" y1="0" y2="37" stroke="black" stroke-dasharray="4,2" shape-rendering="crispEdges" stroke-opacity="1"/><line class="exonboundaryclass" x1="249.20180106426523" x2="249.20180106426523" y1="0" y2="37" stroke="black" stroke-dasharray="4,2" shape-rendering="crispEdges" stroke-opacity="1"/><line class="exonboundaryclass" x1="268.8497748669668" x2="268.8497748669668" y1="0" y2="37" stroke="black" stroke-dasharray="4,2" shape-rendering="crispEdges" stroke-opacity="1"/><line class="exonboundaryclass" x1="314.3675808432255" x2="314.3675808432255" y1="0" y2="37" stroke="black" stroke-dasharray="4,2" shape-rendering="crispEdges" stroke-opacity="1"/><line class="exonboundaryclass" x1="334.01555464592707" x2="334.01555464592707" y1="0" y2="37" stroke="black" stroke-dasharray="4,2" shape-rendering="crispEdges" stroke-opacity="1"/><line class="exonboundaryclass" x1="354.7550825487788" x2="354.7550825487788" y1="0" y2="37" stroke="black" stroke-dasharray="4,2" shape-rendering="crispEdges" stroke-opacity="1"/><line class="exonboundaryclass" x1="367.74457634056483" x2="367.74457634056483" y1="0" y2="37" stroke="black" stroke-dasharray="4,2" shape-rendering="crispEdges" stroke-opacity="1"/><line class="exonboundaryclass" x1="393.94187474416697" x2="393.94187474416697" y1="0" y2="37" stroke="black" stroke-dasharray="4,2" shape-rendering="crispEdges" stroke-opacity="1"/><line class="exonboundaryclass" x1="403.6567062355028" x2="403.6567062355028" y1="0" y2="37" stroke="black" stroke-dasharray="4,2" shape-rendering="crispEdges" stroke-opacity="1"/><line class="exonboundaryclass" x1="412.4982944467185" x2="412.4982944467185" y1="0" y2="37" stroke="black" stroke-dasharray="4,2" shape-rendering="crispEdges" stroke-opacity="1"/><line class="exonboundaryclass" x1="418.720152817574" x2="418.720152817574" y1="0" y2="37" stroke="black" stroke-dasharray="4,2" shape-rendering="crispEdges" stroke-opacity="1"/><line class="exonboundaryclass" x1="427.2342747987447" x2="427.2342747987447" y1="0" y2="37" stroke="black" stroke-dasharray="4,2" shape-rendering="crispEdges" stroke-opacity="1"/><line class="exonboundaryclass" x1="434.6568426797653" x2="434.6568426797653" y1="0" y2="37" stroke="black" stroke-dasharray="4,2" shape-rendering="crispEdges" stroke-opacity="1"/><line class="exonboundaryclass" x1="451.1393095920316" x2="451.1393095920316" y1="0" y2="37" stroke="black" stroke-dasharray="4,2" shape-rendering="crispEdges" stroke-opacity="1"/><line class="exonboundaryclass" x1="467.1851548642379" x2="467.1851548642379" y1="0" y2="37" stroke="black" stroke-dasharray="4,2" shape-rendering="crispEdges" stroke-opacity="1"/><line class="exonboundaryclass" x1="479.6288716059489" x2="479.6288716059489" y1="0" y2="37" stroke="black" stroke-dasharray="4,2" shape-rendering="crispEdges" stroke-opacity="1"/><line class="exonboundaryclass" x1="497.7486696684404" x2="497.7486696684404" y1="0" y2="37" stroke="black" stroke-dasharray="4,2" shape-rendering="crispEdges" stroke-opacity="1"/><line class="exonboundaryclass" x1="516.0867785509619" x2="516.0867785509619" y1="0" y2="37" stroke="black" stroke-dasharray="4,2" shape-rendering="crispEdges" stroke-opacity="1"/><line class="exonboundaryclass" x1="533.7699549733933" x2="533.7699549733933" y1="0" y2="37" stroke="black" stroke-dasharray="4,2" shape-rendering="crispEdges" stroke-opacity="1"/><line class="exonboundaryclass" x1="564.5517805976258" x2="564.5517805976258" y1="0" y2="37" stroke="black" stroke-dasharray="4,2" shape-rendering="crispEdges" stroke-opacity="1"/><g transform="translate(0,18.5)" fill="none" font-size="10" font-family="sans-serif" text-anchor="middle"><path class="domain" stroke="none" d="M0.6637331150225133,0V0.5H800.4999999999999V0" fill="none" stroke-width="0" shape-rendering="crispEdges"/><g class="tick" opacity="1" transform="translate(65.71187271470193,0)"><line stroke="black" y2="0" shape-rendering="crispEdges"/><text fill="black" y="3" dy="0.71em" font-family="Arial" font-size="11.666666666666666px" style="cursor: default;">200</text></g><g class="tick" opacity="1" transform="translate(131.2722745258562,0)"><line stroke="black" y2="0" shape-rendering="crispEdges"/><text fill="black" y="3" dy="0.71em" font-family="Arial" font-size="11.666666666666666px" style="cursor: default;">400</text></g><g class="tick" opacity="1" transform="translate(196.86167197128543,0)"><line stroke="black" y2="0" shape-rendering="crispEdges"/><text fill="black" y="3" dy="0.71em" font-family="Arial" font-size="11.666666666666666px" style="cursor: default;">600</text></g><g class="tick" opacity="1" transform="translate(262.20555328148447,0)"><line stroke="black" y2="0" shape-rendering="crispEdges"/><text fill="black" y="3" dy="0.71em" font-family="Arial" font-size="11.666666666666666px" style="cursor: default;">800</text></g><g class="tick" opacity="1" transform="translate(327.6960704052394,0)"><line stroke="black" y2="0" shape-rendering="crispEdges"/><text fill="black" y="3" dy="0.71em" font-family="Arial" font-size="11.666666666666666px" style="cursor: default;">1000</text></g><g class="tick" opacity="1" transform="translate(393.140196479738,0)"><line stroke="black" y2="0" shape-rendering="crispEdges"/><text fill="black" y="3" dy="0.71em" font-family="Arial" font-size="11.666666666666666px" style="cursor: default;">1200</text></g><g class="tick" opacity="1" transform="translate(458.81349322373234,0)"><line stroke="black" y2="0" shape-rendering="crispEdges"/><text fill="black" y="3" dy="0.71em" font-family="Arial" font-size="11.666666666666666px" style="cursor: default;">1400</text></g><g class="tick" opacity="1" transform="translate(524.2124967783993,0)"><line stroke="black" y2="0" shape-rendering="crispEdges"/><text fill="black" y="3" dy="0.71em" font-family="Arial" font-size="11.666666666666666px" style="cursor: default;">1600</text></g><g class="tick" opacity="1" transform="translate(589.7584017120244,0)"><line stroke="black" y2="0" shape-rendering="crispEdges"/><text fill="black" y="3" dy="0.71em" font-family="Arial" font-size="11.666666666666666px" style="cursor: default;">1800</text></g><g class="tick" opacity="1" transform="translate(655.2061030436938,0)"><line stroke="black" y2="0" shape-rendering="crispEdges"/><text fill="black" y="3" dy="0.71em" font-family="Arial" font-size="11.666666666666666px" style="cursor: default;">2000</text></g><g class="tick" opacity="1" transform="translate(720.6538043753632,0)"><line stroke="black" y2="0" shape-rendering="crispEdges"/><text fill="black" y="3" dy="0.71em" font-family="Arial" font-size="11.666666666666666px" style="cursor: default;">2200</text></g><g class="tick" opacity="1" transform="translate(786.1015057070326,0)"><line stroke="black" y2="0" shape-rendering="crispEdges"/><text fill="black" y="3" dy="0.71em" font-family="Arial" font-size="11.666666666666666px" style="cursor: default;">2400</text></g></g><rect x="0" width="9.278209851275754" height="37" fill="#858585" fill-opacity="0"/><rect x="9.278209851275754" width="77.82780734070133" height="37" fill="#858585" fill-opacity="0"/><rect x="87.10601719197709" width="19.32050757265657" height="37" fill="#858585" fill-opacity="0"/><rect x="106.42652476463365" width="26.306453813617136" height="37" fill="#858585" fill-opacity="0"/><rect x="132.7329785782508" width="12.443716741711011" height="37" fill="#858585" fill-opacity="0"/><rect x="145.1766953199618" width="26.524764633647155" height="37" fill="#858585" fill-opacity="0"/><rect x="171.70145995360895" width="11.243007231545914" height="37" fill="#858585" fill-opacity="0"/><rect x="182.94446718515485" width="16.045845272206304" height="37" fill="#858585" fill-opacity="0"/><rect x="198.99031245736114" width="12.880338381771045" height="37" fill="#858585" fill-opacity="0"/><rect x="211.8706508391322" width="18.774730522581525" height="37" fill="#858585" fill-opacity="0"/><rect x="230.64538136171373" width="4.911993450675399" height="37" fill="#858585" fill-opacity="0"/><rect x="235.55737481238913" width="13.644426251876109" height="37" fill="#858585" fill-opacity="0"/><rect x="249.20180106426523" width="19.647973802701596" height="37" fill="#858585" fill-opacity="0"/><rect x="268.8497748669668" width="45.51780597625869" height="37" fill="#858585" fill-opacity="0"/><rect x="314.3675808432255" width="19.647973802701596" height="37" fill="#858585" fill-opacity="0"/><rect x="334.01555464592707" width="20.739527902851684" height="37" fill="#858585" fill-opacity="0"/><rect x="354.7550825487788" width="12.989493791786055" height="37" fill="#858585" fill-opacity="0"/><rect x="367.74457634056483" width="26.197298403602126" height="37" fill="#858585" fill-opacity="0"/><rect x="393.94187474416697" width="9.714831491335788" height="37" fill="#858585" fill-opacity="0"/><rect x="403.6567062355028" width="8.841588211215718" height="37" fill="#858585" fill-opacity="0"/><rect x="412.4982944467185" width="6.2218583708555055" height="37" fill="#858585" fill-opacity="0"/><rect x="418.720152817574" width="8.51412198117069" height="37" fill="#858585" fill-opacity="0"/><rect x="427.2342747987447" width="7.422567881020603" height="37" fill="#858585" fill-opacity="0"/><rect x="434.6568426797653" width="16.48246691226634" height="37" fill="#858585" fill-opacity="0"/><rect x="451.1393095920316" width="16.045845272206304" height="37" fill="#858585" fill-opacity="0"/><rect x="467.1851548642379" width="12.443716741711011" height="37" fill="#858585" fill-opacity="0"/><rect x="479.6288716059489" width="18.119798062491473" height="37" fill="#858585" fill-opacity="0"/><rect x="497.7486696684404" width="18.33810888252149" height="37" fill="#858585" fill-opacity="0"/><rect x="516.0867785509619" width="17.683176422431437" height="37" fill="#858585" fill-opacity="0"/><rect x="533.7699549733933" width="30.7818256242325" height="37" fill="#858585" fill-opacity="0"/><rect x="564.5517805976258" width="235.44821940237412" height="37" fill="#858585" fill-opacity="0"/></g></g><g/><g transform="scale(0)"><rect fill="white" fill-opacity="0"/><text fill="#8AB1D4" fill-opacity="0" font-weight="bold" font-size="18px" text-anchor="middle" dominant-baseline="middle">Loading ...</text><line stroke="#8AB1D4" stroke-width="2px"/></g></g><g transform="translate(139, 0)"><text font-size="14" font-family="Arial" y="7" text-anchor="end" dominant-baseline="central" fill="black" x="-10" font-weight="bold">CREBBP</text><text font-size="14" font-family="Arial" y="20" text-anchor="end" dominant-baseline="central" fill="black" x="-10">NM_004380</text></g><g transform="translate(952, 0)"><text fill="#aaa" font-family="Arial" font-size="14" y="14" class="sja_clbtext2"/></g></g><g transform="translate(0, 31)"><g transform="translate(942, 0)"/><g transform="translate(142, 0)"><rect fill="white" fill-opacity="0" width="800" height="139.846875"/><g transform="translate(0,0)" style="cursor: default;"><g class="sja_skg" transform="translate(125.39148712158203, 64.046875)"><g transform="translate(0, -9.391485214233398)" class="sja_aa_discg"><circle fill="#ff7f0e" stroke="white" r="8.891485505499118"/><text font-family="Arial" class="sja_aa_discnum" fill-opacity="1" stroke-opacity="1" text-anchor="middle" font-size="14.087228258248675" y="4.2261684774746024" fill="white">2</text><text font-size="12" fill="#ff7f0e" x="10.391485505499118" y="3.5999999999999996" font-family="Arial" class="sja_aa_disclabel" fill-opacity="1" transform="rotate(-90)">R386*</text><circle r="8.891485505499118" stroke="#ff7f0e" class="sja_aa_disckick" fill="white" fill-opacity="0" stroke-opacity="0" transform="scale(1)"/><path d="M5.750626331774128e-16,-9.391485505499118L5.750626331774128e-16,-9.391485505499118Z" fill="#ff7f0e" class="sja_aa_discrim" fill-opacity="1" stroke-opacity="1"/></g><circle class="sja_aa_skkick" fill="white" fill-opacity="0" stroke="none" r="10.391485505499118" cy="-9.391485505499118" transform="scale(0)"/><path class="sja_aa_stem" d="M0,0v14l0.7375907668436241,14v37.8" stroke="#ff7f0e" fill="none"/></g><g class="sja_skg" transform="translate(141.78297424316406, 64.046875)"><g transform="translate(0, -7)" class="sja_aa_discg"><circle fill="#ff7f0e" stroke="white" r="6.5"/><text font-size="12" fill="#ff7f0e" x="8" y="3.5999999999999996" font-family="Arial" class="sja_aa_disclabel" fill-opacity="1" transform="scale(1) rotate(0)">W419*</text><circle r="6.5" stroke="#ff7f0e" class="sja_aa_disckick" fill="white" fill-opacity="0" stroke-opacity="0" transform="scale(1)"/><path d="M4.286263797015736e-16,-7L4.286263797015736e-16,-7Z" fill="#ff7f0e" class="sja_aa_discrim" fill-opacity="1" stroke-opacity="1"/></g><circle class="sja_aa_skkick" fill="white" fill-opacity="0" stroke="none" r="8" cy="-7" transform="scale(0)"/><path class="sja_aa_stem" d="M0,0v14l-4.738353737154597,14v37.8" stroke="#ff7f0e" fill="none"/></g><g class="sja_skg" transform="translate(197.78297424316406, 64.046875)"><g transform="translate(0, -7)" class="sja_aa_discg"><circle fill="#ff7f0e" stroke="white" r="6.5"/><text font-size="12" fill="#ff7f0e" x="8" y="3.5999999999999996" font-family="Arial" class="sja_aa_disclabel" fill-opacity="1" transform="scale(1) rotate(0)">K607*</text><circle r="6.5" stroke="#ff7f0e" class="sja_aa_disckick" fill="white" fill-opacity="0" stroke-opacity="0" transform="scale(1)"/><path d="M4.286263797015736e-16,-7L4.286263797015736e-16,-7Z" fill="#ff7f0e" class="sja_aa_discrim" fill-opacity="1" stroke-opacity="1"/></g><circle class="sja_aa_skkick" fill="white" fill-opacity="0" stroke="none" r="8" cy="-7" transform="scale(0)"/><path class="sja_aa_stem" d="M0,0v14l0.7161421012953895,14v37.8" stroke="#ff7f0e" fill="none"/></g><g class="sja_skg" transform="translate(491.782958984375, 64.046875)"><g transform="translate(0, -7)" class="sja_aa_discg"><circle fill="#3987CC" stroke="white" r="6.5"/><text font-size="12" fill="#3987CC" x="8" y="3.5999999999999996" font-family="Arial" class="sja_aa_disclabel" fill-opacity="1" transform="scale(1) rotate(0)">Y1503F</text><circle r="6.5" stroke="#3987CC" class="sja_aa_disckick" fill="white" fill-opacity="0" stroke-opacity="0" transform="scale(1)"/><path d="M4.286263797015736e-16,-7L4.286263797015736e-16,-7Z" fill="#3987CC" class="sja_aa_discrim" fill-opacity="1" stroke-opacity="1"/></g><circle class="sja_aa_skkick" fill="white" fill-opacity="0" stroke="none" r="8" cy="-7" transform="scale(0)"/><path class="sja_aa_stem" d="M0,0v14l0.23503963165416053,14v37.8" stroke="#3987CC" fill="none"/></g><g class="sja_skg" transform="translate(549.782958984375, 64.046875)"><g transform="translate(0, -7)" class="sja_aa_discg"><circle fill="#7f7f7f" stroke="white" r="6.5"/><text font-size="12" fill="#7f7f7f" x="8" y="3.5999999999999996" font-family="Arial" class="sja_aa_disclabel" fill-opacity="1" transform="scale(1) rotate(0)">SL1680L</text><circle r="6.5" stroke="#7f7f7f" class="sja_aa_disckick" fill="white" fill-opacity="0" stroke-opacity="0" transform="scale(1)"/><path d="M4.286263797015736e-16,-7L4.286263797015736e-16,-7Z" fill="#7f7f7f" class="sja_aa_discrim" fill-opacity="1" stroke-opacity="1"/></g><circle class="sja_aa_skkick" fill="white" fill-opacity="0" stroke="none" r="8" cy="-7" transform="scale(0)"/><path class="sja_aa_stem" d="M0,0v14l0.5240285796688795,14v37.8" stroke="#7f7f7f" fill="none"/></g></g><g/><g transform="scale(0)"><rect fill="white" fill-opacity="0" height="0"/><text fill="#8AB1D4" fill-opacity="0" font-weight="bold" font-size="18px" text-anchor="middle" dominant-baseline="middle">Loading ...</text><line stroke="#8AB1D4" stroke-width="2px" x2="0"/></g></g><g transform="translate(139, 0)"><text font-size="14" font-family="Arial" y="7" text-anchor="end" dominant-baseline="central" fill="black" x="-10" font-weight="bold">Important_mut.txt</text><g/><text font-size="14" font-family="Arial" y="26" text-anchor="end" dominant-baseline="central" class="sja_clbtext2" fill="black" x="-10">6 mutations</text></g><g transform="translate(952, 0)"/></g></g><g transform="scale(0)"><rect fill="white"/><text fill="#8AB1D4" fill-opacity="0" font-weight="bold" font-size="18px" text-anchor="middle" dominant-baseline="middle">Loading ...</text></g><g/><g transform="translate(141,232.846875)"><g transform="translate(0,0)"><rect width="15" height="20" stroke="rgb(162, 162, 111)" fill="#E8E89E" shape-rendering="crispEdges"/><text x="20" y="10" dominant-baseline="central" font-size="16" font-family="Arial" fill="black">zf-TAZ</text><text x="76.8046875" y="10" dominant-baseline="central" font-size="12" font-family="Arial" fill="#858585">TAZ zinc finger</text></g><g transform="translate(0,23)"><rect width="15" height="20" stroke="rgb(176, 90, 80)" fill="#fb8072" shape-rendering="crispEdges"/><text x="20" y="10" dominant-baseline="central" font-size="16" font-family="Arial" fill="black">KIX</text><text x="55.7890625" y="10" dominant-baseline="central" font-size="12" font-family="Arial" fill="#858585">KIX domain</text></g><g transform="translate(0,46)"><rect width="15" height="20" stroke="rgb(177, 126, 69)" fill="#fdb462" shape-rendering="crispEdges"/><text x="20" y="10" dominant-baseline="central" font-size="16" font-family="Arial" fill="black">Bromo_cbp_like</text><text x="144.7265625" y="10" dominant-baseline="central" font-size="12" font-family="Arial" fill="#858585">Bromodomain, cbp_like subfamily. Cbp (CREB binding protein or CREBBP)  ...</text></g><g transform="translate(0,69)"><rect width="15" height="20" stroke="rgb(125, 125, 125)" fill="#b3b3b3" shape-rendering="crispEdges"/><text x="20" y="10" dominant-baseline="central" font-size="16" font-family="Arial" fill="black">other</text><text x="66.6875" y="10" dominant-baseline="central" font-size="12" font-family="Arial" fill="#858585">acetyllysine binding site</text></g><g transform="translate(0,92)"><rect width="15" height="20" stroke="rgb(179, 152, 33)" fill="#ffd92f" shape-rendering="crispEdges"/><text x="20" y="10" dominant-baseline="central" font-size="16" font-family="Arial" fill="black">RING_CBP-p300</text><text x="152.71875" y="10" dominant-baseline="central" font-size="12" font-family="Arial" fill="#858585">atypical RING domain found in CREB-binding protein and p300 histone ac ...</text></g><g transform="translate(0,115)"><rect width="15" height="20" stroke="rgb(160, 137, 104)" fill="#e5c494" shape-rendering="crispEdges"/><text x="20" y="10" dominant-baseline="central" font-size="16" font-family="Arial" fill="black">other</text><text x="66.6875" y="10" dominant-baseline="central" font-size="12" font-family="Arial" fill="#858585">HAT interface [polypeptide binding]</text></g><g transform="translate(0,138)"><rect width="15" height="20" stroke="rgb(176, 90, 80)" fill="#fb8072" shape-rendering="crispEdges"/><text x="20" y="10" dominant-baseline="central" font-size="16" font-family="Arial" fill="black">other</text><text x="66.6875" y="10" dominant-baseline="central" font-size="12" font-family="Arial" fill="#858585">Zn binding site [ion binding]</text></g><g transform="translate(0,161)"><rect width="15" height="20" stroke="rgb(90, 124, 148)" fill="#80b1d3" shape-rendering="crispEdges"/><text x="20" y="10" dominant-baseline="central" font-size="16" font-family="Arial" fill="black">PHD_CBP_p300</text><text x="150.0703125" y="10" dominant-baseline="central" font-size="12" font-family="Arial" fill="#858585">PHD finger found in CREB-binding protein (CBP) and histone acetyltrans ...</text></g><g transform="translate(0,184)"><rect width="15" height="20" stroke="rgb(133, 130, 153)" fill="#bebada" shape-rendering="crispEdges"/><text x="20" y="10" dominant-baseline="central" font-size="16" font-family="Arial" fill="black">other</text><text x="66.6875" y="10" dominant-baseline="central" font-size="12" font-family="Arial" fill="#858585">putative histone H3 binding site [polypeptide binding]</text></g><g transform="translate(0,207)"><rect width="15" height="20" stroke="rgb(179, 152, 33)" fill="#ffd92f" shape-rendering="crispEdges"/><text x="20" y="10" dominant-baseline="central" font-size="16" font-family="Arial" fill="black">HAT_KAT11</text><text x="116.25" y="10" dominant-baseline="central" font-size="12" font-family="Arial" fill="#858585">Histone acetylation protein</text></g><g transform="translate(0,230)"><rect width="15" height="20" stroke="rgb(99, 148, 139)" fill="#8dd3c7" shape-rendering="crispEdges"/><text x="20" y="10" dominant-baseline="central" font-size="16" font-family="Arial" fill="black">ZZ_CBP</text><text x="91.34375" y="10" dominant-baseline="central" font-size="12" font-family="Arial" fill="#858585">Zinc finger, ZZ type. Zinc finger present in CBP/p300 and related prot ...</text></g><g transform="translate(0,253)"><rect width="15" height="20" stroke="rgb(90, 124, 148)" fill="#80b1d3" shape-rendering="crispEdges"/><text x="20" y="10" dominant-baseline="central" font-size="16" font-family="Arial" fill="black">other</text><text x="66.6875" y="10" dominant-baseline="central" font-size="12" font-family="Arial" fill="#858585">Zinc-binding sites [ion binding]</text></g><g transform="translate(0,276)"><rect width="15" height="20" stroke="rgb(162, 162, 111)" fill="#E8E89E" shape-rendering="crispEdges"/><text x="20" y="10" dominant-baseline="central" font-size="16" font-family="Arial" fill="black">other</text><text x="66.6875" y="10" dominant-baseline="central" font-size="12" font-family="Arial" fill="#858585">zinc cluster 1 [ion binding]</text></g><g transform="translate(0,299)"><rect width="15" height="20" stroke="rgb(133, 130, 153)" fill="#bebada" shape-rendering="crispEdges"/><text x="20" y="10" dominant-baseline="central" font-size="16" font-family="Arial" fill="black">other</text><text x="66.6875" y="10" dominant-baseline="central" font-size="12" font-family="Arial" fill="#858585">putative charged binding surface</text></g><g transform="translate(0,322)"><rect width="15" height="20" stroke="rgb(99, 148, 139)" fill="#8dd3c7" shape-rendering="crispEdges"/><text x="20" y="10" dominant-baseline="central" font-size="16" font-family="Arial" fill="black">other</text><text x="66.6875" y="10" dominant-baseline="central" font-size="12" font-family="Arial" fill="#858585">putative hydrophobic binding surface</text></g><g transform="translate(0,345)"><rect width="15" height="20" stroke="rgb(177, 126, 69)" fill="#fdb462" shape-rendering="crispEdges"/><text x="20" y="10" dominant-baseline="central" font-size="16" font-family="Arial" fill="black">other</text><text x="66.6875" y="10" dominant-baseline="central" font-size="12" font-family="Arial" fill="#858585">zinc cluster 2 [ion binding]</text></g><g transform="translate(0,368)"><rect width="15" height="20" stroke="rgb(160, 137, 104)" fill="#e5c494" shape-rendering="crispEdges"/><text x="20" y="10" dominant-baseline="central" font-size="16" font-family="Arial" fill="black">ZnF_TAZ</text><text x="96.375" y="10" dominant-baseline="central" font-size="12" font-family="Arial" fill="#858585">TAZ zinc finger, present in p300 and CBP</text></g><g transform="translate(0,391)"><rect width="15" height="20" stroke="rgb(116, 151, 59)" fill="#a6d854" shape-rendering="crispEdges"/><text x="20" y="10" dominant-baseline="central" font-size="16" font-family="Arial" fill="black">Med15</text><text x="78.921875" y="10" dominant-baseline="central" font-size="12" font-family="Arial" fill="#858585">ARC105 or Med15 subunit of Mediator complex non-fungal</text></g><g transform="translate(0,414)"><rect width="15" height="20" stroke="rgb(116, 151, 59)" fill="#a6d854" shape-rendering="crispEdges"/><text x="20" y="10" dominant-baseline="central" font-size="16" font-family="Arial" fill="black">Creb_binding</text><text x="125.1796875" y="10" dominant-baseline="central" font-size="12" font-family="Arial" fill="#858585">Creb binding</text></g></g><g transform="translate(744,232.846875)"><g transform="translate(0,0)"><circle cx="10" cy="10" r="10" fill="#7f7f7f"/><text x="30" y="10" dominant-baseline="central" font-size="16" font-family="Arial" fill="#7f7f7f">PROTEINDEL, n=1</text></g><g transform="translate(0,23)"><circle cx="10" cy="10" r="10" fill="#3987CC"/><text x="30" y="10" dominant-baseline="central" font-size="16" font-family="Arial" fill="#3987CC">MISSENSE, n=1</text></g><g transform="translate(0,46)"><circle cx="10" cy="10" r="10" fill="#ff7f0e"/><text x="30" y="10" dominant-baseline="central" font-size="16" font-family="Arial" fill="#ff7f0e">NONSENSE, n=4</text></g><g transform="translate(0,69)"><g transform="translate(5,0)"><circle cx="7" cy="12" r="7" fill="#b1b1b1"/></g><text x="30" y="10" dominant-baseline="central" font-size="16" font-family="Arial" fill="black">Somatic, n=6</text></g></g></svg>