<?xml version="1.0" encoding="utf-8"?>
<!-- Generator: Adobe Illustrator 25.3.1, SVG Export Plug-In . SVG Version: 6.00 Build 0)  -->
<svg version="1.1" id="Layer_1" xmlns="http://www.w3.org/2000/svg" xmlns:xlink="http://www.w3.org/1999/xlink" x="0px" y="0px"
	 viewBox="0 0 1052 406.5" style="enable-background:new 0 0 1052 406.5;" xml:space="preserve">
<style type="text/css">
	.st0{fill:#FFFF99;}
	.st1{font-family:'ArialMT';}
	.st2{font-size:13px;}
	.st3{fill:none;stroke:#000000;}
	.st4{font-size:12px;}
	.st5{fill:#FFFFFF;fill-opacity:0;}
	.st6{fill:#FFFFFF;}
	.st7{fill:#BEBADA;}
	.st8{fill:#B3B3B3;}
	.st9{fill:#FDB462;}
	.st10{fill:#FFD92F;}
	.st11{fill:#FB8072;}
	.st12{fill:#80B1D3;}
	.st13{fill:#A6D854;}
	.st14{fill:#E8E89E;}
	.st15{fill:#E5C494;}
	.st16{fill:none;stroke:#000000;stroke-dasharray:4,2;}
	.st17{fill:none;}
	.st18{font-size:11.6667px;}
	.st19{fill:#858585;fill-opacity:0;}
	.st20{fill:none;stroke:#8AB1D4;stroke-width:2;}
	.st21{font-family:'Arial-BoldMT';}
	.st22{font-size:14px;}
	.st23{fill:#3987CC;stroke:#FFFFFF;}
	.st24{fill:#3987CC;}
	.st25{fill:#FFFFFF;fill-opacity:0;stroke:#3987CC;stroke-opacity:0;}
	.st26{fill:none;stroke:#3987CC;}
	.st27{fill:#BEBADA;stroke:#858299;}
	.st28{font-size:16px;}
	.st29{fill:#858585;}
	.st30{fill:#B3B3B3;stroke:#7D7D7D;}
	.st31{fill:#FFD92F;stroke:#B39821;}
	.st32{fill:#FDB462;stroke:#B17E45;}
	.st33{fill:#FB8072;stroke:#B05A50;}
	.st34{fill:#A6D854;stroke:#74973B;}
	.st35{fill:#80B1D3;stroke:#5A7C94;}
	.st36{fill:#E8E89E;stroke:#A2A26F;}
	.st37{fill:#E5C494;stroke:#A08968;}
	.st38{fill:#B1B1B1;}
</style>
<g transform="translate(0,0)">
	<g transform="translate(142, 0)">
	</g>
	<rect x="928" class="st0" width="0" height="159.5"/>
	<g transform="translate(142, 23)">
		<g transform="translate(0,0)">
			<text transform="matrix(1 0 0 1 -93.2217 -10)" class="st1 st2">Protein length</text>
			<g>
				<g transform="translate(0,0)">
					<path shape-rendering="crispEdges" class="st3" d="M0.5-6v6.5h800V-6"/>
					<g transform="translate(106.52409638554218,0)">
						<line shape-rendering="crispEdges" class="st3" x1="0" y1="0" x2="0" y2="-6"/>
						<text transform="matrix(1 0 0 1 -10.0107 -9)" class="st1 st4">100</text>
					</g>
					<g transform="translate(213.61914323962515,0)">
						<line shape-rendering="crispEdges" class="st3" x1="0" y1="0" x2="0" y2="-6"/>
						<text transform="matrix(1 0 0 1 -10.0107 -9)" class="st1 st4">200</text>
					</g>
					<g transform="translate(320.71419009370817,0)">
						<line shape-rendering="crispEdges" class="st3" x1="0" y1="0" x2="0" y2="-6"/>
						<text transform="matrix(1 0 0 1 -10.0107 -9)" class="st1 st4">300</text>
					</g>
					<g transform="translate(427.80923694779113,0)">
						<line shape-rendering="crispEdges" class="st3" x1="0" y1="0" x2="0" y2="-6"/>
						<text transform="matrix(1 0 0 1 -10.0108 -9)" class="st1 st4">400</text>
					</g>
					<g transform="translate(534.9042838018742,0)">
						<line shape-rendering="crispEdges" class="st3" x1="0" y1="0" x2="0" y2="-6"/>
						<text transform="matrix(1 0 0 1 -10.0107 -9)" class="st1 st4">500</text>
					</g>
					<g transform="translate(641.9993306559571,0)">
						<line shape-rendering="crispEdges" class="st3" x1="0" y1="0" x2="0" y2="-6"/>
						<text transform="matrix(1 0 0 1 -10.0108 -9)" class="st1 st4">600</text>
					</g>
					<g transform="translate(749.0943775100401,0)">
						<line shape-rendering="crispEdges" class="st3" x1="0" y1="0" x2="0" y2="-6"/>
						<text transform="matrix(1 0 0 1 -10.0107 -9)" class="st1 st4">700</text>
					</g>
				</g>
			</g>
			<rect y="-23" class="st5" width="800" height="26"/>
		</g>
		<g transform="translate(800, 0)">
		</g>
	</g>
	<g transform="translate(0, 117.49531555175781)">
		<g transform="translate(942, 0)">
		</g>
		<g transform="translate(142, 0)">
			<rect y="0" class="st5" width="800" height="47"/>
			<g transform="translate(0,0)">
				<g>
					<line shape-rendering="crispEdges" class="st3" x1="0" y1="18.5" x2="800" y2="18.5"/>
					<rect y="0" class="st6" width="41.8" height="37"/>
					<rect x="40.7" y="0" class="st7" width="1.1" height="37"/>
					<rect x="41.8" y="0" class="st6" width="46.1" height="37"/>
					<rect x="41.8" y="0" class="st7" width="30" height="37"/>
					<rect x="87.8" y="0" class="st6" width="41.8" height="37"/>
					<rect x="129.6" y="0" class="st6" width="43.2" height="37"/>
					<rect x="168.1" y="0" class="st8" width="4.6" height="37"/>
					<rect x="172.8" y="0" class="st6" width="50.3" height="37"/>
					<rect x="172.8" y="0" class="st8" width="50.3" height="37"/>
					<rect x="223.1" y="0" class="st6" width="36.8" height="37"/>
					<rect x="223.1" y="0" class="st8" width="36.8" height="37"/>
					<rect x="259.9" y="0" class="st6" width="58.5" height="37"/>
					<rect x="259.9" y="0" class="st8" width="6.8" height="37"/>
					<rect x="318.4" y="0" class="st6" width="32.8" height="37"/>
					<rect x="351.3" y="0" class="st6" width="86" height="37"/>
					<rect x="437.3" y="0" class="st6" width="60.7" height="37"/>
					<rect x="498" y="0" class="st6" width="33.9" height="37"/>
					<rect x="531.9" y="0" class="st6" width="14.6" height="37"/>
					<rect x="546.5" y="0" class="st6" width="45" height="37"/>
					<rect x="591.5" y="0" class="st6" width="63.9" height="37"/>
					<rect x="651.1" y="0" class="st9" width="4.3" height="37"/>
					<rect x="597.6" y="0" class="st10" width="34.3" height="37"/>
					<rect x="655.4" y="0" class="st6" width="34.3" height="37"/>
					<rect x="655.4" y="0" class="st9" width="34.3" height="37"/>
					<rect x="657.6" y="0" class="st11" width="4.3" height="37"/>
					<rect x="666.1" y="0" class="st12" width="2.1" height="37"/>
					<rect x="666.1" y="0" class="st13" width="2.1" height="37"/>
					<rect x="667.2" y="0" class="st11" width="1.1" height="37"/>
					<rect x="672.6" y="0" class="st11" width="1.1" height="37"/>
					<rect x="685.4" y="0" class="st14" width="1.1" height="37"/>
					<rect x="662.9" y="0" class="st11" width="1.1" height="37"/>
					<rect x="670.4" y="0" class="st11" width="1.1" height="37"/>
					<rect x="655.4" y="0" class="st11" width="1.1" height="37"/>
					<rect x="689.7" y="0" class="st6" width="29.3" height="37"/>
					<rect x="689.7" y="0" class="st9" width="29.3" height="37"/>
					<rect x="712.2" y="0" class="st14" width="3.2" height="37"/>
					<rect x="696.1" y="0" class="st14" width="2.1" height="37"/>
					<rect x="702.5" y="0" class="st13" width="2.1" height="37"/>
					<rect x="702.5" y="0" class="st12" width="2.1" height="37"/>
					<rect x="710" y="0" class="st14" width="1.1" height="37"/>
					<rect x="704.7" y="0" class="st14" width="1.1" height="37"/>
					<rect x="700.4" y="0" class="st14" width="1.1" height="37"/>
					<rect x="706.8" y="0" class="st12" width="1.1" height="37"/>
					<rect x="709" y="0" class="st12" width="1.1" height="37"/>
					<rect x="709" y="0" class="st13" width="1.1" height="37"/>
					<rect x="706.8" y="0" class="st13" width="1.1" height="37"/>
					<rect x="711.1" y="0" class="st12" width="1.1" height="37"/>
					<rect x="711.1" y="0" class="st13" width="1.1" height="37"/>
					<rect x="692.9" y="0" class="st14" width="1.1" height="37"/>
					<rect x="719" y="0" class="st6" width="28.9" height="37"/>
					<rect x="719" y="0" class="st9" width="28.9" height="37"/>
					<rect x="732.5" y="0" class="st13" width="5.4" height="37"/>
					<rect x="732.5" y="0" class="st12" width="4.3" height="37"/>
					<rect x="726.1" y="0" class="st11" width="2.1" height="37"/>
					<rect x="725" y="0" class="st12" width="1.1" height="37"/>
					<rect x="725" y="0" class="st13" width="1.1" height="37"/>
					<rect x="730.4" y="0" class="st11" width="1.1" height="37"/>
					<rect x="745.4" y="0" class="st14" width="1.1" height="37"/>
					<rect x="747.9" y="0" class="st6" width="30.3" height="37"/>
					<rect x="747.9" y="0" class="st9" width="30.3" height="37"/>
					<rect x="776.4" y="0" class="st14" width="1.8" height="37"/>
					<rect x="774.3" y="0" class="st14" width="1.1" height="37"/>
					<rect x="776.4" y="0" class="st13" width="1.1" height="37"/>
					<rect x="751.8" y="0" class="st11" width="1.1" height="37"/>
					<rect x="776.4" y="0" class="st15" width="1.1" height="37"/>
					<rect x="768.9" y="0" class="st11" width="1.1" height="37"/>
					<rect x="778.2" y="0" class="st6" width="21.8" height="37"/>
					<rect x="778.2" y="0" class="st9" width="1.4" height="37"/>
					<rect x="778.2" y="0" class="st14" width="1.4" height="37"/>
					<line class="st3" x1="0" y1="0" x2="800" y2="0"/>
					<line class="st3" x1="0" y1="37" x2="800" y2="37"/>
					<line class="st3" x1="800" y1="0" x2="800" y2="37"/>
					<line class="st3" x1="0" y1="0" x2="0" y2="37"/>
					<line shape-rendering="crispEdges" class="st16" x1="41.8" y1="0" x2="41.8" y2="37"/>
					<line shape-rendering="crispEdges" class="st16" x1="87.8" y1="0" x2="87.8" y2="37"/>
					<line shape-rendering="crispEdges" class="st16" x1="129.6" y1="0" x2="129.6" y2="37"/>
					<line shape-rendering="crispEdges" class="st16" x1="172.8" y1="0" x2="172.8" y2="37"/>
					<line shape-rendering="crispEdges" class="st16" x1="223.1" y1="0" x2="223.1" y2="37"/>
					<line shape-rendering="crispEdges" class="st16" x1="259.9" y1="0" x2="259.9" y2="37"/>
					<line shape-rendering="crispEdges" class="st16" x1="318.4" y1="0" x2="318.4" y2="37"/>
					<line shape-rendering="crispEdges" class="st16" x1="351.3" y1="0" x2="351.3" y2="37"/>
					<line shape-rendering="crispEdges" class="st16" x1="437.3" y1="0" x2="437.3" y2="37"/>
					<line shape-rendering="crispEdges" class="st16" x1="498" y1="0" x2="498" y2="37"/>
					<line shape-rendering="crispEdges" class="st16" x1="531.9" y1="0" x2="531.9" y2="37"/>
					<line shape-rendering="crispEdges" class="st16" x1="546.5" y1="0" x2="546.5" y2="37"/>
					<line shape-rendering="crispEdges" class="st16" x1="591.5" y1="0" x2="591.5" y2="37"/>
					<line shape-rendering="crispEdges" class="st16" x1="655.4" y1="0" x2="655.4" y2="37"/>
					<line shape-rendering="crispEdges" class="st16" x1="689.7" y1="0" x2="689.7" y2="37"/>
					<line shape-rendering="crispEdges" class="st16" x1="719" y1="0" x2="719" y2="37"/>
					<line shape-rendering="crispEdges" class="st16" x1="747.9" y1="0" x2="747.9" y2="37"/>
					<line shape-rendering="crispEdges" class="st16" x1="778.2" y1="0" x2="778.2" y2="37"/>
					<g transform="translate(0,18.5)">
						<path shape-rendering="crispEdges" class="st17" d="M1,0v0.5h799.5V0"/>
						<g transform="translate(106.82615933820753,0)">
							<line shape-rendering="crispEdges" class="st3" x1="0" y1="0" x2="0" y2="0"/>
							<text transform="matrix(1 0 0 1 -9.7327 11.2833)" class="st1 st18">100</text>
						</g>
						<g transform="translate(214.01030599941134,0)">
							<line shape-rendering="crispEdges" class="st3" x1="0" y1="0" x2="0" y2="0"/>
							<text transform="matrix(1 0 0 1 -9.7327 11.2833)" class="st1 st18">200</text>
						</g>
						<g transform="translate(321.2151185386708,0)">
							<line shape-rendering="crispEdges" class="st3" x1="0" y1="0" x2="0" y2="0"/>
							<text transform="matrix(1 0 0 1 -9.7327 11.2833)" class="st1 st18">300</text>
						</g>
						<g transform="translate(428.18630075859,0)">
							<line shape-rendering="crispEdges" class="st3" x1="0" y1="0" x2="0" y2="0"/>
							<text transform="matrix(1 0 0 1 -9.7327 11.2833)" class="st1 st18">400</text>
						</g>
						<g transform="translate(535.4015108051253,0)">
							<line shape-rendering="crispEdges" class="st3" x1="0" y1="0" x2="0" y2="0"/>
							<text transform="matrix(1 0 0 1 -9.7327 11.2833)" class="st1 st18">500</text>
						</g>
						<g transform="translate(642.1153502900492,0)">
							<line shape-rendering="crispEdges" class="st3" x1="0" y1="0" x2="0" y2="0"/>
							<text transform="matrix(1 0 0 1 -9.7327 11.2833)" class="st1 st18">600</text>
						</g>
						<g transform="translate(749.6362274494804,0)">
							<line shape-rendering="crispEdges" class="st3" x1="0" y1="0" x2="0" y2="0"/>
							<text transform="matrix(1 0 0 1 -9.7327 11.2833)" class="st1 st18">700</text>
						</g>
					</g>
					<rect x="0" y="0" class="st19" width="41.8" height="37"/>
					<rect x="41.8" y="0" class="st19" width="46.1" height="37"/>
					<rect x="87.8" y="0" class="st19" width="41.8" height="37"/>
					<rect x="129.6" y="0" class="st19" width="43.2" height="37"/>
					<rect x="172.8" y="0" class="st19" width="50.3" height="37"/>
					<rect x="223.1" y="0" class="st19" width="36.8" height="37"/>
					<rect x="259.9" y="0" class="st19" width="58.5" height="37"/>
					<rect x="318.4" y="0" class="st19" width="32.8" height="37"/>
					<rect x="351.3" y="0" class="st19" width="86" height="37"/>
					<rect x="437.3" y="0" class="st19" width="60.7" height="37"/>
					<rect x="498" y="0" class="st19" width="33.9" height="37"/>
					<rect x="531.9" y="0" class="st19" width="14.6" height="37"/>
					<rect x="546.5" y="0" class="st19" width="45" height="37"/>
					<rect x="591.5" y="0" class="st19" width="63.9" height="37"/>
					<rect x="655.4" y="0" class="st19" width="34.3" height="37"/>
					<rect x="689.7" y="0" class="st19" width="29.3" height="37"/>
					<rect x="719" y="0" class="st19" width="28.9" height="37"/>
					<rect x="747.9" y="0" class="st19" width="30.3" height="37"/>
					<rect x="778.2" y="0" class="st19" width="21.8" height="37"/>
				</g>
			</g>
			<g transform="scale(0)">
				<polygon class="st5" points="0,0 0,0 0,0 				"/>
				<line class="st20" x1="0" y1="0" x2="0" y2="0"/>
			</g>
		</g>
		<g transform="translate(139, 0)">
			<text transform="matrix(1 0 0 1 -45.7861 7)" class="st21 st22">EZH2</text>
			<text transform="matrix(1 0 0 1 -109.6338 20)" class="st1 st22">NM_001203247</text>
		</g>
		<g transform="translate(952, 0)">
		</g>
	</g>
	<g transform="translate(0, 31)">
		<g transform="translate(942, 0)">
		</g>
		<g transform="translate(142, 0)">
			<rect x="0" class="st5" width="800" height="86.5"/>
			<g transform="translate(0,0)">
				<g transform="translate(685.5867919921875, 52.6953125)">
					<g transform="translate(0, -7)">
						<circle class="st23" cx="0" cy="0" r="6.5"/>
						<text transform="matrix(1 0 0 1 8 3.6)" class="st24 st1 st4">Y646N</text>
						<circle class="st25" cx="0" cy="0" r="6.5"/>
						<path class="st24" d="M0-7L0-7z"/>
					</g>
					<circle class="st5" cx="0" cy="-7" r="8"/>
					<path class="st26" d="M0,0L0,0L0,0v23.8"/>
				</g>
			</g>
			<g transform="scale(0)">
				<polygon class="st5" points="0,0 0,0 0,0 				"/>
				<line class="st20" x1="0" y1="0" x2="0" y2="0"/>
			</g>
		</g>
		<g transform="translate(139, 0)">
			<text transform="matrix(1 0 0 1 -129 7)" class="st21 st22">Important_mut.txt</text>
			<text transform="matrix(1 0 0 1 -75.3721 26)" class="st1 st22">1 mutation</text>
		</g>
		<g transform="translate(952, 0)">
		</g>
	</g>
</g>
<g transform="scale(0)">
	<polygon class="st6" points="0,0 0,0 0,0 	"/>
</g>
<g transform="translate(141,179.4953125)">
	<g transform="translate(0,0)">
		<rect x="0" y="0" shape-rendering="crispEdges" class="st27" width="15" height="20"/>
		<text transform="matrix(1 0 0 1 20 10)" class="st1 st28">EZH2_WD-Binding</text>
		<text transform="matrix(1 0 0 1 165.1562 10)" class="st29 st1 st4">WD repeat binding protein EZH2</text>
	</g>
	<g transform="translate(0,23)">
		<rect x="0" y="0" shape-rendering="crispEdges" class="st30" width="15" height="20"/>
		<text transform="matrix(1 0 0 1 20 10)" class="st1 st28">PRC2_HTH_1</text>
		<text transform="matrix(1 0 0 1 132.2578 10)" class="st29 st1 st4">Polycomb repressive complex 2 tri-helical domain</text>
	</g>
	<g transform="translate(0,46)">
		<rect x="0" y="0" shape-rendering="crispEdges" class="st31" width="15" height="20"/>
		<text transform="matrix(1 0 0 1 20 10)" class="st1 st28">preSET_CXC</text>
		<text transform="matrix(1 0 0 1 126.9219 10)" class="st29 st1 st4">CXC domain</text>
	</g>
	<g transform="translate(0,69)">
		<rect x="0" y="0" shape-rendering="crispEdges" class="st32" width="15" height="20"/>
		<text transform="matrix(1 0 0 1 20 10)" class="st1 st28">SET_EZH2</text>
		<text transform="matrix(1 0 0 1 110.9141 10)" class="st29 st1 st4">SET domain found in enhancer of zeste homolog 2 (EZH2) and similar proteins</text>
	</g>
	<g transform="translate(0,92)">
		<rect x="0" y="0" shape-rendering="crispEdges" class="st33" width="15" height="20"/>
		<text transform="matrix(1 0 0 1 20 10)" class="st1 st28">other</text>
		<text transform="matrix(1 0 0 1 66.6875 10)" class="st29 st1 st4">oligomer interface [polypeptide binding]</text>
	</g>
	<g transform="translate(0,115)">
		<rect x="0" y="0" shape-rendering="crispEdges" class="st34" width="15" height="20"/>
		<text transform="matrix(1 0 0 1 20 10)" class="st1 st28">other</text>
		<text transform="matrix(1 0 0 1 66.6875 10)" class="st29 st1 st4">SAM binding site</text>
	</g>
	<g transform="translate(0,138)">
		<rect x="0" y="0" shape-rendering="crispEdges" class="st35" width="15" height="20"/>
		<text transform="matrix(1 0 0 1 20 10)" class="st1 st28">inhibition</text>
		<text transform="matrix(1 0 0 1 93.1562 10)" class="st29 st1 st4">inhibitor binding site [chemical binding]</text>
	</g>
	<g transform="translate(0,161)">
		<rect x="0" y="0" shape-rendering="crispEdges" class="st36" width="15" height="20"/>
		<text transform="matrix(1 0 0 1 20 10)" class="st1 st28">other</text>
		<text transform="matrix(1 0 0 1 66.6875 10)" class="st29 st1 st4">polypeptide substrate binding site [polypeptide binding]</text>
	</g>
	<g transform="translate(0,184)">
		<rect x="0" y="0" shape-rendering="crispEdges" class="st37" width="15" height="20"/>
		<text transform="matrix(1 0 0 1 20 10)" class="st1 st28">active</text>
		<text transform="matrix(1 0 0 1 71.7969 10)" class="st29 st1 st4">catalytic residue [active]</text>
	</g>
</g>
<g transform="translate(744,179.4953125)">
	<g transform="translate(0,0)">
		<circle class="st24" cx="10" cy="10" r="10"/>
		<text transform="matrix(1 0 0 1 30 10)" class="st24 st1 st28">MISSENSE, n=1</text>
	</g>
	<g transform="translate(0,23)">
		<g transform="translate(5,0)">
			<circle class="st38" cx="7" cy="12" r="7"/>
		</g>
		<text transform="matrix(1 0 0 1 30 10)" class="st1 st28">Somatic, n=1</text>
	</g>
</g>
</svg>
