<svg xmlns="http://www.w3.org/2000/svg" width="1052" height="589.6220335109982"><g transform="translate(0,0)"><g transform="translate(142, 0)"/><rect fill="#FFFF99" x="932" width="2" height="227.62203351099822"/><g transform="translate(142, 23)"><g transform="translate(0,0)"><text text-anchor="end" x="-13" y="-10" dominant-baseline="central" font-size="13" font-family="Arial">Protein length</text><g><g transform="translate(0,0)" fill="none" font-size="10" font-family="sans-serif" text-anchor="middle"><path class="domain" stroke="black" d="M0.5,-6V0.5H800.5V-6" fill="none" stroke-width="1" shape-rendering="crispEdges"/><g class="tick" opacity="1" transform="translate(72.5837847598411,0)"><line stroke="black" y2="-6" shape-rendering="crispEdges"/><text fill="black" y="-9" dy="0em" font-family="Arial" font-size="12px" style="cursor: default;">500</text></g><g class="tick" opacity="1" transform="translate(144.81202600216685,0)"><line stroke="black" y2="-6" shape-rendering="crispEdges"/><text fill="black" y="-9" dy="0em" font-family="Arial" font-size="12px" style="cursor: default;">1000</text></g><g class="tick" opacity="1" transform="translate(217.04026724449258,0)"><line stroke="black" y2="-6" shape-rendering="crispEdges"/><text fill="black" y="-9" dy="0em" font-family="Arial" font-size="12px" style="cursor: default;">1500</text></g><g class="tick" opacity="1" transform="translate(289.26850848681835,0)"><line stroke="black" y2="-6" shape-rendering="crispEdges"/><text fill="black" y="-9" dy="0em" font-family="Arial" font-size="12px" style="cursor: default;">2000</text></g><g class="tick" opacity="1" transform="translate(361.4967497291441,0)"><line stroke="black" y2="-6" shape-rendering="crispEdges"/><text fill="black" y="-9" dy="0em" font-family="Arial" font-size="12px" style="cursor: default;">2500</text></g><g class="tick" opacity="1" transform="translate(433.7249909714698,0)"><line stroke="black" y2="-6" shape-rendering="crispEdges"/><text fill="black" y="-9" dy="0em" font-family="Arial" font-size="12px" style="cursor: default;">3000</text></g><g class="tick" opacity="1" transform="translate(505.9532322137956,0)"><line stroke="black" y2="-6" shape-rendering="crispEdges"/><text fill="black" y="-9" dy="0em" font-family="Arial" font-size="12px" style="cursor: default;">3500</text></g><g class="tick" opacity="1" transform="translate(578.1814734561214,0)"><line stroke="black" y2="-6" shape-rendering="crispEdges"/><text fill="black" y="-9" dy="0em" font-family="Arial" font-size="12px" style="cursor: default;">4000</text></g><g class="tick" opacity="1" transform="translate(650.409714698447,0)"><line stroke="black" y2="-6" shape-rendering="crispEdges"/><text fill="black" y="-9" dy="0em" font-family="Arial" font-size="12px" style="cursor: default;">4500</text></g><g class="tick" opacity="1" transform="translate(722.6379559407728,0)"><line stroke="black" y2="-6" shape-rendering="crispEdges"/><text fill="black" y="-9" dy="0em" font-family="Arial" font-size="12px" style="cursor: default;">5000</text></g><g class="tick" opacity="1" transform="translate(794.8661971830986,0)"><line stroke="black" y2="-6" shape-rendering="crispEdges"/><text fill="black" y="-9" dy="0em" font-family="Arial" font-size="12px" style="cursor: default;">5500</text></g></g></g><rect fill="white" fill-opacity="0" x="0" y="-23" width="800" height="26"/></g><g transform="translate(800, 0)"/></g><g transform="translate(0, 185.62203979492188)"><g transform="translate(942, 0)"/><g transform="translate(142, 0)"><rect fill="white" fill-opacity="0" width="800" height="47"/><g transform="translate(0,0)" style="cursor: default;"><g><line x1="0" y1="18.5" x2="800.0000000000002" y2="18.5" stroke="black" shape-rendering="crispEdges"/><rect x="0" width="2.359455880582641" height="37" fill="white"/><rect x="2.359455880582641" width="6.11532442518358" height="37" fill="white"/><rect x="8.47478030576622" width="10.786084025520646" height="37" fill="white"/><rect x="19.212712170458648" width="1" height="37" fill="#8dd3c7"/><rect x="19.260864331286868" width="5.296737691103888" height="37" fill="white"/><rect x="19.260864331286868" width="5.296737691103888" height="37" fill="#8dd3c7"/><rect x="24.557602022390757" width="7.848802214999399" height="37" fill="white"/><rect x="24.557602022390757" width="6.789454676778621" height="37" fill="#8dd3c7"/><rect x="25.85771036475262" width="1" height="37" fill="#bebada"/><rect x="27.302275189599136" width="1" height="37" fill="#bebada"/><rect x="24.557602022390757" width="1" height="37" fill="#bebada"/><rect x="30.480317804261468" width="1" height="37" fill="#bebada"/><rect x="32.406404237390156" width="7.99325869748405" height="37" fill="white"/><rect x="39.58107620079451" width="1" height="37" fill="#E8E89E"/><rect x="32.791621524015895" width="6.6449981942939695" height="37" fill="#bebada"/><rect x="34.52509931383171" width="1" height="37" fill="#bebada"/><rect x="35.68075117370892" width="1" height="37" fill="#bebada"/><rect x="33.3694474539545" width="1" height="37" fill="#8dd3c7"/><rect x="35.53629469122427" width="1" height="37" fill="#8dd3c7"/><rect x="39.58107620079451" width="1" height="37" fill="#fb8072"/><rect x="38.56988082340195" width="1" height="37" fill="#bebada"/><rect x="40.15890213073312" width="1" height="37" fill="#8dd3c7"/><rect x="35.102925243770315" width="1" height="37" fill="#8dd3c7"/><rect x="39.292163235825214" width="1" height="37" fill="#8dd3c7"/><rect x="36.69194655110148" width="1" height="37" fill="#8dd3c7"/><rect x="32.791621524015895" width="1" height="37" fill="#bebada"/><rect x="39.72553268327916" width="1" height="37" fill="#8dd3c7"/><rect x="36.25857710364753" width="1" height="37" fill="#8dd3c7"/><rect x="32.936078006500544" width="1" height="37" fill="#8dd3c7"/><rect x="38.85879378837126" width="1" height="37" fill="#8dd3c7"/><rect x="40.39966293487421" width="5.537498495244974" height="37" fill="white"/><rect x="40.39966293487421" width="5.537498495244974" height="37" fill="#E8E89E"/><rect x="41.459010473094985" width="1" height="37" fill="#fb8072"/><rect x="43.481401227880106" width="1" height="37" fill="#8dd3c7"/><rect x="41.89237992054894" width="1" height="37" fill="#8dd3c7"/><rect x="45.64824846514988" width="1" height="37" fill="#8dd3c7"/><rect x="42.470205850487545" width="1" height="37" fill="#fb8072"/><rect x="42.325749368002896" width="1" height="37" fill="#8dd3c7"/><rect x="45.35933550018058" width="1" height="37" fill="#fb8072"/><rect x="43.04803178042615" width="1" height="37" fill="#8dd3c7"/><rect x="45.93716143011918" width="7.608041410858313" height="37" fill="white"/><rect x="45.93716143011918" width="1" height="37" fill="#E8E89E"/><rect x="46.08161791260383" width="1" height="37" fill="#8dd3c7"/><rect x="53.545202840977495" width="7.030215480919707" height="37" fill="white"/><rect x="60.5754183218972" width="74.10617551462622" height="37" fill="white"/><rect x="134.6815938365234" width="53.40074635849284" height="37" fill="white"/><rect x="188.08234019501623" width="5.489346334416757" height="37" fill="white"/><rect x="193.57168652943298" width="5.3448898519321055" height="37" fill="white"/><rect x="198.91657638136508" width="5.055976886962803" height="37" fill="white"/><rect x="198.91657638136508" width="5.055976886962803" height="37" fill="#a6d854"/><rect x="201.08342361863484" width="1" height="37" fill="#bebada"/><rect x="203.25027085590463" width="1" height="37" fill="#8dd3c7"/><rect x="202.81690140845066" width="1" height="37" fill="#8dd3c7"/><rect x="202.23907547851206" width="1" height="37" fill="#bebada"/><rect x="199.06103286384973" width="1" height="37" fill="#bebada"/><rect x="199.63885879378833" width="1" height="37" fill="#8dd3c7"/><rect x="201.66124954857347" width="1" height="37" fill="#8dd3c7"/><rect x="199.2054893463344" width="1" height="37" fill="#8dd3c7"/><rect x="202.0946189960274" width="1" height="37" fill="#8dd3c7"/><rect x="203.97255326832789" width="8.763693270735525" height="37" fill="white"/><rect x="203.97255326832789" width="2.311303719754424" height="37" fill="#a6d854"/><rect x="206.2838569880823" width="6.452389550981101" height="37" fill="#b3b3b3"/><rect x="208.01733477789813" width="1" height="37" fill="#bebada"/><rect x="205.56157457565905" width="1" height="37" fill="#8dd3c7"/><rect x="205.27266161068974" width="1" height="37" fill="#bebada"/><rect x="206.2838569880823" width="1" height="37" fill="#bebada"/><rect x="209.0285301552907" width="1" height="37" fill="#8dd3c7"/><rect x="205.99494402311302" width="1" height="37" fill="#8dd3c7"/><rect x="208.59516070783673" width="1" height="37" fill="#8dd3c7"/><rect x="209.75081256771395" width="1" height="37" fill="#8dd3c7"/><rect x="212.06211628746837" width="1" height="37" fill="#bebada"/><rect x="212.35102925243768" width="1" height="37" fill="#8dd3c7"/><rect x="210.1841820151679" width="1" height="37" fill="#8dd3c7"/><rect x="206.8616829180209" width="1" height="37" fill="#8dd3c7"/><rect x="206.42831347056696" width="1" height="37" fill="#8dd3c7"/><rect x="209.17298663777535" width="1" height="37" fill="#bebada"/><rect x="212.73624653906342" width="7.945106536655833" height="37" fill="white"/><rect x="217.4070061394005" width="3.2743469363187674" height="37" fill="#fdb462"/><rect x="212.73624653906342" width="1" height="37" fill="#b3b3b3"/><rect x="219.28494041170094" width="1" height="37" fill="#bebada"/><rect x="219.86276634163954" width="1" height="37" fill="#8dd3c7"/><rect x="220.2961357890935" width="1" height="37" fill="#8dd3c7"/><rect x="217.4070061394005" width="1" height="37" fill="#bebada"/><rect x="217.9848320693391" width="1" height="37" fill="#8dd3c7"/><rect x="212.78439869989163" width="1" height="37" fill="#8dd3c7"/><rect x="220.44059227157817" width="1" height="37" fill="#bebada"/><rect x="217.55146262188512" width="1" height="37" fill="#8dd3c7"/><rect x="220.68135307571924" width="5.296737691103888" height="37" fill="white"/><rect x="220.68135307571924" width="4.092933670398459" height="37" fill="#fdb462"/><rect x="221.4517876489707" width="1" height="37" fill="#8dd3c7"/><rect x="224.62983026363304" width="1" height="37" fill="#8dd3c7"/><rect x="224.1964608161791" width="1" height="37" fill="#8dd3c7"/><rect x="223.90754785120978" width="1" height="37" fill="#bebada"/><rect x="221.01841820151677" width="1" height="37" fill="#8dd3c7"/><rect x="225.97809076682313" width="2.311303719754424" height="37" fill="white"/><rect x="228.28939448657755" width="10.689779703864211" height="37" fill="white"/><rect x="238.97917419044177" width="5.77825929938606" height="37" fill="white"/><rect x="244.75743348982783" width="5.055976886962803" height="37" fill="white"/><rect x="249.81341037679064" width="6.307933068496449" height="37" fill="white"/><rect x="256.1213434452871" width="7.126519802576141" height="37" fill="white"/><rect x="263.2478632478632" width="3.178042614662333" height="37" fill="white"/><rect x="266.42590586252555" width="5.3448898519321055" height="37" fill="white"/><rect x="271.7707957144577" width="6.6449981942939695" height="37" fill="white"/><rect x="278.41579390875165" width="4.092933670398459" height="37" fill="white"/><rect x="282.5087275791501" width="11.652822920428555" height="37" fill="white"/><rect x="291.802094618996" width="2.359455880582641" height="37" fill="#80b1d3"/><rect x="294.16155049957865" width="3.5632599012880704" height="37" fill="white"/><rect x="294.16155049957865" width="3.5632599012880704" height="37" fill="#80b1d3"/><rect x="297.7248104008667" width="2.4557602022390754" height="37" fill="white"/><rect x="297.7248104008667" width="1.5890213073311665" height="37" fill="#80b1d3"/><rect x="300.18057060310576" width="87.25171542072951" height="37" fill="white"/><rect x="387.4322860238353" width="8.811845431563741" height="37" fill="white"/><rect x="396.24413145539904" width="6.596846033465752" height="37" fill="white"/><rect x="402.8409774888648" width="89.80377994462502" height="37" fill="white"/><rect x="492.6447574334898" width="5.970867942698929" height="37" fill="white"/><rect x="498.61562537618875" width="4.092933670398459" height="37" fill="white"/><rect x="502.7085590465872" width="3.2261947754905504" height="37" fill="white"/><rect x="505.93475382207777" width="11.2194534729746" height="37" fill="white"/><rect x="517.1542072950524" width="134.3445287107259" height="37" fill="white"/><rect x="651.4987360057783" width="6.789454676778621" height="37" fill="white"/><rect x="658.2881906825569" width="8.089563019140485" height="37" fill="white"/><rect x="666.3777537016974" width="7.704345732514747" height="37" fill="white"/><rect x="674.0820994342122" width="3.6595642229445047" height="37" fill="white"/><rect x="677.7416636571567" width="8.474780305766222" height="37" fill="white"/><rect x="686.2164439629229" width="6.307933068496449" height="37" fill="white"/><rect x="692.5243770314194" width="6.4042373901528835" height="37" fill="white"/><rect x="698.9286144215722" width="6.1634765860117975" height="37" fill="white"/><rect x="705.092091007584" width="54.94161550499579" height="37" fill="white"/><rect x="726.7605633802817" width="15.456843625857712" height="37" fill="#e5c494"/><rect x="756.8075117370893" width="3.2261947754905504" height="37" fill="#ffd92f"/><rect x="748.4290357529795" width="7.367280606717227" height="37" fill="#fb8072"/><rect x="736.583604189238" width="1" height="37" fill="#bebada"/><rect x="726.7605633802817" width="1" height="37" fill="#8dd3c7"/><rect x="738.6059949440232" width="1" height="37" fill="#8dd3c7"/><rect x="737.1614301191767" width="1" height="37" fill="#8dd3c7"/><rect x="738.0281690140846" width="1" height="37" fill="#bebada"/><rect x="737.8837125315999" width="1" height="37" fill="#8dd3c7"/><rect x="741.7840375586856" width="1" height="37" fill="#8dd3c7"/><rect x="741.3506681112316" width="1" height="37" fill="#8dd3c7"/><rect x="739.0393643914772" width="1" height="37" fill="#8dd3c7"/><rect x="727.1939328277357" width="1" height="37" fill="#8dd3c7"/><rect x="741.0617551462623" width="1" height="37" fill="#bebada"/><rect x="730.6608884073673" width="1" height="37" fill="#8dd3c7"/><rect x="735.4279523293609" width="1" height="37" fill="#8dd3c7"/><rect x="731.0942578548213" width="1" height="37" fill="#8dd3c7"/><rect x="735.2834958468762" width="1" height="37" fill="#bebada"/><rect x="735.8613217768147" width="1" height="37" fill="#8dd3c7"/><rect x="760.0337065125798" width="6.596846033465752" height="37" fill="white"/><rect x="760.0337065125798" width="6.596846033465752" height="37" fill="#ffd92f"/><rect x="766.6305525460456" width="6.307933068496449" height="37" fill="white"/><rect x="766.6305525460456" width="2.88912964969303" height="37" fill="#ffd92f"/><rect x="772.9384856145421" width="13.77151799687011" height="37" fill="white"/><rect x="779.4871794871796" width="7.2228241242325755" height="37" fill="#80b1d3"/><rect x="786.7100036114122" width="3.5632599012880704" height="37" fill="white"/><rect x="786.7100036114122" width="3.5632599012880704" height="37" fill="#80b1d3"/><rect x="790.2732635127003" width="5.248585530275672" height="37" fill="white"/><rect x="790.2732635127003" width="5.248585530275672" height="37" fill="#80b1d3"/><rect x="795.521849042976" width="4.478150957024196" height="37" fill="white"/><rect x="795.521849042976" width="1.733477789815818" height="37" fill="#80b1d3"/><line x1="0" x2="800.0000000000002" stroke="black"/><line x1="0" x2="800.0000000000002" y1="37" y2="37" stroke="black"/><line x1="800.0000000000002" x2="800.0000000000002" y2="37" stroke="black"/><line x1="0" x2="0" y2="37" stroke="black"/><line class="exonboundaryclass" x1="2.359455880582641" x2="2.359455880582641" y1="0" y2="37" stroke="black" stroke-dasharray="4,2" shape-rendering="crispEdges" stroke-opacity="1"/><line class="exonboundaryclass" x1="8.47478030576622" x2="8.47478030576622" y1="0" y2="37" stroke="black" stroke-dasharray="4,2" shape-rendering="crispEdges" stroke-opacity="1"/><line class="exonboundaryclass" x1="19.260864331286868" x2="19.260864331286868" y1="0" y2="37" stroke="black" stroke-dasharray="4,2" shape-rendering="crispEdges" stroke-opacity="1"/><line class="exonboundaryclass" x1="24.557602022390757" x2="24.557602022390757" y1="0" y2="37" stroke="black" stroke-dasharray="4,2" shape-rendering="crispEdges" stroke-opacity="1"/><line class="exonboundaryclass" x1="32.406404237390156" x2="32.406404237390156" y1="0" y2="37" stroke="black" stroke-dasharray="4,2" shape-rendering="crispEdges" stroke-opacity="1"/><line class="exonboundaryclass" x1="40.39966293487421" x2="40.39966293487421" y1="0" y2="37" stroke="black" stroke-dasharray="4,2" shape-rendering="crispEdges" stroke-opacity="1"/><line class="exonboundaryclass" x1="45.93716143011918" x2="45.93716143011918" y1="0" y2="37" stroke="black" stroke-dasharray="4,2" shape-rendering="crispEdges" stroke-opacity="1"/><line class="exonboundaryclass" x1="53.545202840977495" x2="53.545202840977495" y1="0" y2="37" stroke="black" stroke-dasharray="4,2" shape-rendering="crispEdges" stroke-opacity="1"/><line class="exonboundaryclass" x1="60.5754183218972" x2="60.5754183218972" y1="0" y2="37" stroke="black" stroke-dasharray="4,2" shape-rendering="crispEdges" stroke-opacity="1"/><line class="exonboundaryclass" x1="134.6815938365234" x2="134.6815938365234" y1="0" y2="37" stroke="black" stroke-dasharray="4,2" shape-rendering="crispEdges" stroke-opacity="1"/><line class="exonboundaryclass" x1="188.08234019501623" x2="188.08234019501623" y1="0" y2="37" stroke="black" stroke-dasharray="4,2" shape-rendering="crispEdges" stroke-opacity="1"/><line class="exonboundaryclass" x1="193.57168652943298" x2="193.57168652943298" y1="0" y2="37" stroke="black" stroke-dasharray="4,2" shape-rendering="crispEdges" stroke-opacity="1"/><line class="exonboundaryclass" x1="198.91657638136508" x2="198.91657638136508" y1="0" y2="37" stroke="black" stroke-dasharray="4,2" shape-rendering="crispEdges" stroke-opacity="1"/><line class="exonboundaryclass" x1="203.97255326832789" x2="203.97255326832789" y1="0" y2="37" stroke="black" stroke-dasharray="4,2" shape-rendering="crispEdges" stroke-opacity="1"/><line class="exonboundaryclass" x1="212.73624653906342" x2="212.73624653906342" y1="0" y2="37" stroke="black" stroke-dasharray="4,2" shape-rendering="crispEdges" stroke-opacity="1"/><line class="exonboundaryclass" x1="220.68135307571924" x2="220.68135307571924" y1="0" y2="37" stroke="black" stroke-dasharray="4,2" shape-rendering="crispEdges" stroke-opacity="1"/><line class="exonboundaryclass" x1="225.97809076682313" x2="225.97809076682313" y1="0" y2="37" stroke="black" stroke-dasharray="4,2" shape-rendering="crispEdges" stroke-opacity="1"/><line class="exonboundaryclass" x1="228.28939448657755" x2="228.28939448657755" y1="0" y2="37" stroke="black" stroke-dasharray="4,2" shape-rendering="crispEdges" stroke-opacity="1"/><line class="exonboundaryclass" x1="238.97917419044177" x2="238.97917419044177" y1="0" y2="37" stroke="black" stroke-dasharray="4,2" shape-rendering="crispEdges" stroke-opacity="1"/><line class="exonboundaryclass" x1="244.75743348982783" x2="244.75743348982783" y1="0" y2="37" stroke="black" stroke-dasharray="4,2" shape-rendering="crispEdges" stroke-opacity="1"/><line class="exonboundaryclass" x1="249.81341037679064" x2="249.81341037679064" y1="0" y2="37" stroke="black" stroke-dasharray="4,2" shape-rendering="crispEdges" stroke-opacity="1"/><line class="exonboundaryclass" x1="256.1213434452871" x2="256.1213434452871" y1="0" y2="37" stroke="black" stroke-dasharray="4,2" shape-rendering="crispEdges" stroke-opacity="1"/><line class="exonboundaryclass" x1="263.2478632478632" x2="263.2478632478632" y1="0" y2="37" stroke="black" stroke-dasharray="4,2" shape-rendering="crispEdges" stroke-opacity="1"/><line class="exonboundaryclass" x1="266.42590586252555" x2="266.42590586252555" y1="0" y2="37" stroke="black" stroke-dasharray="4,2" shape-rendering="crispEdges" stroke-opacity="1"/><line class="exonboundaryclass" x1="271.7707957144577" x2="271.7707957144577" y1="0" y2="37" stroke="black" stroke-dasharray="4,2" shape-rendering="crispEdges" stroke-opacity="1"/><line class="exonboundaryclass" x1="278.41579390875165" x2="278.41579390875165" y1="0" y2="37" stroke="black" stroke-dasharray="4,2" shape-rendering="crispEdges" stroke-opacity="1"/><line class="exonboundaryclass" x1="282.5087275791501" x2="282.5087275791501" y1="0" y2="37" stroke="black" stroke-dasharray="4,2" shape-rendering="crispEdges" stroke-opacity="1"/><line class="exonboundaryclass" x1="294.16155049957865" x2="294.16155049957865" y1="0" y2="37" stroke="black" stroke-dasharray="4,2" shape-rendering="crispEdges" stroke-opacity="1"/><line class="exonboundaryclass" x1="297.7248104008667" x2="297.7248104008667" y1="0" y2="37" stroke="black" stroke-dasharray="4,2" shape-rendering="crispEdges" stroke-opacity="1"/><line class="exonboundaryclass" x1="300.18057060310576" x2="300.18057060310576" y1="0" y2="37" stroke="black" stroke-dasharray="4,2" shape-rendering="crispEdges" stroke-opacity="1"/><line class="exonboundaryclass" x1="387.4322860238353" x2="387.4322860238353" y1="0" y2="37" stroke="black" stroke-dasharray="4,2" shape-rendering="crispEdges" stroke-opacity="1"/><line class="exonboundaryclass" x1="396.24413145539904" x2="396.24413145539904" y1="0" y2="37" stroke="black" stroke-dasharray="4,2" shape-rendering="crispEdges" stroke-opacity="1"/><line class="exonboundaryclass" x1="402.8409774888648" x2="402.8409774888648" y1="0" y2="37" stroke="black" stroke-dasharray="4,2" shape-rendering="crispEdges" stroke-opacity="1"/><line class="exonboundaryclass" x1="492.6447574334898" x2="492.6447574334898" y1="0" y2="37" stroke="black" stroke-dasharray="4,2" shape-rendering="crispEdges" stroke-opacity="1"/><line class="exonboundaryclass" x1="498.61562537618875" x2="498.61562537618875" y1="0" y2="37" stroke="black" stroke-dasharray="4,2" shape-rendering="crispEdges" stroke-opacity="1"/><line class="exonboundaryclass" x1="502.7085590465872" x2="502.7085590465872" y1="0" y2="37" stroke="black" stroke-dasharray="4,2" shape-rendering="crispEdges" stroke-opacity="1"/><line class="exonboundaryclass" x1="505.93475382207777" x2="505.93475382207777" y1="0" y2="37" stroke="black" stroke-dasharray="4,2" shape-rendering="crispEdges" stroke-opacity="1"/><line class="exonboundaryclass" x1="517.1542072950524" x2="517.1542072950524" y1="0" y2="37" stroke="black" stroke-dasharray="4,2" shape-rendering="crispEdges" stroke-opacity="1"/><line class="exonboundaryclass" x1="651.4987360057783" x2="651.4987360057783" y1="0" y2="37" stroke="black" stroke-dasharray="4,2" shape-rendering="crispEdges" stroke-opacity="1"/><line class="exonboundaryclass" x1="658.2881906825569" x2="658.2881906825569" y1="0" y2="37" stroke="black" stroke-dasharray="4,2" shape-rendering="crispEdges" stroke-opacity="1"/><line class="exonboundaryclass" x1="666.3777537016974" x2="666.3777537016974" y1="0" y2="37" stroke="black" stroke-dasharray="4,2" shape-rendering="crispEdges" stroke-opacity="1"/><line class="exonboundaryclass" x1="674.0820994342122" x2="674.0820994342122" y1="0" y2="37" stroke="black" stroke-dasharray="4,2" shape-rendering="crispEdges" stroke-opacity="1"/><line class="exonboundaryclass" x1="677.7416636571567" x2="677.7416636571567" y1="0" y2="37" stroke="black" stroke-dasharray="4,2" shape-rendering="crispEdges" stroke-opacity="1"/><line class="exonboundaryclass" x1="686.2164439629229" x2="686.2164439629229" y1="0" y2="37" stroke="black" stroke-dasharray="4,2" shape-rendering="crispEdges" stroke-opacity="1"/><line class="exonboundaryclass" x1="692.5243770314194" x2="692.5243770314194" y1="0" y2="37" stroke="black" stroke-dasharray="4,2" shape-rendering="crispEdges" stroke-opacity="1"/><line class="exonboundaryclass" x1="698.9286144215722" x2="698.9286144215722" y1="0" y2="37" stroke="black" stroke-dasharray="4,2" shape-rendering="crispEdges" stroke-opacity="1"/><line class="exonboundaryclass" x1="705.092091007584" x2="705.092091007584" y1="0" y2="37" stroke="black" stroke-dasharray="4,2" shape-rendering="crispEdges" stroke-opacity="1"/><line class="exonboundaryclass" x1="760.0337065125798" x2="760.0337065125798" y1="0" y2="37" stroke="black" stroke-dasharray="4,2" shape-rendering="crispEdges" stroke-opacity="1"/><line class="exonboundaryclass" x1="766.6305525460456" x2="766.6305525460456" y1="0" y2="37" stroke="black" stroke-dasharray="4,2" shape-rendering="crispEdges" stroke-opacity="1"/><line class="exonboundaryclass" x1="772.9384856145421" x2="772.9384856145421" y1="0" y2="37" stroke="black" stroke-dasharray="4,2" shape-rendering="crispEdges" stroke-opacity="1"/><line class="exonboundaryclass" x1="786.7100036114122" x2="786.7100036114122" y1="0" y2="37" stroke="black" stroke-dasharray="4,2" shape-rendering="crispEdges" stroke-opacity="1"/><line class="exonboundaryclass" x1="790.2732635127003" x2="790.2732635127003" y1="0" y2="37" stroke="black" stroke-dasharray="4,2" shape-rendering="crispEdges" stroke-opacity="1"/><line class="exonboundaryclass" x1="795.521849042976" x2="795.521849042976" y1="0" y2="37" stroke="black" stroke-dasharray="4,2" shape-rendering="crispEdges" stroke-opacity="1"/><g transform="translate(0,18.5)" fill="none" font-size="10" font-family="sans-serif" text-anchor="middle"><path class="domain" stroke="none" d="M0.5722282412423257,0V0.5H800.5000000000002V0" fill="none" stroke-width="0" shape-rendering="crispEdges"/><g class="tick" opacity="1" transform="translate(72.65225844663289,0)"><line stroke="black" y2="0" shape-rendering="crispEdges"/><text fill="black" y="3" dy="0.71em" font-family="Arial" font-size="11.666666666666666px" style="cursor: default;">500</text></g><g class="tick" opacity="1" transform="translate(144.87117507540043,0)"><line stroke="black" y2="0" shape-rendering="crispEdges"/><text fill="black" y="3" dy="0.71em" font-family="Arial" font-size="11.666666666666666px" style="cursor: default;">1000</text></g><g class="tick" opacity="1" transform="translate(217.12431465248363,0)"><line stroke="black" y2="0" shape-rendering="crispEdges"/><text fill="black" y="3" dy="0.71em" font-family="Arial" font-size="11.666666666666666px" style="cursor: default;">1500</text></g><g class="tick" opacity="1" transform="translate(289.32765836339127,0)"><line stroke="black" y2="0" shape-rendering="crispEdges"/><text fill="black" y="3" dy="0.71em" font-family="Arial" font-size="11.666666666666666px" style="cursor: default;">2000</text></g><g class="tick" opacity="1" transform="translate(361.5186334512423,0)"><line stroke="black" y2="0" shape-rendering="crispEdges"/><text fill="black" y="3" dy="0.71em" font-family="Arial" font-size="11.666666666666666px" style="cursor: default;">2500</text></g><g class="tick" opacity="1" transform="translate(433.78905192498326,0)"><line stroke="black" y2="0" shape-rendering="crispEdges"/><text fill="black" y="3" dy="0.71em" font-family="Arial" font-size="11.666666666666666px" style="cursor: default;">3000</text></g><g class="tick" opacity="1" transform="translate(506.00466747649847,0)"><line stroke="black" y2="0" shape-rendering="crispEdges"/><text fill="black" y="3" dy="0.71em" font-family="Arial" font-size="11.666666666666666px" style="cursor: default;">3500</text></g><g class="tick" opacity="1" transform="translate(578.2211601564169,0)"><line stroke="black" y2="0" shape-rendering="crispEdges"/><text fill="black" y="3" dy="0.71em" font-family="Arial" font-size="11.666666666666666px" style="cursor: default;">4000</text></g><g class="tick" opacity="1" transform="translate(650.410569010978,0)"><line stroke="black" y2="0" shape-rendering="crispEdges"/><text fill="black" y="3" dy="0.71em" font-family="Arial" font-size="11.666666666666666px" style="cursor: default;">4500</text></g><g class="tick" opacity="1" transform="translate(722.7027079254656,0)"><line stroke="black" y2="0" shape-rendering="crispEdges"/><text fill="black" y="3" dy="0.71em" font-family="Arial" font-size="11.666666666666666px" style="cursor: default;">5000</text></g><g class="tick" opacity="1" transform="translate(794.8818141001241,0)"><line stroke="black" y2="0" shape-rendering="crispEdges"/><text fill="black" y="3" dy="0.71em" font-family="Arial" font-size="11.666666666666666px" style="cursor: default;">5500</text></g></g><rect x="0" width="2.359455880582641" height="37" fill="#858585" fill-opacity="0"/><rect x="2.359455880582641" width="6.11532442518358" height="37" fill="#858585" fill-opacity="0"/><rect x="8.47478030576622" width="10.786084025520646" height="37" fill="#858585" fill-opacity="0"/><rect x="19.260864331286868" width="5.296737691103888" height="37" fill="#858585" fill-opacity="0"/><rect x="24.557602022390757" width="7.848802214999399" height="37" fill="#858585" fill-opacity="0"/><rect x="32.406404237390156" width="7.99325869748405" height="37" fill="#858585" fill-opacity="0"/><rect x="40.39966293487421" width="5.537498495244974" height="37" fill="#858585" fill-opacity="0"/><rect x="45.93716143011918" width="7.608041410858313" height="37" fill="#858585" fill-opacity="0"/><rect x="53.545202840977495" width="7.030215480919707" height="37" fill="#858585" fill-opacity="0"/><rect x="60.5754183218972" width="74.10617551462622" height="37" fill="#858585" fill-opacity="0"/><rect x="134.6815938365234" width="53.40074635849284" height="37" fill="#858585" fill-opacity="0"/><rect x="188.08234019501623" width="5.489346334416757" height="37" fill="#858585" fill-opacity="0"/><rect x="193.57168652943298" width="5.3448898519321055" height="37" fill="#858585" fill-opacity="0"/><rect x="198.91657638136508" width="5.055976886962803" height="37" fill="#858585" fill-opacity="0"/><rect x="203.97255326832789" width="8.763693270735525" height="37" fill="#858585" fill-opacity="0"/><rect x="212.73624653906342" width="7.945106536655833" height="37" fill="#858585" fill-opacity="0"/><rect x="220.68135307571924" width="5.296737691103888" height="37" fill="#858585" fill-opacity="0"/><rect x="225.97809076682313" width="2.311303719754424" height="37" fill="#858585" fill-opacity="0"/><rect x="228.28939448657755" width="10.689779703864211" height="37" fill="#858585" fill-opacity="0"/><rect x="238.97917419044177" width="5.77825929938606" height="37" fill="#858585" fill-opacity="0"/><rect x="244.75743348982783" width="5.055976886962803" height="37" fill="#858585" fill-opacity="0"/><rect x="249.81341037679064" width="6.307933068496449" height="37" fill="#858585" fill-opacity="0"/><rect x="256.1213434452871" width="7.126519802576141" height="37" fill="#858585" fill-opacity="0"/><rect x="263.2478632478632" width="3.178042614662333" height="37" fill="#858585" fill-opacity="0"/><rect x="266.42590586252555" width="5.3448898519321055" height="37" fill="#858585" fill-opacity="0"/><rect x="271.7707957144577" width="6.6449981942939695" height="37" fill="#858585" fill-opacity="0"/><rect x="278.41579390875165" width="4.092933670398459" height="37" fill="#858585" fill-opacity="0"/><rect x="282.5087275791501" width="11.652822920428555" height="37" fill="#858585" fill-opacity="0"/><rect x="294.16155049957865" width="3.5632599012880704" height="37" fill="#858585" fill-opacity="0"/><rect x="297.7248104008667" width="2.4557602022390754" height="37" fill="#858585" fill-opacity="0"/><rect x="300.18057060310576" width="87.25171542072951" height="37" fill="#858585" fill-opacity="0"/><rect x="387.4322860238353" width="8.811845431563741" height="37" fill="#858585" fill-opacity="0"/><rect x="396.24413145539904" width="6.596846033465752" height="37" fill="#858585" fill-opacity="0"/><rect x="402.8409774888648" width="89.80377994462502" height="37" fill="#858585" fill-opacity="0"/><rect x="492.6447574334898" width="5.970867942698929" height="37" fill="#858585" fill-opacity="0"/><rect x="498.61562537618875" width="4.092933670398459" height="37" fill="#858585" fill-opacity="0"/><rect x="502.7085590465872" width="3.2261947754905504" height="37" fill="#858585" fill-opacity="0"/><rect x="505.93475382207777" width="11.2194534729746" height="37" fill="#858585" fill-opacity="0"/><rect x="517.1542072950524" width="134.3445287107259" height="37" fill="#858585" fill-opacity="0"/><rect x="651.4987360057783" width="6.789454676778621" height="37" fill="#858585" fill-opacity="0"/><rect x="658.2881906825569" width="8.089563019140485" height="37" fill="#858585" fill-opacity="0"/><rect x="666.3777537016974" width="7.704345732514747" height="37" fill="#858585" fill-opacity="0"/><rect x="674.0820994342122" width="3.6595642229445047" height="37" fill="#858585" fill-opacity="0"/><rect x="677.7416636571567" width="8.474780305766222" height="37" fill="#858585" fill-opacity="0"/><rect x="686.2164439629229" width="6.307933068496449" height="37" fill="#858585" fill-opacity="0"/><rect x="692.5243770314194" width="6.4042373901528835" height="37" fill="#858585" fill-opacity="0"/><rect x="698.9286144215722" width="6.1634765860117975" height="37" fill="#858585" fill-opacity="0"/><rect x="705.092091007584" width="54.94161550499579" height="37" fill="#858585" fill-opacity="0"/><rect x="760.0337065125798" width="6.596846033465752" height="37" fill="#858585" fill-opacity="0"/><rect x="766.6305525460456" width="6.307933068496449" height="37" fill="#858585" fill-opacity="0"/><rect x="772.9384856145421" width="13.77151799687011" height="37" fill="#858585" fill-opacity="0"/><rect x="786.7100036114122" width="3.5632599012880704" height="37" fill="#858585" fill-opacity="0"/><rect x="790.2732635127003" width="5.248585530275672" height="37" fill="#858585" fill-opacity="0"/><rect x="795.521849042976" width="4.478150957024196" height="37" fill="#858585" fill-opacity="0"/></g></g><g/><g transform="scale(0)"><rect fill="white" fill-opacity="0"/><text fill="#8AB1D4" fill-opacity="0" font-weight="bold" font-size="18px" text-anchor="middle" dominant-baseline="middle">Loading ...</text><line stroke="#8AB1D4" stroke-width="2px"/></g></g><g transform="translate(139, 0)"><text font-size="14" font-family="Arial" y="7" text-anchor="end" dominant-baseline="central" fill="black" x="-10" font-weight="bold">KMT2D</text><text font-size="14" font-family="Arial" y="20" text-anchor="end" dominant-baseline="central" fill="black" x="-10">NM_003482</text></g><g transform="translate(952, 0)"><text fill="#aaa" font-family="Arial" font-size="14" y="14" class="sja_clbtext2"/></g></g><g transform="translate(0, 31)"><g transform="translate(942, 0)"/><g transform="translate(142, 0)"><rect fill="white" fill-opacity="0" width="800" height="154.62203351099822"/><g transform="translate(0,0)" style="cursor: default;"><g class="sja_skg" transform="translate(204, 64.82203674316406)"><g transform="translate(0, -7)" class="sja_aa_discg"><circle fill="#db3d3d" stroke="white" r="6.5"/><text font-size="12" fill="#db3d3d" x="8" y="3.5999999999999996" font-family="Arial" class="sja_aa_disclabel" fill-opacity="1" transform="rotate(-90)">V1416fs</text><circle r="6.5" stroke="#db3d3d" class="sja_aa_disckick" fill="white" fill-opacity="0" stroke-opacity="0" transform="scale(1)"/><path d="M4.286263797015736e-16,-7L4.286263797015736e-16,-7Z" fill="#db3d3d" class="sja_aa_discrim" fill-opacity="1" stroke-opacity="1"/></g><circle class="sja_aa_skkick" fill="white" fill-opacity="0" stroke="none" r="8" cy="-7" transform="scale(0)"/><path class="sja_aa_stem" d="M0,0v14l0.4781509570242122,28v37.8" stroke="#db3d3d" fill="none"/></g><g class="sja_skg" transform="translate(240.3914794921875, 64.82203674316406)"><g transform="translate(0, -9.391485214233398)" class="sja_aa_discg"><circle fill="#db3d3d" stroke="white" r="8.891485505499118"/><text font-family="Arial" class="sja_aa_discnum" fill-opacity="1" stroke-opacity="1" text-anchor="middle" font-size="14.087228258248675" y="4.2261684774746024" fill="white">2</text><text font-size="12" fill="#db3d3d" x="10.391485505499118" y="3.5999999999999996" font-family="Arial" class="sja_aa_disclabel" fill-opacity="1" transform="rotate(-90)">P1669fs</text><circle r="8.891485505499118" stroke="#db3d3d" class="sja_aa_disckick" fill="white" fill-opacity="0" stroke-opacity="0" transform="scale(1)"/><path d="M5.750626331774128e-16,-9.391485505499118L5.750626331774128e-16,-9.391485505499118Z" fill="#db3d3d" class="sja_aa_discrim" fill-opacity="1" stroke-opacity="1"/></g><circle class="sja_aa_skkick" fill="white" fill-opacity="0" stroke="none" r="10.391485505499118" cy="-9.391485505499118" transform="scale(0)"/><path class="sja_aa_stem" d="M0,0v14l0.7304598417983357,28v37.8" stroke="#db3d3d" fill="none"/></g><g class="sja_skg" transform="translate(259.1744689941406, 64.82203674316406)"><g transform="translate(0, -9.391485214233398)" class="sja_aa_discg"><circle fill="#ff7f0e" stroke="white" r="8.891485505499118"/><text font-family="Arial" class="sja_aa_discnum" fill-opacity="1" stroke-opacity="1" text-anchor="middle" font-size="14.087228258248675" y="4.2261684774746024" fill="white">2</text><text font-size="12" fill="#ff7f0e" x="10.391485505499118" y="3.5999999999999996" font-family="Arial" class="sja_aa_disclabel" fill-opacity="1" transform="scale(1) rotate(0)">Q1757*</text><circle r="8.891485505499118" stroke="#ff7f0e" class="sja_aa_disckick" fill="white" fill-opacity="0" stroke-opacity="0" transform="scale(1)"/><path d="M5.750626331774128e-16,-9.391485505499118L5.750626331774128e-16,-9.391485505499118Z" fill="#ff7f0e" class="sja_aa_discrim" fill-opacity="1" stroke-opacity="1"/></g><circle class="sja_aa_skkick" fill="white" fill-opacity="0" stroke="none" r="10.391485505499118" cy="-9.391485505499118" transform="scale(0)"/><path class="sja_aa_stem" d="M0,0v14l-5.918166640489147,28v37.8" stroke="#ff7f0e" fill="none"/></g><g class="sja_skg" transform="translate(614.9573974609375, 64.82203674316406)"><g transform="translate(0, -9.391485214233398)" class="sja_aa_discg"><circle fill="#ff7f0e" stroke="white" r="8.891485505499118"/><text font-family="Arial" class="sja_aa_discnum" fill-opacity="1" stroke-opacity="1" text-anchor="middle" font-size="14.087228258248675" y="4.2261684774746024" fill="white">2</text><text font-size="12" fill="#ff7f0e" x="10.391485505499118" y="3.5999999999999996" font-family="Arial" class="sja_aa_disclabel" fill-opacity="1" transform="rotate(-90)">Q4265*</text><circle r="8.891485505499118" stroke="#ff7f0e" class="sja_aa_disckick" fill="white" fill-opacity="0" stroke-opacity="0" transform="scale(1)"/><path d="M5.750626331774128e-16,-9.391485505499118L5.750626331774128e-16,-9.391485505499118Z" fill="#ff7f0e" class="sja_aa_discrim" fill-opacity="1" stroke-opacity="1"/></g><circle class="sja_aa_skkick" fill="white" fill-opacity="0" stroke="none" r="10.391485505499118" cy="-9.391485505499118" transform="scale(0)"/><path class="sja_aa_stem" d="M0,0v14l0.5957204200185515,28v37.8" stroke="#ff7f0e" fill="none"/></g><g class="sja_skg" transform="translate(647.3489379882812, 64.82203674316406)"><g transform="translate(0, -7)" class="sja_aa_discg"><circle fill="#ff7f0e" stroke="white" r="6.5"/><text font-size="12" fill="#ff7f0e" x="8" y="3.5999999999999996" font-family="Arial" class="sja_aa_disclabel" fill-opacity="1" transform="scale(1) rotate(0)">R4487*</text><circle r="6.5" stroke="#ff7f0e" class="sja_aa_disckick" fill="white" fill-opacity="0" stroke-opacity="0" transform="scale(1)"/><path d="M4.286263797015736e-16,-7L4.286263797015736e-16,-7Z" fill="#ff7f0e" class="sja_aa_discrim" fill-opacity="1" stroke-opacity="1"/></g><circle class="sja_aa_skkick" fill="white" fill-opacity="0" stroke="none" r="8" cy="-7" transform="scale(0)"/><path class="sja_aa_stem" d="M0,0v14l0.2735740261121009,28v37.8" stroke="#ff7f0e" fill="none"/></g><g class="sja_skg" transform="translate(733.7404174804688, 64.82203674316406)"><g transform="translate(0, -9.391485214233398)" class="sja_aa_discg"><circle fill="#ff7f0e" stroke="white" r="8.891485505499118"/><text font-family="Arial" class="sja_aa_discnum" fill-opacity="1" stroke-opacity="1" text-anchor="middle" font-size="14.087228258248675" y="4.2261684774746024" fill="white">2</text><text font-size="12" fill="#ff7f0e" x="10.391485505499118" y="3.5999999999999996" font-family="Arial" class="sja_aa_disclabel" fill-opacity="1" transform="rotate(-90)">R5089*</text><circle r="8.891485505499118" stroke="#ff7f0e" class="sja_aa_disckick" fill="white" fill-opacity="0" stroke-opacity="0" transform="scale(1)"/><path d="M5.750626331774128e-16,-9.391485505499118L5.750626331774128e-16,-9.391485505499118Z" fill="#ff7f0e" class="sja_aa_discrim" fill-opacity="1" stroke-opacity="1"/></g><circle class="sja_aa_skkick" fill="white" fill-opacity="0" stroke="none" r="10.391485505499118" cy="-9.391485505499118" transform="scale(0)"/><path class="sja_aa_stem" d="M0,0v14l0.8448909763732217,28v37.8" stroke="#ff7f0e" fill="none"/></g><g class="sja_skg" transform="translate(790.1318969726562, 64.82203674316406)"><g transform="translate(0, -7)" class="sja_aa_discg"><circle fill="#3987CC" stroke="white" r="6.5"/><text font-size="12" fill="#3987CC" x="8" y="3.5999999999999996" font-family="Arial" class="sja_aa_disclabel" fill-opacity="1" transform="rotate(-90)">C5496R</text><circle r="6.5" stroke="#3987CC" class="sja_aa_disckick" fill="white" fill-opacity="0" stroke-opacity="0" transform="scale(1)"/><path d="M4.286263797015736e-16,-7L4.286263797015736e-16,-7Z" fill="#3987CC" class="sja_aa_discrim" fill-opacity="1" stroke-opacity="1"/></g><circle class="sja_aa_skkick" fill="white" fill-opacity="0" stroke="none" r="8" cy="-7" transform="scale(0)"/><path class="sja_aa_stem" d="M0,0v14l0.9358901223728253,28v37.8" stroke="#3987CC" fill="none"/></g></g><g/><g transform="scale(0)"><rect fill="white" fill-opacity="0" height="0"/><text fill="#8AB1D4" fill-opacity="0" font-weight="bold" font-size="18px" text-anchor="middle" dominant-baseline="middle">Loading ...</text><line stroke="#8AB1D4" stroke-width="2px" x2="0"/></g></g><g transform="translate(139, 0)"><text font-size="14" font-family="Arial" y="7" text-anchor="end" dominant-baseline="central" fill="black" x="-10" font-weight="bold">Important_mut.txt</text><g/><text font-size="14" font-family="Arial" y="26" text-anchor="end" dominant-baseline="central" class="sja_clbtext2" fill="black" x="-10">11 mutations</text></g><g transform="translate(952, 0)"/></g></g><g transform="scale(0)"><rect fill="white"/><text fill="#8AB1D4" fill-opacity="0" font-weight="bold" font-size="18px" text-anchor="middle" dominant-baseline="middle">Loading ...</text></g><g/><g transform="translate(141,247.62203351099822)"><g transform="translate(0,0)"><rect width="15" height="20" stroke="rgb(99, 148, 139)" fill="#8dd3c7" shape-rendering="crispEdges"/><text x="20" y="10" dominant-baseline="central" font-size="16" font-family="Arial" fill="black">ePHD1_KMT2D</text><text x="144.703125" y="10" dominant-baseline="central" font-size="12" font-family="Arial" fill="#858585">Extended PHD finger 1 found in histone-lysine N-methyltransferase 2D (KMT2D)</text></g><g transform="translate(0,23)"><rect width="15" height="20" stroke="rgb(133, 130, 153)" fill="#bebada" shape-rendering="crispEdges"/><text x="20" y="10" dominant-baseline="central" font-size="16" font-family="Arial" fill="black">other</text><text x="66.6875" y="10" dominant-baseline="central" font-size="12" font-family="Arial" fill="#858585">putative histone H3 binding site [polypeptide binding]</text></g><g transform="translate(0,46)"><rect width="15" height="20" stroke="rgb(133, 130, 153)" fill="#bebada" shape-rendering="crispEdges"/><text x="20" y="10" dominant-baseline="central" font-size="16" font-family="Arial" fill="black">PHD1_KMT2C_like</text><text x="168.7109375" y="10" dominant-baseline="central" font-size="12" font-family="Arial" fill="#858585">PHD finger 1 found in Histone-lysine N-methyltransferase 2C (KMT2C) an ...</text></g><g transform="translate(0,69)"><rect width="15" height="20" stroke="rgb(99, 148, 139)" fill="#8dd3c7" shape-rendering="crispEdges"/><text x="20" y="10" dominant-baseline="central" font-size="16" font-family="Arial" fill="black">other</text><text x="66.6875" y="10" dominant-baseline="central" font-size="12" font-family="Arial" fill="#858585">Zn binding site [ion binding]</text></g><g transform="translate(0,92)"><rect width="15" height="20" stroke="rgb(162, 162, 111)" fill="#E8E89E" shape-rendering="crispEdges"/><text x="20" y="10" dominant-baseline="central" font-size="16" font-family="Arial" fill="black">PHD_SF</text><text x="93.125" y="10" dominant-baseline="central" font-size="12" font-family="Arial" fill="#858585">PHD finger superfamily</text></g><g transform="translate(0,115)"><rect width="15" height="20" stroke="rgb(176, 90, 80)" fill="#fb8072" shape-rendering="crispEdges"/><text x="20" y="10" dominant-baseline="central" font-size="16" font-family="Arial" fill="black">other</text><text x="66.6875" y="10" dominant-baseline="central" font-size="12" font-family="Arial" fill="#858585">histone H3 binding site [polypeptide binding]</text></g><g transform="translate(0,138)"><rect width="15" height="20" stroke="rgb(116, 151, 59)" fill="#a6d854" shape-rendering="crispEdges"/><text x="20" y="10" dominant-baseline="central" font-size="16" font-family="Arial" fill="black">PHD3_KMT2D</text><text x="135.8046875" y="10" dominant-baseline="central" font-size="12" font-family="Arial" fill="#858585">PHD finger 3 found in Histone-lysine N-methyltransferase 2D (KMT2D)</text></g><g transform="translate(0,161)"><rect width="15" height="20" stroke="rgb(125, 125, 125)" fill="#b3b3b3" shape-rendering="crispEdges"/><text x="20" y="10" dominant-baseline="central" font-size="16" font-family="Arial" fill="black">PHD5_KMT2C_like</text><text x="168.7109375" y="10" dominant-baseline="central" font-size="12" font-family="Arial" fill="#858585">PHD finger 5 found in Histone-lysine N-methyltransferase 2C (KMT2C) an ...</text></g><g transform="translate(0,184)"><rect width="15" height="20" stroke="rgb(177, 126, 69)" fill="#fdb462" shape-rendering="crispEdges"/><text x="20" y="10" dominant-baseline="central" font-size="16" font-family="Arial" fill="black">PHD5_KMT2D</text><text x="135.8046875" y="10" dominant-baseline="central" font-size="12" font-family="Arial" fill="#858585">PHD finger 5 found in Histone-lysine N-methyltransferase 2D (KMT2D)</text></g><g transform="translate(0,207)"><rect width="15" height="20" stroke="rgb(90, 124, 148)" fill="#80b1d3" shape-rendering="crispEdges"/><text x="20" y="10" dominant-baseline="central" font-size="16" font-family="Arial" fill="black">HMG</text><text x="67.328125" y="10" dominant-baseline="central" font-size="12" font-family="Arial" fill="#858585">high mobility group</text></g><g transform="translate(0,230)"><rect width="15" height="20" stroke="rgb(160, 137, 104)" fill="#e5c494" shape-rendering="crispEdges"/><text x="20" y="10" dominant-baseline="central" font-size="16" font-family="Arial" fill="black">ePHD2_KMT2D</text><text x="144.703125" y="10" dominant-baseline="central" font-size="12" font-family="Arial" fill="#858585">Extended PHD finger 2 found in histone-lysine N-methyltransferase 2D (KMT2D)</text></g><g transform="translate(0,253)"><rect width="15" height="20" stroke="rgb(176, 90, 80)" fill="#fb8072" shape-rendering="crispEdges"/><text x="20" y="10" dominant-baseline="central" font-size="16" font-family="Arial" fill="black">FYRN</text><text x="73.5546875" y="10" dominant-baseline="central" font-size="12" font-family="Arial" fill="#858585">F/Y-rich N-terminus</text></g><g transform="translate(0,276)"><rect width="15" height="20" stroke="rgb(179, 152, 33)" fill="#ffd92f" shape-rendering="crispEdges"/><text x="20" y="10" dominant-baseline="central" font-size="16" font-family="Arial" fill="black">FYRC</text><text x="73.5546875" y="10" dominant-baseline="central" font-size="12" font-family="Arial" fill="#858585">FY-rich domain, C-terminal region</text></g><g transform="translate(0,299)"><rect width="15" height="20" stroke="rgb(90, 124, 148)" fill="#80b1d3" shape-rendering="crispEdges"/><text x="20" y="10" dominant-baseline="central" font-size="16" font-family="Arial" fill="black">SET</text><text x="61.1171875" y="10" dominant-baseline="central" font-size="12" font-family="Arial" fill="#858585">SET (Su(var)3-9, Enhancer-of-zeste, Trithorax) domain</text></g></g><g transform="translate(744,247.62203351099822)"><g transform="translate(0,0)"><circle cx="10" cy="10" r="10" fill="#ff7f0e"/><text x="30" y="10" dominant-baseline="central" font-size="16" font-family="Arial" fill="#ff7f0e">NONSENSE, n=7</text></g><g transform="translate(0,23)"><circle cx="10" cy="10" r="10" fill="#db3d3d"/><text x="30" y="10" dominant-baseline="central" font-size="16" font-family="Arial" fill="#db3d3d">FRAMESHIFT, n=3</text></g><g transform="translate(0,46)"><circle cx="10" cy="10" r="10" fill="#3987CC"/><text x="30" y="10" dominant-baseline="central" font-size="16" font-family="Arial" fill="#3987CC">MISSENSE, n=1</text></g><g transform="translate(0,69)"><g transform="translate(5,0)"><circle cx="7" cy="12" r="7" fill="#b1b1b1"/></g><text x="30" y="10" dominant-baseline="central" font-size="16" font-family="Arial" fill="black">Somatic, n=11</text></g></g></svg>