<?xml version="1.0" encoding="utf-8"?>
<!-- Generator: Adobe Illustrator 25.3.1, SVG Export Plug-In . SVG Version: 6.00 Build 0)  -->
<svg version="1.1" id="Layer_1" xmlns="http://www.w3.org/2000/svg" xmlns:xlink="http://www.w3.org/1999/xlink" x="0px" y="0px"
	 viewBox="0 0 1052 262.6" style="enable-background:new 0 0 1052 262.6;" xml:space="preserve">
<style type="text/css">
	.st0{fill:#FFFF99;}
	.st1{font-family:'ArialMT';}
	.st2{font-size:13px;}
	.st3{fill:none;stroke:#000000;}
	.st4{font-size:12px;}
	.st5{fill:#FFFFFF;fill-opacity:0;}
	.st6{fill:#FFFFFF;}
	.st7{fill:#8DD3C7;}
	.st8{fill:#FB8072;}
	.st9{fill:#BEBADA;}
	.st10{fill:none;stroke:#000000;stroke-dasharray:4,2;}
	.st11{fill:none;}
	.st12{font-size:11.6667px;}
	.st13{fill:#858585;fill-opacity:0;}
	.st14{fill:none;stroke:#8AB1D4;stroke-width:2;}
	.st15{font-family:'Arial-BoldMT';}
	.st16{font-size:14px;}
	.st17{fill:#3987CC;stroke:#FFFFFF;}
	.st18{font-size:14.0872px;}
	.st19{fill:#3987CC;}
	.st20{fill:#FFFFFF;fill-opacity:0;stroke:#3987CC;stroke-opacity:0;}
	.st21{fill:none;stroke:#3987CC;}
	.st22{fill:#3987CC;fill-opacity:0;}
	.st23{fill:#8DD3C7;stroke:#63948B;}
	.st24{font-size:16px;}
	.st25{fill:#858585;}
	.st26{fill:#FB8072;stroke:#B05A50;}
	.st27{fill:#BEBADA;stroke:#858299;}
	.st28{fill:#B1B1B1;}
</style>
<g transform="translate(0,0)">
	<g transform="translate(142, 0)">
	</g>
	<rect x="941" class="st0" width="0" height="153.6"/>
	<g transform="translate(142, 23)">
		<g transform="translate(0,0)">
			<text transform="matrix(1 0 0 1 -93.2217 -10)" class="st1 st2">Protein length</text>
			<g>
				<g transform="translate(0,0)">
					<path shape-rendering="crispEdges" class="st3" d="M0.5-6v6.5h800V-6"/>
					<g transform="translate(73.59458218549128,0)">
						<line shape-rendering="crispEdges" class="st3" x1="0" y1="0" x2="0" y2="-6"/>
						<text transform="matrix(1 0 0 1 -10.0107 -9)" class="st1 st4">200</text>
					</g>
					<g transform="translate(147.05647382920108,0)">
						<line shape-rendering="crispEdges" class="st3" x1="0" y1="0" x2="0" y2="-6"/>
						<text transform="matrix(1 0 0 1 -10.0108 -9)" class="st1 st4">400</text>
					</g>
					<g transform="translate(220.51836547291092,0)">
						<line shape-rendering="crispEdges" class="st3" x1="0" y1="0" x2="0" y2="-6"/>
						<text transform="matrix(1 0 0 1 -10.0107 -9)" class="st1 st4">600</text>
					</g>
					<g transform="translate(293.98025711662075,0)">
						<line shape-rendering="crispEdges" class="st3" x1="0" y1="0" x2="0" y2="-6"/>
						<text transform="matrix(1 0 0 1 -10.0108 -9)" class="st1 st4">800</text>
					</g>
					<g transform="translate(367.4421487603306,0)">
						<line shape-rendering="crispEdges" class="st3" x1="0" y1="0" x2="0" y2="-6"/>
						<text transform="matrix(1 0 0 1 -13.3477 -9)" class="st1 st4">1000</text>
					</g>
					<g transform="translate(440.9040404040404,0)">
						<line shape-rendering="crispEdges" class="st3" x1="0" y1="0" x2="0" y2="-6"/>
						<text transform="matrix(1 0 0 1 -13.3477 -9)" class="st1 st4">1200</text>
					</g>
					<g transform="translate(514.3659320477502,0)">
						<line shape-rendering="crispEdges" class="st3" x1="0" y1="0" x2="0" y2="-6"/>
						<text transform="matrix(1 0 0 1 -13.3476 -9)" class="st1 st4">1400</text>
					</g>
					<g transform="translate(587.82782369146,0)">
						<line shape-rendering="crispEdges" class="st3" x1="0" y1="0" x2="0" y2="-6"/>
						<text transform="matrix(1 0 0 1 -13.3476 -9)" class="st1 st4">1600</text>
					</g>
					<g transform="translate(661.2897153351698,0)">
						<line shape-rendering="crispEdges" class="st3" x1="0" y1="0" x2="0" y2="-6"/>
						<text transform="matrix(1 0 0 1 -13.3476 -9)" class="st1 st4">1800</text>
					</g>
					<g transform="translate(734.7516069788796,0)">
						<line shape-rendering="crispEdges" class="st3" x1="0" y1="0" x2="0" y2="-6"/>
						<text transform="matrix(1 0 0 1 -13.3477 -9)" class="st1 st4">2000</text>
					</g>
				</g>
			</g>
			<rect y="-23" class="st5" width="800" height="26"/>
		</g>
		<g transform="translate(800, 0)">
		</g>
	</g>
	<g transform="translate(0, 111.58296966552734)">
		<g transform="translate(942, 0)">
		</g>
		<g transform="translate(142, 0)">
			<rect y="0" class="st5" width="800" height="47"/>
			<g transform="translate(0,0)">
				<g>
					<line shape-rendering="crispEdges" class="st3" x1="0" y1="18.5" x2="800" y2="18.5"/>
					<rect y="0" class="st6" width="12.1" height="37"/>
					<rect x="12.1" y="0" class="st6" width="12.9" height="37"/>
					<rect x="25" y="0" class="st6" width="23.5" height="37"/>
					<rect x="37.5" y="0" class="st7" width="11" height="37"/>
					<rect x="48.5" y="0" class="st6" width="19.2" height="37"/>
					<rect x="48.5" y="0" class="st7" width="10.7" height="37"/>
					<rect x="67.7" y="0" class="st6" width="22.3" height="37"/>
					<rect x="90" y="0" class="st6" width="13.6" height="37"/>
					<rect x="103.6" y="0" class="st6" width="31.2" height="37"/>
					<rect x="104.7" y="0" class="st8" width="30.1" height="37"/>
					<rect x="134.8" y="0" class="st6" width="18" height="37"/>
					<rect x="134.8" y="0" class="st8" width="18" height="37"/>
					<rect x="152.8" y="0" class="st6" width="12.2" height="37"/>
					<rect x="152.8" y="0" class="st8" width="12.2" height="37"/>
					<rect x="165" y="0" class="st6" width="16.8" height="37"/>
					<rect x="165" y="0" class="st8" width="16.8" height="37"/>
					<rect x="181.8" y="0" class="st6" width="16.2" height="37"/>
					<rect x="181.8" y="0" class="st8" width="16.2" height="37"/>
					<rect x="198" y="0" class="st6" width="15.5" height="37"/>
					<rect x="198" y="0" class="st8" width="15.5" height="37"/>
					<rect x="213.5" y="0" class="st6" width="28.2" height="37"/>
					<rect x="213.5" y="0" class="st8" width="28.2" height="37"/>
					<rect x="241.7" y="0" class="st6" width="9.9" height="37"/>
					<rect x="241.7" y="0" class="st8" width="9.9" height="37"/>
					<rect x="251.6" y="0" class="st6" width="20.9" height="37"/>
					<rect x="251.6" y="0" class="st8" width="20.9" height="37"/>
					<rect x="272.5" y="0" class="st6" width="17.8" height="37"/>
					<rect x="272.5" y="0" class="st8" width="5.5" height="37"/>
					<rect x="290.3" y="0" class="st6" width="6.2" height="37"/>
					<rect x="296.5" y="0" class="st6" width="14.6" height="37"/>
					<rect x="311.1" y="0" class="st6" width="17.6" height="37"/>
					<rect x="328.7" y="0" class="st6" width="20.1" height="37"/>
					<rect x="348.8" y="0" class="st6" width="16.2" height="37"/>
					<rect x="365" y="0" class="st6" width="27.9" height="37"/>
					<rect x="392.9" y="0" class="st6" width="17.8" height="37"/>
					<rect x="410.7" y="0" class="st6" width="14.8" height="37"/>
					<rect x="425.5" y="0" class="st6" width="12.5" height="37"/>
					<rect x="438" y="0" class="st6" width="14" height="37"/>
					<rect x="451.9" y="0" class="st6" width="21.5" height="37"/>
					<rect x="473.5" y="0" class="st6" width="22" height="37"/>
					<rect x="495.5" y="0" class="st6" width="8.8" height="37"/>
					<rect x="504.3" y="0" class="st6" width="16.4" height="37"/>
					<rect x="520.7" y="0" class="st6" width="19.8" height="37"/>
					<rect x="540.6" y="0" class="st6" width="13.7" height="37"/>
					<rect x="554.3" y="0" class="st6" width="11" height="37"/>
					<rect x="565.3" y="0" class="st6" width="13.5" height="37"/>
					<rect x="578.8" y="0" class="st6" width="16.7" height="37"/>
					<rect x="595.4" y="0" class="st6" width="19.8" height="37"/>
					<rect x="615.2" y="0" class="st6" width="45.9" height="37"/>
					<rect x="661.2" y="0" class="st6" width="18.5" height="37"/>
					<rect x="668.1" y="0" class="st9" width="11.5" height="37"/>
					<rect x="679.6" y="0" class="st6" width="24.1" height="37"/>
					<rect x="679.6" y="0" class="st9" width="24.1" height="37"/>
					<rect x="703.8" y="0" class="st6" width="9.6" height="37"/>
					<rect x="703.8" y="0" class="st9" width="9.6" height="37"/>
					<rect x="713.3" y="0" class="st6" width="26.7" height="37"/>
					<rect x="713.3" y="0" class="st9" width="26.7" height="37"/>
					<rect x="740" y="0" class="st6" width="27.3" height="37"/>
					<rect x="740" y="0" class="st9" width="1.6" height="37"/>
					<rect x="767.3" y="0" class="st6" width="17.3" height="37"/>
					<rect x="784.6" y="0" class="st6" width="10" height="37"/>
					<rect x="794.6" y="0" class="st6" width="5.4" height="37"/>
					<line class="st3" x1="0" y1="0" x2="800" y2="0"/>
					<line class="st3" x1="0" y1="37" x2="800" y2="37"/>
					<line class="st3" x1="0" y1="0" x2="0" y2="37"/>
					<line class="st3" x1="800" y1="0" x2="800" y2="37"/>
					<line shape-rendering="crispEdges" class="st10" x1="12.1" y1="0" x2="12.1" y2="37"/>
					<line shape-rendering="crispEdges" class="st10" x1="25" y1="0" x2="25" y2="37"/>
					<line shape-rendering="crispEdges" class="st10" x1="48.5" y1="0" x2="48.5" y2="37"/>
					<line shape-rendering="crispEdges" class="st10" x1="67.7" y1="0" x2="67.7" y2="37"/>
					<line shape-rendering="crispEdges" class="st10" x1="90" y1="0" x2="90" y2="37"/>
					<line shape-rendering="crispEdges" class="st10" x1="103.6" y1="0" x2="103.6" y2="37"/>
					<line shape-rendering="crispEdges" class="st10" x1="134.8" y1="0" x2="134.8" y2="37"/>
					<line shape-rendering="crispEdges" class="st10" x1="152.8" y1="0" x2="152.8" y2="37"/>
					<line shape-rendering="crispEdges" class="st10" x1="165" y1="0" x2="165" y2="37"/>
					<line shape-rendering="crispEdges" class="st10" x1="181.8" y1="0" x2="181.8" y2="37"/>
					<line shape-rendering="crispEdges" class="st10" x1="198" y1="0" x2="198" y2="37"/>
					<line shape-rendering="crispEdges" class="st10" x1="213.5" y1="0" x2="213.5" y2="37"/>
					<line shape-rendering="crispEdges" class="st10" x1="241.7" y1="0" x2="241.7" y2="37"/>
					<line shape-rendering="crispEdges" class="st10" x1="251.6" y1="0" x2="251.6" y2="37"/>
					<line shape-rendering="crispEdges" class="st10" x1="272.5" y1="0" x2="272.5" y2="37"/>
					<line shape-rendering="crispEdges" class="st10" x1="290.3" y1="0" x2="290.3" y2="37"/>
					<line shape-rendering="crispEdges" class="st10" x1="296.5" y1="0" x2="296.5" y2="37"/>
					<line shape-rendering="crispEdges" class="st10" x1="311.1" y1="0" x2="311.1" y2="37"/>
					<line shape-rendering="crispEdges" class="st10" x1="328.7" y1="0" x2="328.7" y2="37"/>
					<line shape-rendering="crispEdges" class="st10" x1="348.8" y1="0" x2="348.8" y2="37"/>
					<line shape-rendering="crispEdges" class="st10" x1="365" y1="0" x2="365" y2="37"/>
					<line shape-rendering="crispEdges" class="st10" x1="392.9" y1="0" x2="392.9" y2="37"/>
					<line shape-rendering="crispEdges" class="st10" x1="410.7" y1="0" x2="410.7" y2="37"/>
					<line shape-rendering="crispEdges" class="st10" x1="425.5" y1="0" x2="425.5" y2="37"/>
					<line shape-rendering="crispEdges" class="st10" x1="438" y1="0" x2="438" y2="37"/>
					<line shape-rendering="crispEdges" class="st10" x1="451.9" y1="0" x2="451.9" y2="37"/>
					<line shape-rendering="crispEdges" class="st10" x1="473.5" y1="0" x2="473.5" y2="37"/>
					<line shape-rendering="crispEdges" class="st10" x1="495.5" y1="0" x2="495.5" y2="37"/>
					<line shape-rendering="crispEdges" class="st10" x1="504.3" y1="0" x2="504.3" y2="37"/>
					<line shape-rendering="crispEdges" class="st10" x1="520.7" y1="0" x2="520.7" y2="37"/>
					<line shape-rendering="crispEdges" class="st10" x1="540.6" y1="0" x2="540.6" y2="37"/>
					<line shape-rendering="crispEdges" class="st10" x1="554.3" y1="0" x2="554.3" y2="37"/>
					<line shape-rendering="crispEdges" class="st10" x1="565.3" y1="0" x2="565.3" y2="37"/>
					<line shape-rendering="crispEdges" class="st10" x1="578.8" y1="0" x2="578.8" y2="37"/>
					<line shape-rendering="crispEdges" class="st10" x1="595.4" y1="0" x2="595.4" y2="37"/>
					<line shape-rendering="crispEdges" class="st10" x1="615.2" y1="0" x2="615.2" y2="37"/>
					<line shape-rendering="crispEdges" class="st10" x1="661.2" y1="0" x2="661.2" y2="37"/>
					<line shape-rendering="crispEdges" class="st10" x1="679.6" y1="0" x2="679.6" y2="37"/>
					<line shape-rendering="crispEdges" class="st10" x1="703.8" y1="0" x2="703.8" y2="37"/>
					<line shape-rendering="crispEdges" class="st10" x1="713.3" y1="0" x2="713.3" y2="37"/>
					<line shape-rendering="crispEdges" class="st10" x1="740" y1="0" x2="740" y2="37"/>
					<line shape-rendering="crispEdges" class="st10" x1="767.3" y1="0" x2="767.3" y2="37"/>
					<line shape-rendering="crispEdges" class="st10" x1="784.6" y1="0" x2="784.6" y2="37"/>
					<line shape-rendering="crispEdges" class="st10" x1="794.6" y1="0" x2="794.6" y2="37"/>
					<g transform="translate(0,18.5)">
						<path shape-rendering="crispEdges" class="st11" d="M0.7,0v0.5h799.8V0"/>
						<g transform="translate(73.73307591563926,0)">
							<line shape-rendering="crispEdges" class="st3" x1="0" y1="0" x2="0" y2="0"/>
							<text transform="matrix(1 0 0 1 -9.7327 11.2834)" class="st1 st12">200</text>
						</g>
						<g transform="translate(147.12019077603495,0)">
							<line shape-rendering="crispEdges" class="st3" x1="0" y1="0" x2="0" y2="0"/>
							<text transform="matrix(1 0 0 1 -9.7327 11.2834)" class="st1 st12">400</text>
						</g>
						<g transform="translate(220.659087927683,0)">
							<line shape-rendering="crispEdges" class="st3" x1="0" y1="0" x2="0" y2="0"/>
							<text transform="matrix(1 0 0 1 -9.7327 11.2834)" class="st1 st12">600</text>
						</g>
						<g transform="translate(294.131502187652,0)">
							<line shape-rendering="crispEdges" class="st3" x1="0" y1="0" x2="0" y2="0"/>
							<text transform="matrix(1 0 0 1 -9.7327 11.2834)" class="st1 st12">800</text>
						</g>
						<g transform="translate(367.63063650862705,0)">
							<line shape-rendering="crispEdges" class="st3" x1="0" y1="0" x2="0" y2="0"/>
							<text transform="matrix(1 0 0 1 -12.9769 11.2834)" class="st1 st12">1000</text>
						</g>
						<g transform="translate(441.0764180883799,0)">
							<line shape-rendering="crispEdges" class="st3" x1="0" y1="0" x2="0" y2="0"/>
							<text transform="matrix(1 0 0 1 -12.9769 11.2834)" class="st1 st12">1200</text>
						</g>
						<g transform="translate(514.5857611931993,0)">
							<line shape-rendering="crispEdges" class="st3" x1="0" y1="0" x2="0" y2="0"/>
							<text transform="matrix(1 0 0 1 -12.9769 11.2834)" class="st1 st12">1400</text>
						</g>
						<g transform="translate(587.9156585619038,0)">
							<line shape-rendering="crispEdges" class="st3" x1="0" y1="0" x2="0" y2="0"/>
							<text transform="matrix(1 0 0 1 -12.9769 11.2834)" class="st1 st12">1600</text>
						</g>
						<g transform="translate(661.291184573003,0)">
							<line shape-rendering="crispEdges" class="st3" x1="0" y1="0" x2="0" y2="0"/>
							<text transform="matrix(1 0 0 1 -12.9769 11.2834)" class="st1 st12">1800</text>
						</g>
						<g transform="translate(734.9837261503931,0)">
							<line shape-rendering="crispEdges" class="st3" x1="0" y1="0" x2="0" y2="0"/>
							<text transform="matrix(1 0 0 1 -12.9769 11.2834)" class="st1 st12">2000</text>
						</g>
					</g>
					<rect y="0" class="st13" width="12.1" height="37"/>
					<rect x="12.1" y="0" class="st13" width="12.9" height="37"/>
					<rect x="25" y="0" class="st13" width="23.5" height="37"/>
					<rect x="48.5" y="0" class="st13" width="19.2" height="37"/>
					<rect x="67.7" y="0" class="st13" width="22.3" height="37"/>
					<rect x="90" y="0" class="st13" width="13.6" height="37"/>
					<rect x="103.6" y="0" class="st13" width="31.2" height="37"/>
					<rect x="134.8" y="0" class="st13" width="18" height="37"/>
					<rect x="152.8" y="0" class="st13" width="12.2" height="37"/>
					<rect x="165" y="0" class="st13" width="16.8" height="37"/>
					<rect x="181.8" y="0" class="st13" width="16.2" height="37"/>
					<rect x="198" y="0" class="st13" width="15.5" height="37"/>
					<rect x="213.5" y="0" class="st13" width="28.2" height="37"/>
					<rect x="241.7" y="0" class="st13" width="9.9" height="37"/>
					<rect x="251.6" y="0" class="st13" width="20.9" height="37"/>
					<rect x="272.5" y="0" class="st13" width="17.8" height="37"/>
					<rect x="290.3" y="0" class="st13" width="6.2" height="37"/>
					<rect x="296.5" y="0" class="st13" width="14.6" height="37"/>
					<rect x="311.1" y="0" class="st13" width="17.6" height="37"/>
					<rect x="328.7" y="0" class="st13" width="20.1" height="37"/>
					<rect x="348.8" y="0" class="st13" width="16.2" height="37"/>
					<rect x="365" y="0" class="st13" width="27.9" height="37"/>
					<rect x="392.9" y="0" class="st13" width="17.8" height="37"/>
					<rect x="410.7" y="0" class="st13" width="14.8" height="37"/>
					<rect x="425.5" y="0" class="st13" width="12.5" height="37"/>
					<rect x="438" y="0" class="st13" width="14" height="37"/>
					<rect x="451.9" y="0" class="st13" width="21.5" height="37"/>
					<rect x="473.5" y="0" class="st13" width="22" height="37"/>
					<rect x="495.5" y="0" class="st13" width="8.8" height="37"/>
					<rect x="504.3" y="0" class="st13" width="16.4" height="37"/>
					<rect x="520.7" y="0" class="st13" width="19.8" height="37"/>
					<rect x="540.6" y="0" class="st13" width="13.7" height="37"/>
					<rect x="554.3" y="0" class="st13" width="11" height="37"/>
					<rect x="565.3" y="0" class="st13" width="13.5" height="37"/>
					<rect x="578.8" y="0" class="st13" width="16.7" height="37"/>
					<rect x="595.4" y="0" class="st13" width="19.8" height="37"/>
					<rect x="615.2" y="0" class="st13" width="45.9" height="37"/>
					<rect x="661.2" y="0" class="st13" width="18.5" height="37"/>
					<rect x="679.6" y="0" class="st13" width="24.1" height="37"/>
					<rect x="703.8" y="0" class="st13" width="9.6" height="37"/>
					<rect x="713.3" y="0" class="st13" width="26.7" height="37"/>
					<rect x="740" y="0" class="st13" width="27.3" height="37"/>
					<rect x="767.3" y="0" class="st13" width="17.3" height="37"/>
					<rect x="784.6" y="0" class="st13" width="10" height="37"/>
					<rect x="794.6" y="0" class="st13" width="5.4" height="37"/>
				</g>
			</g>
			<g transform="scale(0)">
				<polygon class="st5" points="0,0 0,0 0,0 				"/>
				<line class="st14" x1="0" y1="0" x2="0" y2="0"/>
			</g>
		</g>
		<g transform="translate(139, 0)">
			<text transform="matrix(1 0 0 1 -56.6826 7)" class="st15 st16">MED12</text>
			<text transform="matrix(1 0 0 1 -86.2754 20)" class="st1 st16">NM_005120</text>
		</g>
		<g transform="translate(952, 0)">
		</g>
	</g>
	<g transform="translate(0, 31)">
		<g transform="translate(942, 0)">
		</g>
		<g transform="translate(142, 0)">
			<rect class="st5" width="800" height="80.6"/>
			<g transform="translate(0,0)">
				<g transform="translate(15.977961540222168, 32.7829704284668)">
					<g transform="translate(0, -9.391485214233398)">
						<circle class="st17" cx="0" cy="0" r="8.9"/>
						<text transform="matrix(1 0 0 1 -3.9173 4.2262)" class="st6 st1 st18">2</text>
						<text transform="matrix(1 0 0 1 10.3915 3.6)" class="st19 st1 st4">G44V</text>
						<circle class="st20" cx="0" cy="0" r="8.9"/>
						<path class="st19" d="M0-9.4L0-9.4z"/>
					</g>
					<g transform="translate(0, -25.782970428466797)">
						<circle class="st17" cx="0" cy="0" r="6.5"/>
						<text transform="matrix(1 0 0 1 8 3.6)" class="st19 st1 st4">G44S</text>
						<circle class="st20" cx="0" cy="0" r="6.5"/>
						<path class="st19" d="M0-7L0-7z"/>
					</g>
					<circle class="st5" cx="0" cy="-9.4" r="10.4"/>
					<path class="st21" d="M0,0L0,0L0,0v37.8"/>
					<polygon shape-rendering="crispEdges" class="st22" points="-9.4,0 9.4,0 9.4,0 					"/>
				</g>
			</g>
			<g transform="scale(0)">
				<polygon class="st5" points="0,0 0,0 0,0 				"/>
				<line class="st14" x1="0" y1="0" x2="0" y2="0"/>
			</g>
		</g>
		<g transform="translate(952, 0)">
		</g>
	</g>
</g>
<g transform="scale(0)">
	<polygon class="st6" points="0,0 0,0 0,0 	"/>
</g>
<g transform="translate(141,173.58297101099822)">
	<g transform="translate(0,0)">
		<rect y="0" shape-rendering="crispEdges" class="st23" width="15" height="20"/>
		<text transform="matrix(1 0 0 1 20 10)" class="st1 st24">Med12</text>
		<text transform="matrix(1 0 0 1 78.9219 10)" class="st25 st1 st4">Transcription mediator complex subunit Med12</text>
	</g>
	<g transform="translate(0,23)">
		<rect y="0" shape-rendering="crispEdges" class="st26" width="15" height="20"/>
		<text transform="matrix(1 0 0 1 20 10)" class="st1 st24">Med12-LCEWAV</text>
		<text transform="matrix(1 0 0 1 150.0391 10)" class="st25 st1 st4">Eukaryotic Mediator 12 subunit domain</text>
	</g>
	<g transform="translate(0,46)">
		<rect y="0" shape-rendering="crispEdges" class="st27" width="15" height="20"/>
		<text transform="matrix(1 0 0 1 20 10)" class="st1 st24">Med12-PQL</text>
		<text transform="matrix(1 0 0 1 116.2656 10)" class="st25 st1 st4">Eukaryotic Mediator 12 catenin-binding domain</text>
	</g>
</g>
<g transform="translate(744,173.58297101099822)">
	<g transform="translate(0,0)">
		<circle class="st19" cx="10" cy="10" r="10"/>
		<text transform="matrix(1 0 0 1 30 10)" class="st19 st1 st24">MISSENSE, n=3</text>
	</g>
	<g transform="translate(0,23)">
		<g transform="translate(5,0)">
			<circle class="st28" cx="7" cy="12" r="7"/>
		</g>
		<text transform="matrix(1 0 0 1 30 10)" class="st1 st24">Somatic, n=3</text>
	</g>
</g>
</svg>
