<?xml version="1.0" encoding="utf-8"?>
<!-- Generator: Adobe Illustrator 25.3.1, SVG Export Plug-In . SVG Version: 6.00 Build 0)  -->
<svg version="1.1" id="Layer_1" xmlns="http://www.w3.org/2000/svg" xmlns:xlink="http://www.w3.org/1999/xlink" x="0px" y="0px"
	 viewBox="0 0 1052 339.3" style="enable-background:new 0 0 1052 339.3;" xml:space="preserve">
<style type="text/css">
	.st0{fill:#FFFF99;}
	.st1{font-family:'ArialMT';}
	.st2{font-size:13px;}
	.st3{fill:none;stroke:#000000;}
	.st4{font-size:12px;}
	.st5{fill:#FFFFFF;fill-opacity:0;}
	.st6{fill:#FFFFFF;}
	.st7{fill:#80B1D3;}
	.st8{fill:#E8E89E;}
	.st9{fill:#FB8072;}
	.st10{fill:#BEBADA;}
	.st11{fill:#8DD3C7;}
	.st12{fill:none;stroke:#000000;stroke-dasharray:4,2;}
	.st13{fill:none;}
	.st14{font-size:11.6667px;}
	.st15{fill:#858585;fill-opacity:0;}
	.st16{fill:none;stroke:#8AB1D4;stroke-width:2;}
	.st17{font-family:'Arial-BoldMT';}
	.st18{font-size:14px;}
	.st19{fill:#3987CC;stroke:#FFFFFF;}
	.st20{font-size:14.0872px;}
	.st21{fill:#3987CC;}
	.st22{fill:#FFFFFF;fill-opacity:0;stroke:#3987CC;stroke-opacity:0;}
	.st23{fill:none;stroke:#3987CC;}
	.st24{fill:#80B1D3;stroke:#5A7C94;}
	.st25{font-size:16px;}
	.st26{fill:#858585;}
	.st27{fill:#E8E89E;stroke:#A2A26F;}
	.st28{fill:#FB8072;stroke:#B05A50;}
	.st29{fill:#BEBADA;stroke:#858299;}
	.st30{fill:#8DD3C7;stroke:#63948B;}
	.st31{fill:#B1B1B1;}
</style>
<g transform="translate(0,0)">
	<g transform="translate(142, 0)">
	</g>
	<rect x="940" class="st0" width="0" height="184.3"/>
	<g transform="translate(142, 23)">
		<g transform="translate(0,0)">
			<text transform="matrix(1 0 0 1 -93.2217 -10)" class="st1 st2">Protein length</text>
			<g>
				<g transform="translate(0,0)">
					<path shape-rendering="crispEdges" class="st3" d="M0.5-6v6.5h800V-6"/>
					<g transform="translate(61.189655172413794,0)">
						<line shape-rendering="crispEdges" class="st3" x1="0" y1="0" x2="0" y2="-6"/>
						<text transform="matrix(1 0 0 1 -10.0108 -9)" class="st1 st4">100</text>
					</g>
					<g transform="translate(122.49233716475095,0)">
						<line shape-rendering="crispEdges" class="st3" x1="0" y1="0" x2="0" y2="-6"/>
						<text transform="matrix(1 0 0 1 -10.0108 -9)" class="st1 st4">200</text>
					</g>
					<g transform="translate(183.79501915708812,0)">
						<line shape-rendering="crispEdges" class="st3" x1="0" y1="0" x2="0" y2="-6"/>
						<text transform="matrix(1 0 0 1 -10.0107 -9)" class="st1 st4">300</text>
					</g>
					<g transform="translate(245.09770114942526,0)">
						<line shape-rendering="crispEdges" class="st3" x1="0" y1="0" x2="0" y2="-6"/>
						<text transform="matrix(1 0 0 1 -10.0107 -9)" class="st1 st4">400</text>
					</g>
					<g transform="translate(306.40038314176246,0)">
						<line shape-rendering="crispEdges" class="st3" x1="0" y1="0" x2="0" y2="-6"/>
						<text transform="matrix(1 0 0 1 -10.0107 -9)" class="st1 st4">500</text>
					</g>
					<g transform="translate(367.70306513409963,0)">
						<line shape-rendering="crispEdges" class="st3" x1="0" y1="0" x2="0" y2="-6"/>
						<text transform="matrix(1 0 0 1 -10.0107 -9)" class="st1 st4">600</text>
					</g>
					<g transform="translate(429.0057471264368,0)">
						<line shape-rendering="crispEdges" class="st3" x1="0" y1="0" x2="0" y2="-6"/>
						<text transform="matrix(1 0 0 1 -10.0107 -9)" class="st1 st4">700</text>
					</g>
					<g transform="translate(490.308429118774,0)">
						<line shape-rendering="crispEdges" class="st3" x1="0" y1="0" x2="0" y2="-6"/>
						<text transform="matrix(1 0 0 1 -10.0107 -9)" class="st1 st4">800</text>
					</g>
					<g transform="translate(551.6111111111111,0)">
						<line shape-rendering="crispEdges" class="st3" x1="0" y1="0" x2="0" y2="-6"/>
						<text transform="matrix(1 0 0 1 -10.0107 -9)" class="st1 st4">900</text>
					</g>
					<g transform="translate(612.9137931034483,0)">
						<line shape-rendering="crispEdges" class="st3" x1="0" y1="0" x2="0" y2="-6"/>
						<text transform="matrix(1 0 0 1 -13.3477 -9)" class="st1 st4">1000</text>
					</g>
					<g transform="translate(674.2164750957854,0)">
						<line shape-rendering="crispEdges" class="st3" x1="0" y1="0" x2="0" y2="-6"/>
						<text transform="matrix(1 0 0 1 -12.9023 -9)" class="st1 st4">1100</text>
					</g>
					<g transform="translate(735.5191570881226,0)">
						<line shape-rendering="crispEdges" class="st3" x1="0" y1="0" x2="0" y2="-6"/>
						<text transform="matrix(1 0 0 1 -13.3477 -9)" class="st1 st4">1200</text>
					</g>
					<g transform="translate(796.8218390804598,0)">
						<line shape-rendering="crispEdges" class="st3" x1="0" y1="0" x2="0" y2="-6"/>
						<text transform="matrix(1 0 0 1 -13.3477 -9)" class="st1 st4">1300</text>
					</g>
				</g>
			</g>
			<rect x="0" y="-23" class="st5" width="800" height="26"/>
		</g>
		<g transform="translate(800, 0)">
		</g>
	</g>
	<g transform="translate(0, 142.28610229492188)">
		<g transform="translate(942, 0)">
		</g>
		<g transform="translate(142, 0)">
			<rect x="0" y="0" class="st5" width="800" height="47"/>
			<g transform="translate(0,0)">
				<g>
					<line shape-rendering="crispEdges" class="st3" x1="0" y1="18.5" x2="800" y2="18.5"/>
					<rect x="0" y="0" class="st6" width="5.7" height="37"/>
					<rect x="5.7" y="0" class="st6" width="34.1" height="37"/>
					<rect x="39.8" y="0" class="st6" width="21.5" height="37"/>
					<rect x="61.3" y="0" class="st6" width="23.5" height="37"/>
					<rect x="84.8" y="0" class="st6" width="16.3" height="37"/>
					<rect x="101.1" y="0" class="st6" width="34.9" height="37"/>
					<rect x="136.1" y="0" class="st6" width="48.6" height="37"/>
					<rect x="147.1" y="0" class="st7" width="37.6" height="37"/>
					<rect x="184.7" y="0" class="st6" width="43.5" height="37"/>
					<rect x="184.7" y="0" class="st7" width="43.5" height="37"/>
					<rect x="202.9" y="0" class="st8" width="25.3" height="37"/>
					<rect x="228.3" y="0" class="st6" width="24.9" height="37"/>
					<rect x="228.3" y="0" class="st7" width="5.9" height="37"/>
					<rect x="228.3" y="0" class="st8" width="24.9" height="37"/>
					<rect x="253.2" y="0" class="st6" width="40.5" height="37"/>
					<rect x="272.8" y="0" class="st9" width="20.8" height="37"/>
					<rect x="253.2" y="0" class="st8" width="18.4" height="37"/>
					<rect x="283.8" y="0" class="st10" width="9.8" height="37"/>
					<rect x="291.8" y="0" class="st11" width="1.2" height="37"/>
					<rect x="293.6" y="0" class="st6" width="20.8" height="37"/>
					<rect x="293.6" y="0" class="st9" width="20.8" height="37"/>
					<rect x="304.1" y="0" class="st10" width="10.4" height="37"/>
					<rect x="293.6" y="0" class="st10" width="3.7" height="37"/>
					<rect x="296.1" y="0" class="st11" width="1.2" height="37"/>
					<rect x="313.9" y="0" class="st11" width="1" height="37"/>
					<rect x="294.3" y="0" class="st11" width="1" height="37"/>
					<rect x="314.5" y="0" class="st6" width="36.8" height="37"/>
					<rect x="314.5" y="0" class="st9" width="36.8" height="37"/>
					<rect x="326.7" y="0" class="st10" width="17.8" height="37"/>
					<rect x="314.5" y="0" class="st10" width="6.7" height="37"/>
					<rect x="350.7" y="0" class="st10" width="1" height="37"/>
					<rect x="318.2" y="0" class="st11" width="1.2" height="37"/>
					<rect x="340.8" y="0" class="st11" width="1.2" height="37"/>
					<rect x="314.5" y="0" class="st11" width="1" height="37"/>
					<rect x="320.6" y="0" class="st11" width="1" height="37"/>
					<rect x="316.3" y="0" class="st11" width="1" height="37"/>
					<rect x="343.3" y="0" class="st11" width="1" height="37"/>
					<rect x="339" y="0" class="st11" width="1" height="37"/>
					<rect x="351.3" y="0" class="st6" width="17.8" height="37"/>
					<rect x="351.3" y="0" class="st9" width="17.8" height="37"/>
					<rect x="351.3" y="0" class="st10" width="15.9" height="37"/>
					<rect x="366" y="0" class="st11" width="1.2" height="37"/>
					<rect x="361.7" y="0" class="st11" width="1.2" height="37"/>
					<rect x="364.1" y="0" class="st11" width="1" height="37"/>
					<rect x="369" y="0" class="st6" width="55.4" height="37"/>
					<rect x="369" y="0" class="st9" width="55.4" height="37"/>
					<rect x="373.3" y="0" class="st10" width="15.9" height="37"/>
					<rect x="387.4" y="0" class="st11" width="1.2" height="37"/>
					<rect x="383.1" y="0" class="st11" width="1.2" height="37"/>
					<rect x="385.6" y="0" class="st11" width="1" height="37"/>
					<rect x="424.4" y="0" class="st6" width="29.8" height="37"/>
					<rect x="424.4" y="0" class="st9" width="29.8" height="37"/>
					<rect x="454.3" y="0" class="st6" width="30" height="37"/>
					<rect x="454.3" y="0" class="st9" width="30" height="37"/>
					<rect x="484.3" y="0" class="st6" width="25.7" height="37"/>
					<rect x="484.3" y="0" class="st9" width="25.7" height="37"/>
					<rect x="510" y="0" class="st6" width="45.4" height="37"/>
					<rect x="510" y="0" class="st9" width="45.4" height="37"/>
					<rect x="543.8" y="0" class="st10" width="11.6" height="37"/>
					<rect x="520.5" y="0" class="st10" width="15.3" height="37"/>
					<rect x="530.3" y="0" class="st11" width="1.2" height="37"/>
					<rect x="534.6" y="0" class="st11" width="1.2" height="37"/>
					<rect x="554.8" y="0" class="st11" width="1" height="37"/>
					<rect x="532.7" y="0" class="st11" width="1" height="37"/>
					<rect x="555.4" y="0" class="st6" width="37.4" height="37"/>
					<rect x="555.4" y="0" class="st9" width="37.4" height="37"/>
					<rect x="570.1" y="0" class="st10" width="20.8" height="37"/>
					<rect x="555.4" y="0" class="st10" width="8" height="37"/>
					<rect x="585.4" y="0" class="st11" width="1.2" height="37"/>
					<rect x="581.1" y="0" class="st11" width="1.2" height="37"/>
					<rect x="560.3" y="0" class="st11" width="1.2" height="37"/>
					<rect x="555.4" y="0" class="st11" width="1" height="37"/>
					<rect x="562.8" y="0" class="st11" width="1" height="37"/>
					<rect x="589.7" y="0" class="st11" width="1" height="37"/>
					<rect x="583.6" y="0" class="st11" width="1" height="37"/>
					<rect x="557.2" y="0" class="st11" width="1" height="37"/>
					<rect x="592.8" y="0" class="st6" width="22.9" height="37"/>
					<rect x="592.8" y="0" class="st9" width="22.9" height="37"/>
					<rect x="595.9" y="0" class="st10" width="16.6" height="37"/>
					<rect x="606.9" y="0" class="st11" width="1.2" height="37"/>
					<rect x="611.2" y="0" class="st11" width="1.2" height="37"/>
					<rect x="609.3" y="0" class="st11" width="1" height="37"/>
					<rect x="615.7" y="0" class="st6" width="24.7" height="37"/>
					<rect x="615.7" y="0" class="st9" width="24.7" height="37"/>
					<rect x="620.4" y="0" class="st10" width="18.4" height="37"/>
					<rect x="636.9" y="0" class="st11" width="1.2" height="37"/>
					<rect x="632.6" y="0" class="st11" width="1.2" height="37"/>
					<rect x="635.1" y="0" class="st11" width="1" height="37"/>
					<rect x="640.4" y="0" class="st6" width="27" height="37"/>
					<rect x="640.4" y="0" class="st9" width="27" height="37"/>
					<rect x="645.5" y="0" class="st10" width="20.8" height="37"/>
					<rect x="667.4" y="0" class="st6" width="55.8" height="37"/>
					<rect x="667.4" y="0" class="st9" width="55.8" height="37"/>
					<rect x="691.5" y="0" class="st10" width="20.2" height="37"/>
					<rect x="671.3" y="0" class="st10" width="14.1" height="37"/>
					<rect x="723.2" y="0" class="st6" width="44.3" height="37"/>
					<rect x="723.2" y="0" class="st9" width="44.3" height="37"/>
					<rect x="767.5" y="0" class="st6" width="32.5" height="37"/>
					<rect x="767.5" y="0" class="st9" width="31.9" height="37"/>
					<line class="st3" x1="0" y1="0" x2="800" y2="0"/>
					<line class="st3" x1="0" y1="37" x2="800" y2="37"/>
					<line class="st3" x1="800" y1="0" x2="800" y2="37"/>
					<line class="st3" x1="0" y1="0" x2="0" y2="37"/>
					<line shape-rendering="crispEdges" class="st12" x1="5.7" y1="0" x2="5.7" y2="37"/>
					<line shape-rendering="crispEdges" class="st12" x1="39.8" y1="0" x2="39.8" y2="37"/>
					<line shape-rendering="crispEdges" class="st12" x1="61.3" y1="0" x2="61.3" y2="37"/>
					<line shape-rendering="crispEdges" class="st12" x1="84.8" y1="0" x2="84.8" y2="37"/>
					<line shape-rendering="crispEdges" class="st12" x1="101.1" y1="0" x2="101.1" y2="37"/>
					<line shape-rendering="crispEdges" class="st12" x1="136.1" y1="0" x2="136.1" y2="37"/>
					<line shape-rendering="crispEdges" class="st12" x1="184.7" y1="0" x2="184.7" y2="37"/>
					<line shape-rendering="crispEdges" class="st12" x1="228.3" y1="0" x2="228.3" y2="37"/>
					<line shape-rendering="crispEdges" class="st12" x1="253.2" y1="0" x2="253.2" y2="37"/>
					<line shape-rendering="crispEdges" class="st12" x1="293.6" y1="0" x2="293.6" y2="37"/>
					<line shape-rendering="crispEdges" class="st12" x1="314.5" y1="0" x2="314.5" y2="37"/>
					<line shape-rendering="crispEdges" class="st12" x1="351.3" y1="0" x2="351.3" y2="37"/>
					<line shape-rendering="crispEdges" class="st12" x1="369" y1="0" x2="369" y2="37"/>
					<line shape-rendering="crispEdges" class="st12" x1="424.4" y1="0" x2="424.4" y2="37"/>
					<line shape-rendering="crispEdges" class="st12" x1="454.3" y1="0" x2="454.3" y2="37"/>
					<line shape-rendering="crispEdges" class="st12" x1="484.3" y1="0" x2="484.3" y2="37"/>
					<line shape-rendering="crispEdges" class="st12" x1="510" y1="0" x2="510" y2="37"/>
					<line shape-rendering="crispEdges" class="st12" x1="555.4" y1="0" x2="555.4" y2="37"/>
					<line shape-rendering="crispEdges" class="st12" x1="592.8" y1="0" x2="592.8" y2="37"/>
					<line shape-rendering="crispEdges" class="st12" x1="615.7" y1="0" x2="615.7" y2="37"/>
					<line shape-rendering="crispEdges" class="st12" x1="640.4" y1="0" x2="640.4" y2="37"/>
					<line shape-rendering="crispEdges" class="st12" x1="667.4" y1="0" x2="667.4" y2="37"/>
					<line shape-rendering="crispEdges" class="st12" x1="723.2" y1="0" x2="723.2" y2="37"/>
					<line shape-rendering="crispEdges" class="st12" x1="767.5" y1="0" x2="767.5" y2="37"/>
					<g transform="translate(0,18.5)">
						<path shape-rendering="crispEdges" class="st13" d="M0.8,0v0.5h799.7V0"/>
						<g transform="translate(61.1984126984127,0)">
							<line shape-rendering="crispEdges" class="st3" x1="0" y1="0" x2="0" y2="0"/>
							<text transform="matrix(1 0 0 1 -9.7327 11.2834)" class="st1 st14">100</text>
						</g>
						<g transform="translate(122.61601801438462,0)">
							<line shape-rendering="crispEdges" class="st3" x1="0" y1="0" x2="0" y2="0"/>
							<text transform="matrix(1 0 0 1 -9.7327 11.2834)" class="st1 st14">200</text>
						</g>
						<g transform="translate(184.00194804145045,0)">
							<line shape-rendering="crispEdges" class="st3" x1="0" y1="0" x2="0" y2="0"/>
							<text transform="matrix(1 0 0 1 -9.7327 11.2834)" class="st1 st14">300</text>
						</g>
						<g transform="translate(245.20236426502197,0)">
							<line shape-rendering="crispEdges" class="st3" x1="0" y1="0" x2="0" y2="0"/>
							<text transform="matrix(1 0 0 1 -9.7326 11.2834)" class="st1 st14">400</text>
						</g>
						<g transform="translate(306.5265945458643,0)">
							<line shape-rendering="crispEdges" class="st3" x1="0" y1="0" x2="0" y2="0"/>
							<text transform="matrix(1 0 0 1 -9.7326 11.2834)" class="st1 st14">500</text>
						</g>
						<g transform="translate(367.7347734178888,0)">
							<line shape-rendering="crispEdges" class="st3" x1="0" y1="0" x2="0" y2="0"/>
							<text transform="matrix(1 0 0 1 -9.7327 11.2834)" class="st1 st14">600</text>
						</g>
						<g transform="translate(429.268472906404,0)">
							<line shape-rendering="crispEdges" class="st3" x1="0" y1="0" x2="0" y2="0"/>
							<text transform="matrix(1 0 0 1 -9.7327 11.2834)" class="st1 st14">700</text>
						</g>
						<g transform="translate(490.54926108374383,0)">
							<line shape-rendering="crispEdges" class="st3" x1="0" y1="0" x2="0" y2="0"/>
							<text transform="matrix(1 0 0 1 -9.7326 11.2834)" class="st1 st14">800</text>
						</g>
						<g transform="translate(551.6401056228643,0)">
							<line shape-rendering="crispEdges" class="st3" x1="0" y1="0" x2="0" y2="0"/>
							<text transform="matrix(1 0 0 1 -9.7326 11.2834)" class="st1 st14">900</text>
						</g>
						<g transform="translate(613.1319422871147,0)">
							<line shape-rendering="crispEdges" class="st3" x1="0" y1="0" x2="0" y2="0"/>
							<text transform="matrix(1 0 0 1 -12.9769 11.2834)" class="st1 st14">1000</text>
						</g>
						<g transform="translate(674.5353388629251,0)">
							<line shape-rendering="crispEdges" class="st3" x1="0" y1="0" x2="0" y2="0"/>
							<text transform="matrix(1 0 0 1 -12.5439 11.2834)" class="st1 st14">1100</text>
						</g>
						<g transform="translate(735.7416942213824,0)">
							<line shape-rendering="crispEdges" class="st3" x1="0" y1="0" x2="0" y2="0"/>
							<text transform="matrix(1 0 0 1 -12.9768 11.2834)" class="st1 st14">1200</text>
						</g>
						<g transform="translate(796.8565387117761,0)">
							<line shape-rendering="crispEdges" class="st3" x1="0" y1="0" x2="0" y2="0"/>
							<text transform="matrix(1 0 0 1 -12.9769 11.2834)" class="st1 st14">1300</text>
						</g>
					</g>
					<rect x="0" y="0" class="st15" width="5.7" height="37"/>
					<rect x="5.7" y="0" class="st15" width="34.1" height="37"/>
					<rect x="39.8" y="0" class="st15" width="21.5" height="37"/>
					<rect x="61.3" y="0" class="st15" width="23.5" height="37"/>
					<rect x="84.8" y="0" class="st15" width="16.3" height="37"/>
					<rect x="101.1" y="0" class="st15" width="34.9" height="37"/>
					<rect x="136.1" y="0" class="st15" width="48.6" height="37"/>
					<rect x="184.7" y="0" class="st15" width="43.5" height="37"/>
					<rect x="228.3" y="0" class="st15" width="24.9" height="37"/>
					<rect x="253.2" y="0" class="st15" width="40.5" height="37"/>
					<rect x="293.6" y="0" class="st15" width="20.8" height="37"/>
					<rect x="314.5" y="0" class="st15" width="36.8" height="37"/>
					<rect x="351.3" y="0" class="st15" width="17.8" height="37"/>
					<rect x="369" y="0" class="st15" width="55.4" height="37"/>
					<rect x="424.4" y="0" class="st15" width="29.8" height="37"/>
					<rect x="454.3" y="0" class="st15" width="30" height="37"/>
					<rect x="484.3" y="0" class="st15" width="25.7" height="37"/>
					<rect x="510" y="0" class="st15" width="45.4" height="37"/>
					<rect x="555.4" y="0" class="st15" width="37.4" height="37"/>
					<rect x="592.8" y="0" class="st15" width="22.9" height="37"/>
					<rect x="615.7" y="0" class="st15" width="24.7" height="37"/>
					<rect x="640.4" y="0" class="st15" width="27" height="37"/>
					<rect x="667.4" y="0" class="st15" width="55.8" height="37"/>
					<rect x="723.2" y="0" class="st15" width="44.3" height="37"/>
					<rect x="767.5" y="0" class="st15" width="32.5" height="37"/>
				</g>
			</g>
			<g transform="scale(0)">
				<polygon class="st5" points="0,0 0,0 0,0 				"/>
				<line class="st16" x1="0" y1="0" x2="0" y2="0"/>
			</g>
		</g>
		<g transform="translate(139, 0)">
			<text transform="matrix(1 0 0 1 -53.5723 7)" class="st17 st18">SF3B1</text>
			<text transform="matrix(1 0 0 1 -86.2754 20)" class="st1 st18">NM_012433</text>
		</g>
		<g transform="translate(952, 0)">
		</g>
	</g>
	<g transform="translate(0, 31)">
		<g transform="translate(942, 0)">
		</g>
		<g transform="translate(142, 0)">
			<rect x="0" class="st5" width="800" height="111.3"/>
			<g transform="translate(0,0)">
				<g transform="translate(776.1941528320312, 63.4860954284668)">
					<g transform="translate(0, -9.391485214233398)">
						<circle class="st19" cx="0" cy="0" r="8.9"/>
						<text transform="matrix(1 0 0 1 -3.9173 4.2262)" class="st6 st1 st20">2</text>
						<text transform="matrix(6.123234e-17 -1 1 6.123234e-17 3.6 -10.3915)" class="st21 st1 st4">K1267E</text>
						<circle class="st22" cx="0" cy="0" r="8.9"/>
						<path class="st21" d="M0-9.4L0-9.4z"/>
					</g>
					<circle class="st5" cx="0" cy="-9.4" r="10.4"/>
					<path class="st23" d="M0,0L0,0L0,0v37.8"/>
				</g>
			</g>
			<g transform="scale(0)">
				<polygon class="st5" points="0,0 0,0 0,0 				"/>
				<line class="st16" x1="0" y1="0" x2="0" y2="0"/>
			</g>
		</g>
		<g transform="translate(139, 0)">
			<text transform="matrix(1 0 0 1 -129 7)" class="st17 st18">Important_mut.txt</text>
			<text transform="matrix(1 0 0 1 -82.3721 26)" class="st1 st18">2 mutations</text>
		</g>
		<g transform="translate(952, 0)">
		</g>
	</g>
</g>
<g transform="scale(0)">
	<polygon class="st6" points="0,0 0,0 0,0 	"/>
</g>
<g transform="translate(141,204.28609601099822)">
	<g transform="translate(0,0)">
		<rect x="0" y="0" shape-rendering="crispEdges" class="st24" width="15" height="20"/>
		<text transform="matrix(1 0 0 1 20 10)" class="st1 st25">CTD</text>
		<text transform="matrix(1 0 0 1 62.8828 10)" class="st26 st1 st4">Spt5 C-terminal nonapeptide repeat binding Spt4</text>
	</g>
	<g transform="translate(0,23)">
		<rect x="0" y="0" shape-rendering="crispEdges" class="st27" width="15" height="20"/>
		<text transform="matrix(1 0 0 1 20 10)" class="st1 st25">SF3b1</text>
		<text transform="matrix(1 0 0 1 77.1406 10)" class="st26 st1 st4">Splicing factor 3B subunit 1</text>
	</g>
	<g transform="translate(0,46)">
		<rect x="0" y="0" shape-rendering="crispEdges" class="st28" width="15" height="20"/>
		<text transform="matrix(1 0 0 1 20 10)" class="st1 st25">HSH155</text>
		<text transform="matrix(1 0 0 1 90.4766 10)" class="st26 st1 st4">U2 snRNP spliceosome subunit [RNA processing and modification]</text>
	</g>
	<g transform="translate(0,69)">
		<rect x="0" y="0" shape-rendering="crispEdges" class="st29" width="15" height="20"/>
		<text transform="matrix(1 0 0 1 20 10)" class="st1 st25">HEAT repeat</text>
		<text transform="matrix(1 0 0 1 121.0078 10)" class="st26 st1 st4">HEAT repeat [structural motif]</text>
	</g>
	<g transform="translate(0,92)">
		<rect x="0" y="0" shape-rendering="crispEdges" class="st30" width="15" height="20"/>
		<text transform="matrix(1 0 0 1 20 10)" class="st1 st25">other</text>
		<text transform="matrix(1 0 0 1 66.6875 10)" class="st26 st1 st4">putative peptide binding site [polypeptide binding]</text>
	</g>
</g>
<g transform="translate(744,204.28609601099822)">
	<g transform="translate(0,0)">
		<circle class="st21" cx="10" cy="10" r="10"/>
		<text transform="matrix(1 0 0 1 30 10)" class="st21 st1 st25">MISSENSE, n=2</text>
	</g>
	<g transform="translate(0,23)">
		<g transform="translate(5,0)">
			<circle class="st31" cx="7" cy="12" r="7"/>
		</g>
		<text transform="matrix(1 0 0 1 30 10)" class="st1 st25">Somatic, n=2</text>
	</g>
</g>
</svg>
