<svg xmlns="http://www.w3.org/2000/svg" width="1052" height="403.6064085109982"><g transform="translate(0,0)"><g transform="translate(142, 0)"/><rect fill="#FFFF99" x="934" width="0" height="179.60640851099822"/><g transform="translate(142, 23)"><g transform="translate(0,0)"><text text-anchor="end" x="-13" y="-10" dominant-baseline="central" font-size="13" font-family="Arial">Protein length</text><g><g transform="translate(0,0)" fill="none" font-size="10" font-family="sans-serif" text-anchor="middle"><path class="domain" stroke="black" d="M0.5,-6V0.5H800.5V-6" fill="none" stroke-width="1" shape-rendering="crispEdges"/><g class="tick" opacity="1" transform="translate(99.99238578680203,0)"><line stroke="black" y2="-6" shape-rendering="crispEdges"/><text fill="black" y="-9" dy="0em" font-family="Arial" font-size="12px" style="cursor: default;">50</text></g><g class="tick" opacity="1" transform="translate(201.5152284263959,0)"><line stroke="black" y2="-6" shape-rendering="crispEdges"/><text fill="black" y="-9" dy="0em" font-family="Arial" font-size="12px" style="cursor: default;">100</text></g><g class="tick" opacity="1" transform="translate(303.03807106598987,0)"><line stroke="black" y2="-6" shape-rendering="crispEdges"/><text fill="black" y="-9" dy="0em" font-family="Arial" font-size="12px" style="cursor: default;">150</text></g><g class="tick" opacity="1" transform="translate(404.56091370558374,0)"><line stroke="black" y2="-6" shape-rendering="crispEdges"/><text fill="black" y="-9" dy="0em" font-family="Arial" font-size="12px" style="cursor: default;">200</text></g><g class="tick" opacity="1" transform="translate(506.0837563451776,0)"><line stroke="black" y2="-6" shape-rendering="crispEdges"/><text fill="black" y="-9" dy="0em" font-family="Arial" font-size="12px" style="cursor: default;">250</text></g><g class="tick" opacity="1" transform="translate(607.6065989847716,0)"><line stroke="black" y2="-6" shape-rendering="crispEdges"/><text fill="black" y="-9" dy="0em" font-family="Arial" font-size="12px" style="cursor: default;">300</text></g><g class="tick" opacity="1" transform="translate(709.1294416243655,0)"><line stroke="black" y2="-6" shape-rendering="crispEdges"/><text fill="black" y="-9" dy="0em" font-family="Arial" font-size="12px" style="cursor: default;">350</text></g></g></g><rect fill="white" fill-opacity="0" x="0" y="-23" width="800" height="26"/></g><g transform="translate(800, 0)"/></g><g transform="translate(0, 137.60641479492188)"><g transform="translate(942, 0)"/><g transform="translate(142, 0)"><rect fill="white" fill-opacity="0" width="800" height="47"/><g transform="translate(0,0)" style="cursor: default;"><g><line x1="0" y1="18.5" x2="800" y2="18.5" stroke="black" shape-rendering="crispEdges"/><rect x="0" width="50.08460236886633" height="37" fill="white"/><rect x="10.152284263959391" width="39.93231810490694" height="37" fill="#ffd92f"/><rect x="50.08460236886633" width="14.890016920473773" height="37" fill="white"/><rect x="50.08460236886633" width="10.829103214890017" height="37" fill="#ffd92f"/><rect x="64.9746192893401" width="188.83248730964468" height="37" fill="white"/><rect x="219.28934010152284" width="34.51776649746193" height="37" fill="#80b1d3"/><rect x="69.03553299492386" width="50.76142131979695" height="37" fill="#e5c494"/><rect x="253.80710659898477" width="124.53468697123519" height="37" fill="white"/><rect x="253.80710659898477" width="124.53468697123519" height="37" fill="#80b1d3"/><rect x="357.3604060913706" width="6.091370558375634" height="37" fill="#fb8072"/><rect x="355.3299492385787" width="2.030456852791878" height="37" fill="#bebada"/><rect x="361.4213197969543" width="2.030456852791878" height="37" fill="#bebada"/><rect x="365.48223350253807" width="2.030456852791878" height="37" fill="#fb8072"/><rect x="378.34179357022" width="76.48054145516075" height="37" fill="white"/><rect x="378.34179357022" width="76.48054145516075" height="37" fill="#80b1d3"/><rect x="454.8223350253807" width="74.45008460236886" height="37" fill="white"/><rect x="454.8223350253807" width="74.45008460236886" height="37" fill="#80b1d3"/><rect x="501.52284263959393" width="2.030456852791878" height="37" fill="#8dd3c7"/><rect x="481.2182741116751" width="2.030456852791878" height="37" fill="#bebada"/><rect x="487.3096446700508" width="2.030456852791878" height="37" fill="#8dd3c7"/><rect x="489.34010152284264" width="2.030456852791878" height="37" fill="#bebada"/><rect x="483.24873096446703" width="2.030456852791878" height="37" fill="#8dd3c7"/><rect x="529.2724196277495" width="92.72419627749576" height="37" fill="white"/><rect x="529.2724196277495" width="55.499153976311334" height="37" fill="#80b1d3"/><rect x="556.3451776649746" width="6.091370558375634" height="37" fill="#8dd3c7"/><rect x="617.2588832487309" width="4.060913705583756" height="37" fill="#fdb462"/><rect x="552.2842639593908" width="2.030456852791878" height="37" fill="#8dd3c7"/><rect x="566.497461928934" width="2.030456852791878" height="37" fill="#8dd3c7"/><rect x="621.9966159052453" width="50.08460236886633" height="37" fill="white"/><rect x="645.6852791878173" width="26.395939086294415" height="37" fill="#a6d854"/><rect x="645.6852791878173" width="6.091370558375634" height="37" fill="#fdb462"/><rect x="672.0812182741116" width="72.41962774957699" height="37" fill="white"/><rect x="672.0812182741116" width="48.73096446700507" height="37" fill="#a6d854"/><rect x="744.5008460236886" width="55.499153976311334" height="37" fill="white"/><line x1="0" x2="800" stroke="black"/><line x1="0" x2="800" y1="37" y2="37" stroke="black"/><line x1="800" x2="800" y2="37" stroke="black"/><line x1="0" x2="0" y2="37" stroke="black"/><line class="exonboundaryclass" x1="50.08460236886633" x2="50.08460236886633" y1="0" y2="37" stroke="black" stroke-dasharray="4,2" shape-rendering="crispEdges" stroke-opacity="1"/><line class="exonboundaryclass" x1="64.9746192893401" x2="64.9746192893401" y1="0" y2="37" stroke="black" stroke-dasharray="4,2" shape-rendering="crispEdges" stroke-opacity="1"/><line class="exonboundaryclass" x1="253.80710659898477" x2="253.80710659898477" y1="0" y2="37" stroke="black" stroke-dasharray="4,2" shape-rendering="crispEdges" stroke-opacity="1"/><line class="exonboundaryclass" x1="378.34179357022" x2="378.34179357022" y1="0" y2="37" stroke="black" stroke-dasharray="4,2" shape-rendering="crispEdges" stroke-opacity="1"/><line class="exonboundaryclass" x1="454.8223350253807" x2="454.8223350253807" y1="0" y2="37" stroke="black" stroke-dasharray="4,2" shape-rendering="crispEdges" stroke-opacity="1"/><line class="exonboundaryclass" x1="529.2724196277495" x2="529.2724196277495" y1="0" y2="37" stroke="black" stroke-dasharray="4,2" shape-rendering="crispEdges" stroke-opacity="1"/><line class="exonboundaryclass" x1="621.9966159052453" x2="621.9966159052453" y1="0" y2="37" stroke="black" stroke-dasharray="4,2" shape-rendering="crispEdges" stroke-opacity="1"/><line class="exonboundaryclass" x1="672.0812182741116" x2="672.0812182741116" y1="0" y2="37" stroke="black" stroke-dasharray="4,2" shape-rendering="crispEdges" stroke-opacity="1"/><line class="exonboundaryclass" x1="744.5008460236886" x2="744.5008460236886" y1="0" y2="37" stroke="black" stroke-dasharray="4,2" shape-rendering="crispEdges" stroke-opacity="1"/><g transform="translate(0,18.5)" fill="none" font-size="10" font-family="sans-serif" text-anchor="middle"><path class="domain" stroke="none" d="M1.515228426395939,0V0.5H800.5V0" fill="none" stroke-width="0" shape-rendering="crispEdges"/><g class="tick" opacity="1" transform="translate(100.82203482342666,0)"><line stroke="black" y2="0" shape-rendering="crispEdges"/><text fill="black" y="3" dy="0.71em" font-family="Arial" font-size="11.666666666666666px" style="cursor: default;">50</text></g><g class="tick" opacity="1" transform="translate(201.7990557283991,0)"><line stroke="black" y2="0" shape-rendering="crispEdges"/><text fill="black" y="3" dy="0.71em" font-family="Arial" font-size="11.666666666666666px" style="cursor: default;">100</text></g><g class="tick" opacity="1" transform="translate(303.92015478072733,0)"><line stroke="black" y2="0" shape-rendering="crispEdges"/><text fill="black" y="3" dy="0.71em" font-family="Arial" font-size="11.666666666666666px" style="cursor: default;">150</text></g><g class="tick" opacity="1" transform="translate(405.22882714400214,0)"><line stroke="black" y2="0" shape-rendering="crispEdges"/><text fill="black" y="3" dy="0.71em" font-family="Arial" font-size="11.666666666666666px" style="cursor: default;">200</text></g><g class="tick" opacity="1" transform="translate(507.3339913517578,0)"><line stroke="black" y2="0" shape-rendering="crispEdges"/><text fill="black" y="3" dy="0.71em" font-family="Arial" font-size="11.666666666666666px" style="cursor: default;">250</text></g><g class="tick" opacity="1" transform="translate(608.3349150297947,0)"><line stroke="black" y2="0" shape-rendering="crispEdges"/><text fill="black" y="3" dy="0.71em" font-family="Arial" font-size="11.666666666666666px" style="cursor: default;">300</text></g><g class="tick" opacity="1" transform="translate(710.3187092095721,0)"><line stroke="black" y2="0" shape-rendering="crispEdges"/><text fill="black" y="3" dy="0.71em" font-family="Arial" font-size="11.666666666666666px" style="cursor: default;">350</text></g></g><rect x="0" width="50.08460236886633" height="37" fill="#858585" fill-opacity="0"/><rect x="50.08460236886633" width="14.890016920473773" height="37" fill="#858585" fill-opacity="0"/><rect x="64.9746192893401" width="188.83248730964468" height="37" fill="#858585" fill-opacity="0"/><rect x="253.80710659898477" width="124.53468697123519" height="37" fill="#858585" fill-opacity="0"/><rect x="378.34179357022" width="76.48054145516075" height="37" fill="#858585" fill-opacity="0"/><rect x="454.8223350253807" width="74.45008460236886" height="37" fill="#858585" fill-opacity="0"/><rect x="529.2724196277495" width="92.72419627749576" height="37" fill="#858585" fill-opacity="0"/><rect x="621.9966159052453" width="50.08460236886633" height="37" fill="#858585" fill-opacity="0"/><rect x="672.0812182741116" width="72.41962774957699" height="37" fill="#858585" fill-opacity="0"/><rect x="744.5008460236886" width="55.499153976311334" height="37" fill="#858585" fill-opacity="0"/></g></g><g/><g transform="scale(0)"><rect fill="white" fill-opacity="0"/><text fill="#8AB1D4" fill-opacity="0" font-weight="bold" font-size="18px" text-anchor="middle" dominant-baseline="middle">Loading ...</text><line stroke="#8AB1D4" stroke-width="2px"/></g></g><g transform="translate(139, 0)"><text font-size="14" font-family="Arial" y="7" text-anchor="end" dominant-baseline="central" fill="black" x="-10" font-weight="bold">TP53</text><text font-size="14" font-family="Arial" y="20" text-anchor="end" dominant-baseline="central" fill="black" x="-10">NM_000546</text></g><g transform="translate(952, 0)"><text fill="#aaa" font-family="Arial" font-size="14" y="14" class="sja_clbtext2"/></g></g><g transform="translate(0, 31)"><g transform="translate(942, 0)"/><g transform="translate(142, 0)"><rect fill="white" fill-opacity="0" width="800" height="106.60640851099824"/><g transform="translate(0,0)" style="cursor: default;"><g class="sja_skg" transform="translate(269.0355224609375, 58.8064079284668)"><g transform="translate(0, -7)" class="sja_aa_discg"><circle fill="#3987CC" stroke="white" r="6.5"/><text font-size="12" fill="#3987CC" x="8" y="3.5999999999999996" font-family="Arial" class="sja_aa_disclabel" fill-opacity="1" transform="scale(1) rotate(0)">M133K</text><circle r="6.5" stroke="#3987CC" class="sja_aa_disckick" fill="white" fill-opacity="0" stroke-opacity="0" transform="scale(1)"/><path d="M4.286263797015736e-16,-7L4.286263797015736e-16,-7Z" fill="#3987CC" class="sja_aa_discrim" fill-opacity="1" stroke-opacity="1"/></g><circle class="sja_aa_skkick" fill="white" fill-opacity="0" stroke="none" r="8" cy="-7" transform="scale(0)"/><path class="sja_aa_stem" d="M0,0v0l0,0v37.8" stroke="#3987CC" fill="none"/></g><g class="sja_skg" transform="translate(398.3079528808594, 58.8064079284668)"><g transform="translate(0, -9.391485214233398)" class="sja_aa_discg"><circle fill="#3987CC" stroke="white" r="8.891485505499118"/><text font-family="Arial" class="sja_aa_discnum" fill-opacity="1" stroke-opacity="1" text-anchor="middle" font-size="14.087228258248675" y="4.2261684774746024" fill="white">2</text><text font-size="12" fill="#3987CC" x="10.391485505499118" y="3.5999999999999996" font-family="Arial" class="sja_aa_disclabel" fill-opacity="1" transform="scale(1) rotate(0)">V197M</text><circle r="8.891485505499118" stroke="#3987CC" class="sja_aa_disckick" fill="white" fill-opacity="0" stroke-opacity="0" transform="scale(1)"/><path d="M5.750626331774128e-16,-9.391485505499118L5.750626331774128e-16,-9.391485505499118Z" fill="#3987CC" class="sja_aa_discrim" fill-opacity="1" stroke-opacity="1"/></g><circle class="sja_aa_skkick" fill="white" fill-opacity="0" stroke="none" r="10.391485505499118" cy="-9.391485505499118" transform="scale(0)"/><path class="sja_aa_stem" d="M0,0v0l0,0v37.8" stroke="#3987CC" fill="none"/></g><g class="sja_skg" transform="translate(473.4348449707031, 58.8064079284668)"><g transform="translate(0, -7)" class="sja_aa_discg"><circle fill="#3987CC" stroke="white" r="6.5"/><text font-size="12" fill="#3987CC" x="8" y="3.5999999999999996" font-family="Arial" class="sja_aa_disclabel" fill-opacity="1" transform="scale(1) rotate(0)">Y234H</text><circle r="6.5" stroke="#3987CC" class="sja_aa_disckick" fill="white" fill-opacity="0" stroke-opacity="0" transform="scale(1)"/><path d="M4.286263797015736e-16,-7L4.286263797015736e-16,-7Z" fill="#3987CC" class="sja_aa_discrim" fill-opacity="1" stroke-opacity="1"/></g><circle class="sja_aa_skkick" fill="white" fill-opacity="0" stroke="none" r="8" cy="-7" transform="scale(0)"/><path class="sja_aa_stem" d="M0,0v0l0,0v37.8" stroke="#3987CC" fill="none"/></g></g><g/><g transform="scale(0)"><rect fill="white" fill-opacity="0" height="0"/><text fill="#8AB1D4" fill-opacity="0" font-weight="bold" font-size="18px" text-anchor="middle" dominant-baseline="middle">Loading ...</text><line stroke="#8AB1D4" stroke-width="2px" x2="0"/></g></g><g transform="translate(139, 0)"><text font-size="14" font-family="Arial" y="7" text-anchor="end" dominant-baseline="central" fill="black" x="-10" font-weight="bold">Important_mut.txt</text><g/><text font-size="14" font-family="Arial" y="26" text-anchor="end" dominant-baseline="central" class="sja_clbtext2" fill="black" x="-10">4 mutations</text></g><g transform="translate(952, 0)"/></g></g><g transform="scale(0)"><rect fill="white"/><text fill="#8AB1D4" fill-opacity="0" font-weight="bold" font-size="18px" text-anchor="middle" dominant-baseline="middle">Loading ...</text></g><g/><g transform="translate(141,199.60640851099822)"><g transform="translate(0,0)"><rect width="15" height="20" stroke="rgb(179, 152, 33)" fill="#ffd92f" shape-rendering="crispEdges"/><text x="20" y="10" dominant-baseline="central" font-size="16" font-family="Arial" fill="black">P53_TAD</text><text x="98.1796875" y="10" dominant-baseline="central" font-size="12" font-family="Arial" fill="#858585">P53 transactivation motif</text></g><g transform="translate(0,23)"><rect width="15" height="20" stroke="rgb(160, 137, 104)" fill="#e5c494" shape-rendering="crispEdges"/><text x="20" y="10" dominant-baseline="central" font-size="16" font-family="Arial" fill="black">TAD2</text><text x="69.7109375" y="10" dominant-baseline="central" font-size="12" font-family="Arial" fill="#858585">Transactivation domain 2</text></g><g transform="translate(0,46)"><rect width="15" height="20" stroke="rgb(90, 124, 148)" fill="#80b1d3" shape-rendering="crispEdges"/><text x="20" y="10" dominant-baseline="central" font-size="16" font-family="Arial" fill="black">P53</text><text x="58.46875" y="10" dominant-baseline="central" font-size="12" font-family="Arial" fill="#858585">P53 DNA-binding domain</text></g><g transform="translate(0,69)"><rect width="15" height="20" stroke="rgb(133, 130, 153)" fill="#bebada" shape-rendering="crispEdges"/><text x="20" y="10" dominant-baseline="central" font-size="16" font-family="Arial" fill="black">other</text><text x="66.6875" y="10" dominant-baseline="central" font-size="12" font-family="Arial" fill="#858585">zinc binding site [ion binding]</text></g><g transform="translate(0,92)"><rect width="15" height="20" stroke="rgb(176, 90, 80)" fill="#fb8072" shape-rendering="crispEdges"/><text x="20" y="10" dominant-baseline="central" font-size="16" font-family="Arial" fill="black">other</text><text x="66.6875" y="10" dominant-baseline="central" font-size="12" font-family="Arial" fill="#858585">dimerization site [polypeptide binding]</text></g><g transform="translate(0,115)"><rect width="15" height="20" stroke="rgb(99, 148, 139)" fill="#8dd3c7" shape-rendering="crispEdges"/><text x="20" y="10" dominant-baseline="central" font-size="16" font-family="Arial" fill="black">DNA binding</text><text x="118.9453125" y="10" dominant-baseline="central" font-size="12" font-family="Arial" fill="#858585">DNA binding site [nucleotide binding]</text></g><g transform="translate(0,138)"><rect width="15" height="20" stroke="rgb(177, 126, 69)" fill="#fdb462" shape-rendering="crispEdges"/><text x="20" y="10" dominant-baseline="central" font-size="16" font-family="Arial" fill="black">NLS</text><text x="61.125" y="10" dominant-baseline="central" font-size="12" font-family="Arial" fill="#858585">Nuclear localization signal</text></g><g transform="translate(0,161)"><rect width="15" height="20" stroke="rgb(116, 151, 59)" fill="#a6d854" shape-rendering="crispEdges"/><text x="20" y="10" dominant-baseline="central" font-size="16" font-family="Arial" fill="black">P53_tetramer</text><text x="127.15625" y="10" dominant-baseline="central" font-size="12" font-family="Arial" fill="#858585">P53 tetramerisation motif</text></g></g><g transform="translate(744,199.60640851099822)"><g transform="translate(0,0)"><circle cx="10" cy="10" r="10" fill="#3987CC"/><text x="30" y="10" dominant-baseline="central" font-size="16" font-family="Arial" fill="#3987CC">MISSENSE, n=4</text></g><g transform="translate(0,23)"><g transform="translate(5,0)"><circle cx="7" cy="12" r="7" fill="#b1b1b1"/></g><text x="30" y="10" dominant-baseline="central" font-size="16" font-family="Arial" fill="black">Somatic, n=4</text></g></g></svg>